<?xml version="1.0" encoding="UTF-8" standalone="no"?>
<svg width="300px" height="300px" viewBox="0 0 300 300" version="1.1" xmlns="http://www.w3.org/2000/svg" xmlns:xlink="http://www.w3.org/1999/xlink" xmlns:sketch="http://www.bohemiancoding.com/sketch/ns">
    <!-- Generator: Sketch 3.3.3 (12081) - http://www.bohemiancoding.com/sketch -->
    <title>Artboard 1</title>
    <desc>Created with Sketch.</desc>
    <defs></defs>
    <g id="Page-1" stroke="none" stroke-width="1" fill="none" fill-rule="evenodd" sketch:type="MSPage">
        <g id="Artboard-1" sketch:type="MSArtboardGroup" fill="#FFFFFF">
            <g id="Group" sketch:type="MSLayerGroup" transform="translate(5.000000, 124.000000)">
                <path d="M0.31171381,35.2236606 L4.54156406,35.2236606 L16.6651082,2.67272879 L19.4869384,2.67272879 L33.6969384,35.2236606 L37.095391,35.2236606 L37.095391,37.7323295 L20.4254576,37.7323295 L20.4254576,35.2236606 L23.3037438,35.2236606 L20.3718968,28.4306156 L10.4988686,28.4306156 L7.94001664,35.2236606 L11.4402829,35.2236606 L11.4402829,37.7323295 L0.312196339,37.7323295 L0.312196339,35.2236606 L0.31171381,35.2236606 Z M11.5420965,25.6107155 L19.3822296,25.6107155 L15.254193,15.734792 L11.5420965,25.6107155 L11.5420965,25.6107155 Z" id="Shape" sketch:type="MSShapeGroup"></path>
                <path d="M37.0442429,35.2236606 L40.3862396,35.2236606 L40.3862396,16.3606323 L36.5752246,16.3606323 L36.5752246,13.8519634 L49.0071048,13.8519634 L49.0071048,19.6008153 L49.1118136,19.6008153 C50.6298502,15.1610649 53.9182862,13.1223794 58.1027787,13.1223794 C62.0725458,13.1223794 64.8374376,14.9516473 64.9986023,19.7045591 C66.5142263,15.2146256 69.8533278,13.1223794 74.0373378,13.1223794 C78.6290849,13.1223794 81.6656406,15.2146256 81.6656406,20.7487521 L81.6656406,35.2236606 L84.953594,35.2236606 L84.953594,37.7323295 L70.2769884,37.7323295 L70.2769884,35.2236606 L72.2587354,35.2236606 L72.2587354,20.1238769 C72.2587354,18.5566223 71.8403827,17.7223295 70.5341764,17.7223295 C67.868203,17.7223295 65.7277038,22.6306156 65.7277038,28.6395507 L65.7277038,35.2236606 L67.9724293,35.2236606 L67.9724293,37.7323295 L54.3390516,37.7323295 L54.3390516,35.2236606 L56.3236938,35.2236606 L56.3236938,20.1238769 C56.3236938,18.5566223 55.9024459,17.7223295 54.5962396,17.7223295 C51.6219301,17.7223295 49.7897671,23.3611647 49.7897671,28.8996339 L49.7897671,35.223178 L52.0344925,35.223178 L52.0344925,37.7318469 L37.0442429,37.7318469 L37.0442429,35.2236606 L37.0442429,35.2236606 Z" id="Shape" sketch:type="MSShapeGroup"></path>
                <path d="M89.4488353,47.1363394 L89.4488353,16.3611148 L85.6349251,16.3611148 L85.6349251,13.8524459 L98.0214476,13.8524459 L98.0214476,17.7739601 L98.1261564,17.7739601 C99.2740932,15.7352745 100.840383,13.1228619 105.906938,13.1228619 C112.856323,13.1228619 116.096506,18.0340433 116.096506,25.138802 C116.096506,34.492629 110.718719,38.4619135 104.759002,38.4619135 C101.677088,38.4619135 99.7431115,37.3130116 98.5445092,35.6420133 L98.4369052,35.6420133 C98.4369052,35.6420133 98.8045923,37.4693511 98.8045923,39.713594 L98.8045923,47.1363394 L102.146589,47.1363394 L102.146589,49.6430782 L86.1097338,49.6430782 L86.1097338,47.1363394 L89.4488353,47.1363394 L89.4488353,47.1363394 Z M102.666755,34.7522296 C104.86371,34.7522296 106.432895,31.5656073 106.432895,25.2439933 C106.432895,18.6618136 104.705441,16.8325458 103.037338,16.8325458 C100.529634,16.8325458 98.5956572,21.0083527 98.5956572,26.2380033 C98.5951747,31.3566722 100.421547,34.7522296 102.666755,34.7522296 L102.666755,34.7522296 Z" id="Shape" sketch:type="MSShapeGroup"></path>
                <path d="M131.824542,13.1223794 C139.088053,13.1223794 143.113794,16.4672712 143.113794,23.1010815 L143.113794,26.182995 L128.326689,26.182995 L128.326689,28.3249418 C128.326689,34.1804326 130.260666,35.7973877 133.339684,35.7973877 C136.633428,35.7973877 139.350549,33.498619 140.133694,30.3641098 L142.955524,30.7824626 C141.858735,34.9095341 138.878636,38.4614309 131.45975,38.4614309 C123.9902,38.4614309 118.711331,34.8057903 118.711331,25.7149418 C118.711814,16.6747587 123.885491,13.1223794 131.824542,13.1223794 L131.824542,13.1223794 Z M133.755624,23.3104992 L133.755624,20.6971215 C133.755624,16.7283195 132.97827,15.4221131 131.61802,15.4221131 C129.738087,15.4221131 128.689068,16.4146755 128.377837,23.3104992 L133.755624,23.3104992 L133.755624,23.3104992 Z" id="Shape" sketch:type="MSShapeGroup"></path>
                <path d="M145.466606,35.2236606 L148.811498,35.2236606 L148.811498,16.3606323 L144.997587,16.3606323 L144.997587,13.8519634 L157.429468,13.8519634 L157.429468,21.0088353 L157.537072,21.0088353 C158.161947,18.294609 161.034443,13.1223794 165.897371,13.1223794 C168.766972,13.1223794 171.170449,14.9516473 171.170449,18.0335607 C171.170449,21.7968053 167.619517,23.3104992 164.221065,22.9963727 C164.325774,22.1615973 164.430483,21.1164393 164.430483,19.7561897 C164.430483,18.7148918 164.167504,17.6668386 163.177837,17.6668386 C161.555092,17.6668386 158.21599,22.5770549 158.21599,31.2003328 L158.21599,35.2236606 L162.0299,35.2236606 L162.0299,37.7323295 L145.467571,37.7323295 L145.467571,35.2236606 L145.466606,35.2236606 Z" id="Shape" sketch:type="MSShapeGroup"></path>
                <path d="M173.258835,33.2390183 L173.258835,29.2127953 L176.184892,29.2127953 L176.184892,30.0504659 C176.184892,32.1924126 178.381847,35.7476872 183.292546,35.7476872 C185.746689,35.7476872 186.948186,34.7527121 186.948186,33.2906489 C186.948186,28.3249418 173.048935,31.3566722 173.048935,21.5873877 C173.048935,16.4672712 177.075158,13.1223794 183.812712,13.1223794 C186.583394,13.1223794 188.624975,13.5416972 190.762097,15.3680699 L191.288053,13.3834276 L193.846905,13.3834276 C193.846905,13.3834276 193.168469,16.9884027 193.168469,18.3481697 L193.168469,21.1690349 L190.293078,21.1690349 L190.293078,20.6469384 C190.293078,18.6082529 188.200832,15.8395008 184.332879,15.8395008 C182.407587,15.8395008 180.943111,16.5189018 180.943111,18.1899002 C180.943111,23.6241431 194.944176,20.1764725 194.944176,29.8921963 C194.944176,35.7973877 190.081248,38.4619135 183.917421,38.4619135 C179.998802,38.4619135 177.754077,37.3130116 176.083078,35.8495008 L175.610682,38.2008652 L172.944709,38.2008652 C172.945191,38.2008652 173.258835,35.4866389 173.258835,33.2390183 L173.258835,33.2390183 Z" id="Shape" sketch:type="MSShapeGroup"></path>
                <path d="M211.351614,24.2509484 L211.351614,20.0703161 C211.351614,16.5690849 210.407304,15.4221131 208.476223,15.4221131 C206.231498,15.4221131 205.445458,16.7283195 205.445458,19.5501498 C205.445458,20.7487521 205.496123,21.6366057 205.654875,22.6310982 C200.068153,23.050416 198.337804,20.9610649 198.337804,18.5571048 C198.337804,15.4225957 201.473278,13.1228619 209.471681,13.1228619 C217.258253,13.1228619 220.755624,15.3169218 220.755624,21.0093178 L220.755624,33.1328619 C220.755624,34.0207155 220.967454,34.2827288 221.488103,34.2827288 C222.222995,34.2827288 222.531331,33.7596672 223.368037,30.9378369 L226.088053,31.5665724 C224.728286,37.4698336 221.646373,38.2549085 219.186439,38.2549085 C215.793777,38.2549085 213.913361,36.7933278 212.816572,34.0742762 L212.711864,34.0742762 C211.139784,36.5303494 209.155141,38.462396 204.976439,38.462396 C200.591215,38.462396 197.24391,36.3209318 197.24391,32.2469384 C197.243428,26.2891514 204.240582,24.2509484 211.351614,24.2509484 L211.351614,24.2509484 Z M208.111431,34.335807 C209.575907,34.335807 211.351614,32.820183 211.351614,30.1040266 L211.351614,27.1258569 C207.483661,27.1258569 206.123894,28.7978203 206.123894,31.4599334 C206.123894,33.6544759 206.909933,34.335807 208.111431,34.335807 L208.111431,34.335807 Z" id="Shape" sketch:type="MSShapeGroup"></path>
                <path d="M226.087571,35.2236606 L229.429567,35.2236606 L229.429567,16.3606323 L225.615657,16.3606323 L225.615657,13.8519634 L238.052845,13.8519634 L238.052845,19.6008153 L238.151764,19.6008153 C239.61624,15.3164393 242.754609,13.1223794 247.247438,13.1223794 C251.635557,13.1223794 254.771032,15.2146256 254.771032,20.7487521 L254.771032,35.2236606 L258.06188,35.2236606 L258.06188,37.7323295 L243.379484,37.7323295 L243.379484,35.2236606 L245.367022,35.2236606 L245.367022,20.1238769 C245.367022,18.6082529 244.948669,17.7223295 243.693128,17.7223295 C240.868403,17.7223295 238.833095,23.258386 238.833095,27.9601498 L238.833095,35.2236606 L241.083611,35.2236606 L241.083611,37.7323295 L226.087571,37.7323295 L226.087571,35.2236606 L226.087571,35.2236606 Z" id="Shape" sketch:type="MSShapeGroup"></path>
                <path d="M271.174609,13.1223794 C274.573062,13.1223794 276.45589,14.6886689 277.343744,16.3606323 L277.445557,16.3606323 C277.445557,16.3606323 277.131913,14.1149418 277.131913,11.816173 L277.131913,2.7243594 L273.266855,2.7243594 L273.266855,0.216655574 L286.484775,0.216655574 L286.484775,35.2236606 L289.829667,35.2236606 L289.829667,37.7323295 L278.333894,37.7323295 L278.022662,34.1273544 L277.920849,34.1273544 C277.601414,35.0123128 275.986872,38.4614309 270.185424,38.4614309 C263.23604,38.4614309 259.837587,33.498619 259.837587,26.2380033 C259.837105,16.1545923 266.371032,13.1223794 271.174609,13.1223794 L271.174609,13.1223794 Z M277.343744,25.7154243 C277.343744,20.2285857 275.251498,16.8330283 273.108586,16.8330283 C271.228652,16.8330283 269.506506,19.3407321 269.506506,26.182995 C269.506506,33.0807488 271.282213,34.7527121 272.851398,34.7527121 C274.991414,34.7522296 277.343744,31.5660899 277.343744,25.7154243 L277.343744,25.7154243 Z" id="Shape" sketch:type="MSShapeGroup"></path>
            </g>
        </g>
    </g>
</svg>