<?xml version="1.0" encoding="utf-8"?>
<!-- Generator: Adobe Illustrator 15.0.2, SVG Export Plug-In . SVG Version: 6.00 Build 0)  -->
<!DOCTYPE svg PUBLIC "-//W3C//DTD SVG 1.1//EN" "http://www.w3.org/Graphics/SVG/1.1/DTD/svg11.dtd">
<svg version="1.1" id="Layer_1" xmlns="http://www.w3.org/2000/svg" xmlns:xlink="http://www.w3.org/1999/xlink" x="0px" y="0px"
	 width="300px" height="300px" viewBox="0 0 300 300" enable-background="new 0 0 300 300" xml:space="preserve">
<g>
	<g>
		<path fill="#FFFFFF" d="M49.076,169H37.903c-0.77,0-1.903-0.205-1.903-0.554V217h13v-48.006C49,168.994,49.097,169,49.076,169z"/>
		<path fill="#FFFFFF" d="M37.903,131h11.173c0.021,0-0.076,0.006-0.076,0.006V82H36v49.536C36,131.196,37.131,131,37.903,131z"/>
		<path fill="#FFFFFF" d="M43,140v5h3.822c0.836,0,1.178,0.279,2.178,0.728v-5.729c0,0,0.098,0.002,0.076,0.002H43z"/>
		<path fill="#FFFFFF" d="M43,160h6.076c0.021,0-0.076,0.002-0.076,0.002v-5.731c-1,0.448-1.341,0.729-2.178,0.729H43V160z"/>
		<path fill="#FFFFFF" d="M118.413,148.182L86.05,83.509C85.818,83.062,85.625,83,85.45,82H71v49.146
			c1,0.186,1.777,0.61,2.438,1.267c0.911,0.912,1.562,2.061,1.562,3.328v1.964c0-0.639,0.529-1.249,0.942-1.815
			c1.241-1.873,2.819-3.235,4.869-4.049c1.247-0.552,2.708-0.85,4.256-0.85c2.322,0,4.419,0.647,6.28,1.922
			c0.881,0.618,1.657,1.318,2.327,2.097c0.713,0.833,1.289,1.768,1.715,2.783c0.58,1.389,0.872,2.849,0.872,4.345
			c0,1.252-0.469,2.399-1.357,3.316c-0.913,0.941-2.072,1.438-3.352,1.438c-1.283,0-2.443-0.498-3.354-1.441
			c-0.885-0.914-1.357-2.061-1.357-3.313c0-0.283-0.1-0.589-0.295-0.932c-0.249-0.308-0.521-0.52-0.79-0.631
			c-0.573-0.255-0.925-0.19-1.217-0.101c-0.153,0.046-0.355,0.125-0.522,0.235c-0.273,0.179-0.539,0.41-0.678,0.751
			c-0.126,0.287-0.34,0.485-0.34,0.677v6.578c1-0.869,2.355-1.715,3.598-1.715h4.956c1.326,0,2.371,0.7,3.27,1.66
			c0.837,0.84,1.176,2.172,1.176,3.434v5.676c0,2.31-0.518,4.423-1.798,6.282c-1.212,1.783-2.709,3.141-4.7,4.022
			c-1.436,0.599-2.895,0.891-4.389,0.891c-2.229,0-4.329-0.64-6.241-1.9c-0.913-0.633-1.699-1.35-2.386-2.165
			c-0.711-0.854-1.281-1.788-1.699-2.786c-0.159-0.38-0.294-0.768-0.41-1.16c-0.321,1.113-0.901,2.166-1.575,3.145
			c-0.496,0.729-0.802,1.366-1.802,1.949V217h14.494c0.162,0,0.342-0.552,0.556-0.916l32.363-64.402
			C118.861,150.484,118.861,149.383,118.413,148.182z"/>
		<path fill="#FFFFFF" d="M131.672,120.317c1.646,0,2.843-0.925,3.595-2.424L153.124,82h-42.908l17.859,35.893
			C128.823,119.392,130.021,120.317,131.672,120.317z"/>
		<path fill="#FFFFFF" d="M84.521,159.428c0.017,0.008,0.188,0.078,0.61,0.078c0.359,0,0.66-0.085,0.933-0.274
			c0.336-0.22,0.559-0.445,0.698-0.773c0.105-0.252,0.237-0.486,0.237-0.688V157h-0.402c-1.24,0-2.598-0.612-3.598-1.482v2.252
			c0,0.315,0.264,0.637,0.459,0.979c0.248,0.31,0.676,0.518,0.957,0.635L84.521,159.428z"/>
		<path fill="#FFFFFF" d="M236.122,91.784c-2.997-1.347-6.144-1.784-9.439-1.784h-12.358c-1.201,0-2.312,0.141-3.061,0.888
			C210.513,91.64,210,92.375,210,93.572v112.369c0,1.049,0.513,2.068,1.264,2.816c0.748,0.75,1.859,1.242,3.061,1.242h12.358
			c4.798,0,9.365-1.471,13.709-4.166c4.047-2.842,6.879-6.498,8.676-10.846c1.35-3.146,1.933-6.428,1.933-9.723v-71.241
			c0-4.642-1.334-9.095-4.179-13.591C243.972,96.242,240.466,93.436,236.122,91.784z"/>
		<path fill="#FFFFFF" d="M260.773,82c3.693,4,6.541,8.624,8.735,13.645c2.395,5.694,3.491,11.938,3.491,18.379v71.241
			c0,9.588-2.521,18.088-7.762,25.876c-1.494,2.201-3.015,4.858-4.74,5.858H286V82H260.773z"/>
		<path fill="#FFFFFF" d="M177.292,83.282l-32.363,64.811c-0.75,1.201-0.75,2.443,0,3.642l32.363,64.327
			c0.182,0.368,0.342,0.938,0.479,0.938H188V82h-10.225C177.634,83,177.474,82.914,177.292,83.282z"/>
		<path fill="#FFFFFF" d="M131.672,179.423c-1.651,0-2.849,0.559-3.597,2.054L110.216,217h42.908l-17.857-35.523
			C134.515,179.981,133.317,179.423,131.672,179.423z"/>
	</g>
	<path fill="#FFFFFF" d="M116.074,124h-8.231H70.552H15v52h55.552h37.291h8.231c2.462,0,4.926-2.07,4.926-4.532v-43.199
		C121,125.811,118.536,124,116.074,124z M41.021,147.596c0.15,0.134,0.141,0.404,0.38,0.404h5.901c0.601,0,1.119,0.017,1.555,0.452
		c0.435,0.435,0.654,0.865,0.654,1.498c0,0.599-0.219,1.042-0.654,1.477c-0.436,0.436-0.954,0.574-1.555,0.574h-5.901
		c-0.24,0-0.23,0.102-0.38,0.254c-0.151,0.148-0.021,0.368-0.021,0.61v8.245c0,0.208-0.131,0.453,0.021,0.602
		c0.15,0.152,0.141,0.289,0.38,0.289h8.155c0.601,0,1.117,0.154,1.555,0.588c0.433,0.436,0.652,0.926,0.652,1.524
		c0,0.633-0.219,0.98-0.652,1.416c-0.438,0.435-0.954,0.472-1.555,0.472H38.383c-0.601,0-1.206-0.053-1.641-0.486
		c-0.437-0.436-0.742-0.8-0.742-1.433v-28.515c0-0.599,0.305-1.3,0.742-1.735c0.435-0.435,1.04-0.831,1.641-0.831h11.173
		c0.601,0,1.117,0.396,1.555,0.831c0.433,0.435,0.652,1.046,0.652,1.645c0,0.603-0.219,1.277-0.652,1.712
		c-0.438,0.435-0.954,0.812-1.555,0.812h-8.155c-0.24,0-0.23-0.038-0.38,0.111c-0.151,0.152-0.021,0.233-0.021,0.475v8.242
		C41,147.069,40.869,147.458,41.021,147.596z M73,157.685c0,1.804-0.595,3.425-1.586,4.864c-0.961,1.413-2.29,2.462-3.879,3.154
		c-1.052,0.449-2.203,0.677-3.404,0.677c-1.712,0-3.332-0.499-4.832-1.488c-0.692-0.479-1.314-1.041-1.853-1.688
		c-0.542-0.646-1.208-1.357-1.539-2.139c-0.45-1.082-0.906-2.209-0.906-3.38v-22.074c0-0.599,0.446-1.12,0.881-1.555
		s1.066-0.651,1.669-0.651c0.601,0,1.239,0.216,1.676,0.651c0.436,0.435,0.774,0.956,0.774,1.555v22.074
		c0,0.811,0.175,1.606,0.655,2.388c0.451,0.691,1.05,1.201,1.86,1.532c0.24,0.119,0.486,0.2,0.772,0.249
		c0.285,0.045,0.556,0.063,0.825,0.063c0.9,0,1.691-0.238,2.383-0.718c0.69-0.45,1.006-1.067,1.337-1.849
		c0.242-0.569,0.167-1.127,0.167-1.666v-22.074c0-0.599,0.41-1.12,0.845-1.555s1.05-0.651,1.65-0.651s1.267,0.216,1.704,0.651
		c0.435,0.435,0.801,0.956,0.801,1.555V157.685z M81.877,160.027c0.541,0.722,1.25,1.23,1.971,1.532
		c0.45,0.212,1.043,0.316,1.706,0.316c0.87,0,1.671-0.242,2.361-0.722c0.692-0.45,1.297-1.067,1.628-1.849
		c0.24-0.569,0.457-1.127,0.457-1.666v-2.655c0-0.212-0.163-0.5-0.312-0.652c-0.15-0.148-0.432-0.332-0.672-0.332h-1.938
		c-0.601,0-1.12-0.111-1.553-0.545c-0.437-0.436-0.655-0.917-0.655-1.546c0-0.603,0.218-0.969,0.655-1.405
		c0.433-0.435,0.952-0.504,1.553-0.504h4.956c0.631,0,1.034,0.104,1.456,0.554c0.419,0.42,0.51,0.807,0.51,1.41v5.676
		c0,1.8-0.376,3.425-1.367,4.864c-0.961,1.414-2.162,2.463-3.724,3.154c-1.081,0.45-2.175,0.677-3.347,0.677
		c-1.743,0-3.349-0.498-4.85-1.487c-0.692-0.48-1.299-1.045-1.841-1.688c-0.539-0.647-0.922-1.357-1.251-2.143
		C77.169,159.938,77,158.812,77,157.64v-15.632c0-0.871,0.068-1.718,0.309-2.544s0.59-1.584,1.102-2.276
		c0.961-1.469,2.225-2.702,3.816-3.334c1.021-0.45,2.118-0.854,3.32-0.854h0.046c1.771,0,3.377,0.675,4.82,1.665
		c0.689,0.483,1.305,1.127,1.846,1.756c0.542,0.632,0.977,1.384,1.306,2.165c0.45,1.078,0.677,2.228,0.677,3.399
		c0,0.603-0.217,1.138-0.653,1.588c-0.437,0.45-0.954,0.683-1.555,0.683c-0.603,0-1.119-0.224-1.554-0.674
		c-0.435-0.45-0.653-0.973-0.653-1.575c0-0.781-0.242-1.561-0.722-2.342c-0.541-0.718-1.171-1.231-1.891-1.529
		c-0.541-0.242-1.083-0.36-1.622-0.36c-0.45,0-0.872,0.06-1.261,0.178c-0.391,0.119-0.766,0.301-1.127,0.54
		c-0.692,0.454-1.358,1.082-1.689,1.893c-0.24,0.539-0.516,1.082-0.516,1.622v15.632C81,158.45,81.395,159.246,81.877,160.027z"/>
</g>
</svg>
