<?xml version="1.0" encoding="utf-8"?>
<!-- Generator: Adobe Illustrator 15.0.2, SVG Export Plug-In . SVG Version: 6.00 Build 0)  -->
<!DOCTYPE svg PUBLIC "-//W3C//DTD SVG 1.1//EN" "http://www.w3.org/Graphics/SVG/1.1/DTD/svg11.dtd">
<svg version="1.1" id="Layer_1" xmlns="http://www.w3.org/2000/svg" xmlns:xlink="http://www.w3.org/1999/xlink" x="0px" y="0px"
	 width="300px" height="300px" viewBox="0 0 300 300" enable-background="new 0 0 300 300" xml:space="preserve">
<g>
	<g>
		<rect x="243.088" y="123.892" fill="#FFFFFF" width="12.1" height="48.082"/>
		<path fill="#FFFFFF" d="M156.387,136.21l-0.003,21.612c0,2.619-2.125,4.74-4.745,4.74c-2.62,0-4.743-2.121-4.743-4.74V136.21
			h-12.129v21.636c0,2.124,0.192,4.093,0.571,5.851c0.404,1.883,1.128,3.516,2.151,4.854c1.048,1.374,2.488,2.447,4.278,3.178
			c1.72,0.707,3.907,1.066,6.498,1.066c2.114,0,4.208-0.477,6.213-1.407c0.856-0.401,1.65-0.901,2.379-1.504v2.091h11.654v-35.763
			L156.387,136.21L156.387,136.21z"/>
		<path fill="#FFFFFF" d="M186.958,171.4l0.004-21.611c0-2.623,2.124-4.746,4.745-4.746c2.619,0,4.742,2.123,4.742,4.746V171.4
			h12.128v-21.637c0-2.124-0.193-4.094-0.571-5.852c-0.402-1.881-1.127-3.515-2.146-4.852c-1.049-1.375-2.492-2.445-4.281-3.179
			c-1.721-0.708-3.906-1.066-6.496-1.066c-2.113,0-4.206,0.472-6.215,1.409c-0.857,0.398-1.651,0.9-2.381,1.502v-1.861h-11.653
			v35.535L186.958,171.4L186.958,171.4z"/>
		<path fill="#FFFFFF" d="M237.218,171.99v-11.982l-2.762,0.002h-0.065c-2.191,0-3.974-1.781-3.974-3.975l-0.015-8.624h6.566
			v-11.546h-6.566v-11.97h-12.096v11.97h-5.428v11.545h5.376l-0.017,7.653c0,1.57,0.158,3.318,0.472,5.19
			c0.336,2.018,1.112,3.923,2.308,5.668c1.211,1.769,2.955,3.257,5.188,4.419c2.229,1.161,5.214,1.647,8.87,1.647h2.143V171.99z"/>
		<path fill="#FFFFFF" d="M285.748,135.863l-6.073,19.027l-6.289-19.027h-12.923c0,0,10.896,29.279,11.57,31.088
			c0.093,0.275,0.154,0.562,0.188,0.86c0.07,0.321,0.111,0.656,0.111,1.001c0,0.072-0.012,0.141-0.016,0.217
			c-0.318,1.932-1.822,3.41-3.851,3.41h-0.067h-2.838v12.403h2.896c3.442-0.073,6.274-0.665,8.42-1.784
			c2.296-1.191,4.09-2.725,5.336-4.54c1.226-1.789,1.864-3.325,2.644-5.694c0.008-0.027,0.015-0.056,0.021-0.084l13.55-36.877
			H285.748z"/>
		<polyline fill="#FFFFFF" points="87.939,123.892 75.801,123.892 75.801,132.256 87.939,132.256 		"/>
		<path fill="#FFFFFF" d="M75.801,135.866l-0.008,33.19c0,2.192-1.778,3.974-3.972,3.974h-0.067l-2.759-0.002v11.983h2.142
			c3.657,0,6.642-0.489,8.868-1.649c2.232-1.16,3.979-2.648,5.19-4.418c1.194-1.742,1.969-3.648,2.304-5.668
			c0.314-1.873,0.472-3.617,0.472-5.186l-0.036-32.224H75.801z"/>
		<path fill="#FFFFFF" d="M126.707,139.43c-1.03-1.399-2.371-2.505-3.986-3.289c-1.529-0.741-3.239-1.246-5.078-1.5
			c-3.711-0.508-7.333-0.506-10.902,0.206c-1.951,0.391-3.74,1.059-5.315,1.986c-1.633,0.958-2.994,2.248-4.044,3.823
			c-1.078,1.617-1.696,3.641-1.838,6.017l-0.044,0.733h11.052v-0.862c0-2.162,2.555-3.916,4.718-3.916
			c3.382,0,4.961,1.431,4.961,3.916c0,0,0.027,1.275-0.236,1.664c-0.295,0.437-1.008,0.602-1.786,0.796
			c-0.927,0.23-2.017,0.411-3.241,0.526c-1.316,0.13-2.685,0.302-4.066,0.517c-1.396,0.22-2.8,0.517-4.177,0.889
			c-1.493,0.404-2.845,1.021-4.016,1.836c-1.229,0.85-2.241,2-3.009,3.41c-0.777,1.426-1.169,3.218-1.169,5.324
			c0,1.761,0.3,3.328,0.868,4.682h-0.041c0.052,0.113,0.116,0.219,0.171,0.332l0.001,0.004c0,0,0.001,0.006,0.004,0.008
			c0.336,0.703,0.718,1.363,1.17,1.959c1.071,1.4,2.538,2.491,4.363,3.241c0.721,0.296,1.542,0.519,2.418,0.691
			c0.04,0.007,0.077,0.017,0.115,0.026c0.292,0.053,0.587,0.104,0.895,0.146c0.271,0.038,0.546,0.068,0.823,0.097
			c0.209,0.021,0.413,0.048,0.629,0.06c0.041,0.006,0.081,0.006,0.122,0.006c0.526,0.033,1.059,0.06,1.622,0.06
			c2.157,0,4.288-0.483,6.335-1.438c0.874-0.407,1.684-0.919,2.424-1.533v2.133h11.885v-0.006v-5.786v-20.159
			C128.312,143.741,127.769,140.871,126.707,139.43 M116.239,159.154c0,2.207-1.584,4.053-3.671,4.473
			c-0.209,0.059-0.427,0.093-0.651,0.093h-0.263h-0.975c-0.045,0-0.084,0.006-0.127,0.006c-0.039,0-0.076-0.006-0.113-0.006h-0.927
			h-0.397c-1.44,0-2.609-1.166-2.609-2.606c0-0.609,0.22-1.164,0.57-1.609c0.15-0.209,0.317-0.4,0.525-0.553
			c0.343-0.256,0.765-0.463,1.252-0.621c0.595-0.19,1.198-0.344,1.778-0.451c0.687-0.122,1.372-0.225,2.057-0.305
			c0.743-0.088,1.472-0.199,2.166-0.334c0.478-0.091,0.942-0.199,1.386-0.328C116.241,156.91,116.239,159.021,116.239,159.154"/>
	</g>
	<path opacity="0.5" fill="#FFFFFF" enable-background="new    " d="M54.808,146.205l-4.523-7.665l-2.142-8.641
		c-0.216-0.855-0.876-1.524-1.731-1.742l-8.619-2.232l-7.625-4.59c-0.755-0.455-1.697-0.462-2.454-0.011l-7.669,4.524l-8.639,2.143
		c-0.856,0.208-1.523,0.87-1.743,1.722l-2.224,8.623l-4.597,7.626c-0.455,0.758-0.458,1.696-0.011,2.451l4.521,7.673l2.144,8.637
		c0.213,0.859,0.875,1.523,1.729,1.749l8.618,2.224l7.625,4.596c0.343,0.201,0.724,0.313,1.111,0.332
		c0.461,0.026,0.929-0.075,1.344-0.322l7.671-4.525l8.637-2.143c0.854-0.213,1.522-0.868,1.741-1.729l2.227-8.617l4.594-7.625
		C55.25,147.906,55.253,146.964,54.808,146.205 M41.14,153.369l-3.928,2.729l-2.978,3.731c-0.299,0.369-0.771,0.552-1.234,0.465
		l-4.704-0.846l-4.746,0.527c-0.258,0.03-0.511-0.02-0.732-0.132c-0.181-0.099-0.345-0.233-0.469-0.41l-2.726-3.924l-3.734-2.978
		c-0.368-0.295-0.547-0.771-0.464-1.236l0.848-4.705l-0.53-4.745c-0.054-0.471,0.151-0.929,0.543-1.2l3.925-2.722l2.983-3.737
		c0.291-0.366,0.764-0.551,1.231-0.464l4.702,0.846l4.749-0.53c0.47-0.056,0.928,0.156,1.2,0.545l2.725,3.921l3.737,2.984
		c0.367,0.294,0.547,0.763,0.463,1.229l-0.85,4.704l0.531,4.751C41.736,152.643,41.523,153.102,41.14,153.369"/>
</g>
</svg>
