<?xml version="1.0" standalone="no"?>
<!DOCTYPE svg PUBLIC "-//W3C//DTD SVG 20010904//EN"
 "http://www.w3.org/TR/2001/REC-SVG-20010904/DTD/svg10.dtd">
<svg version="1.0" xmlns="http://www.w3.org/2000/svg"
 width="260.000000pt" height="260.000000pt" viewBox="0 0 260.000000 260.000000"
 preserveAspectRatio="xMidYMid meet">
<metadata>
Created by potrace 1.11, written by Peter Selinger 2001-2013
</metadata>
<g transform="translate(0.000000,260.000000) scale(0.100000,-0.100000)"
fill="#000000" stroke="none">
<path d="M803 1472 c-1 -335 -6 -374 -53 -419 -42 -39 -89 -52 -172 -49 -110
5 -166 43 -188 127 l-11 39 -106 0 -105 0 6 -32 c31 -155 106 -243 245 -286
86 -26 286 -23 365 6 76 28 113 54 153 106 66 85 67 95 71 474 l3 342 -104 0
-104 0 0 -308z"/>
<path d="M1200 1723 c-1 -65 -1 -828 0 -855 0 -16 11 -18 95 -18 l95 0 0 313
1 312 59 -123 c33 -68 60 -124 60 -126 0 -5 149 -319 165 -346 13 -23 20 -25
93 -27 l79 -2 19 42 c147 318 269 576 271 573 2 -2 5 -140 6 -307 l2 -304 93
-3 c69 -2 92 1 93 10 1 7 2 217 3 466 l1 452 -118 0 -118 0 -54 -116 c-30 -64
-55 -117 -55 -119 0 -1 -30 -65 -66 -141 -37 -77 -86 -181 -109 -233 l-43 -94
-15 30 c-9 16 -45 92 -80 169 -83 179 -128 274 -188 402 l-48 102 -121 0 -120
0 0 -57z"/>
</g>
</svg>
