<?xml version="1.0" encoding="UTF-8" standalone="no"?>
<svg width="160px" height="36px" viewBox="0 0 160 36" version="1.1" xmlns="http://www.w3.org/2000/svg" xmlns:xlink="http://www.w3.org/1999/xlink">
    <!-- Generator: Sketch 39.1 (31720) - http://www.bohemiancoding.com/sketch -->
    <title>hokaoneone</title>
    <desc>Created with Sketch.</desc>
    <defs></defs>
    <g id="Page-1" stroke="none" stroke-width="1" fill="none" fill-rule="evenodd">
        <g id="hokaoneone" fill="#FFFFFF">
            <g id="Hoka-Logo" transform="translate(40.000000, 9.000000)">
                <g id="Group-2">
                    <path d="M58.8054184,8.16662476 C61.2633346,8.16662476 63.0605206,6.44872635 63.1926667,3.96438095 C63.3248127,1.74432762 61.7390603,0.185004444 59.386861,0.185004444 C56.8232279,0.185004444 54.9731835,1.87647365 54.8410375,4.28153143 C54.7088914,6.60730159 56.2946438,8.16662476 58.8054184,8.16662476 M57.1403784,4.20224381 C57.1932368,3.11864635 58.0389714,2.35219937 59.1754273,2.35219937 C60.2590248,2.35219937 60.9461841,3.06578794 60.8668965,4.1758146 C60.8140381,5.25941206 59.9947327,6.02585905 58.884706,6.02585905 C57.7482502,5.99942984 57.08752,5.28584127 57.1403784,4.20224381" id="Shape"></path>
                    <path d="M62.9548038,7.58518222 C62.9283746,8.03447873 63.3512419,8.03447873 63.5362463,8.03447873 L64.5669854,8.03447873 C65.0427111,8.03447873 65.1484279,7.9287619 65.2277156,7.4794654 L65.7562997,4.49296508 C65.8091581,4.20224381 65.8355873,3.99081016 65.8620165,3.7265181 C66.0205917,4.09652698 66.1527378,4.38724825 66.311313,4.67796952 L67.9499238,7.66446984 L67.976353,7.69089905 C68.108499,7.95519111 68.1877867,8.00804952 68.5049371,8.00804952 L69.9056851,8.00804952 C70.3814108,8.00804952 70.4871276,7.9023327 70.5664152,7.45303619 L71.7028711,0.977880635 L71.7293003,0.87216381 C71.7557295,0.79287619 71.7557295,0.79287619 71.7557295,0.740017778 C71.7821587,0.29072127 71.3592914,0.29072127 71.174287,0.29072127 L70.1435479,0.29072127 C69.6678222,0.29072127 69.5621054,0.396438095 69.4828178,0.845734603 L68.9013752,4.1493854 C68.874946,4.30796063 68.8485168,4.46653587 68.8220876,4.65154032 L68.7692292,4.49296508 C68.6635124,4.28153143 68.5577956,4.09652698 68.4785079,3.91152254 L66.7077511,0.634300952 C66.5491759,0.370008889 66.4963175,0.317150476 66.179167,0.317150476 L64.8048483,0.317150476 C64.3291225,0.317150476 64.2234057,0.422867302 64.1441181,0.87216381 L63.0076622,7.34731937 C62.9548038,7.53232381 62.9548038,7.53232381 62.9548038,7.58518222" id="Shape"></path>
                    <path d="M71.2007162,7.58518222 C71.174287,8.03447873 71.5971543,8.03447873 71.7821587,8.03447873 L75.0329511,8.03447873 C75.5086768,8.03447873 75.6143937,7.9287619 75.6936813,7.4794654 L75.8258273,6.66016 L75.8258273,6.58087238 L75.8258273,6.47515556 C75.8522565,6.02585905 75.4293892,6.02585905 75.2443848,6.02585905 L73.6850616,6.02585905 L73.8172076,5.23298286 L75.3236724,5.23298286 C75.7993981,5.23298286 75.9051149,5.12726603 75.9844025,4.67796952 L76.1165486,3.88509333 C76.1429778,3.77937651 76.1429778,3.70008889 76.1429778,3.67365968 C76.169407,3.22436317 75.7465397,3.22436317 75.5615352,3.22436317 L74.1607873,3.22436317 L74.3193625,2.37862857 L75.9051149,2.37862857 C76.3544114,2.37862857 76.4865575,2.27291175 76.5658451,1.82361524 L76.7244203,0.925022222 C76.7508495,0.845734603 76.7508495,0.845734603 76.7508495,0.79287619 C76.7772787,0.343579683 76.3544114,0.343579683 76.169407,0.343579683 L72.9979022,0.343579683 C72.5221765,0.343579683 72.4164597,0.449296508 72.3371721,0.898593016 L71.2007162,7.37374857 L71.2007162,7.58518222" id="Shape"></path>
                    <path d="M60.8933257,8.61592127 C58.3296927,8.61592127 56.4796483,10.3073905 56.3475022,12.7124483 C56.2153562,15.0382184 57.8275378,16.5975416 60.3118832,16.5975416 C62.7697994,16.5975416 64.5669854,14.8796432 64.6991314,12.3952978 C64.8048483,10.1752444 63.2455251,8.61592127 60.8933257,8.61592127 M62.3733613,12.5803022 C62.3205029,13.6638997 61.5011975,14.4303467 60.3911708,14.4303467 C59.2811441,14.4303467 58.5939848,13.7167581 58.6468432,12.6331606 C58.6997016,11.5495632 59.5454362,10.7831162 60.6818921,10.7831162 C61.7654895,10.7831162 62.4262197,11.4967048 62.3733613,12.5803022" id="Shape"></path>
                    <path d="M73.2357651,9.32950984 C73.2621943,9.25022222 73.2621943,9.25022222 73.2621943,9.19736381 C73.2886235,8.7480673 72.8657562,8.7480673 72.6807517,8.7480673 L71.6500127,8.7480673 C71.174287,8.7480673 71.0685702,8.85378413 70.9892825,9.30308063 L70.40784,12.6067314 C70.3814108,12.7653067 70.3549816,12.9238819 70.3285524,13.1088863 L70.275694,12.9503111 C70.1699771,12.7388775 70.0642603,12.553873 69.9849727,12.3688686 L68.2142159,9.09164698 C68.0556406,8.82735492 68.0027822,8.77449651 67.6856317,8.77449651 L66.311313,8.77449651 C65.8355873,8.77449651 65.7298705,8.88021333 65.6505829,9.32950984 L64.514127,15.8046654 C64.4876978,15.9896698 64.4876978,15.9896698 64.4876978,16.0425283 C64.4612686,16.4918248 64.8841359,16.4918248 65.0691403,16.4918248 L66.0998794,16.4918248 C66.5756051,16.4918248 66.6813219,16.3861079 66.7606095,15.9368114 L67.2891937,12.9503111 C67.3420521,12.6595898 67.3684813,12.4481562 67.3949105,12.1838641 C67.5534857,12.553873 67.6856317,12.8445943 67.844207,13.1353156 L69.4828178,16.1218159 L69.509247,16.1482451 C69.641393,16.4125371 69.7206806,16.4653956 70.0378311,16.4653956 L71.438579,16.4653956 C71.9143048,16.4653956 72.0200216,16.3596787 72.0993092,15.9103822 L73.2357651,9.43522667 L73.2357651,9.32950984" id="Shape"></path>
                    <path d="M76.9094248,13.6374705 C77.3851505,13.6374705 77.4908673,13.5317537 77.5701549,13.0824571 L77.702301,12.289581 C77.7287302,12.1838641 77.7287302,12.1310057 77.7287302,12.0781473 C77.7551594,11.6288508 77.3322921,11.6288508 77.1472876,11.6288508 L75.7465397,11.6288508 L75.9051149,10.7831162 L77.4908673,10.7831162 C77.9401638,10.7831162 78.0723098,10.6773994 78.1515975,10.2281029 L78.3101727,9.32950984 C78.3366019,9.25022222 78.3366019,9.25022222 78.3366019,9.19736381 C78.3630311,8.7480673 77.9401638,8.7480673 77.7551594,8.7480673 L74.5836546,8.7480673 C74.1079289,8.7480673 74.0022121,8.85378413 73.9229244,9.30308063 L72.7864686,15.7782362 C72.7600394,15.9368114 72.7600394,15.9632406 72.7600394,16.016099 C72.7336102,16.4653956 73.1564775,16.4653956 73.3414819,16.4653956 L76.5394159,16.4653956 C77.0151416,16.4653956 77.1208584,16.3596787 77.200146,15.9103822 L77.3322921,15.0910768 L77.3322921,15.0117892 L77.3322921,14.9060724 C77.3587213,14.4567759 76.935854,14.4567759 76.7508495,14.4567759 L75.1915263,14.4567759 L75.3236724,13.6638997 L76.9094248,13.6638997 L76.9094248,13.6374705" id="Shape"></path>
                    <path d="M34.3584025,7.13588571 L34.3055441,7.13588571 C34.2791149,7.13588571 34.2526857,7.16231492 34.1733981,7.18874413 C33.9619644,7.29446095 33.5126679,7.5058946 33.2219467,7.63804063 C32.6405041,7.87590349 31.8476279,7.98162032 31.5569067,8.00804952 L31.4511898,8.00804952 C31.3190438,8.03447873 30.8697473,8.06090794 30.6847429,8.08733714 C30.2090171,8.11376635 29.680433,8.11376635 29.2047073,8.08733714 C28.6761232,8.06090794 28.2003975,8.03447873 27.8039594,8.06090794 L27.751101,8.06090794 C27.1696584,8.08733714 26.1917778,8.29877079 25.9539149,8.35162921 C25.5574768,8.45734603 24.5003086,8.56306286 24.1831581,8.58949206 C24.0774413,8.58949206 23.8924368,8.61592127 23.654574,8.56306286 C23.4167111,8.51020444 23.2317067,8.43091683 23.152419,8.37805841 C22.8616978,8.21948317 21.9366756,7.71732825 21.6195251,7.45303619 C21.4345206,7.29446095 20.588786,6.71301841 20.0866311,6.47515556 L19.9809143,6.47515556 C19.6109054,6.29015111 19.1616089,6.13157587 18.6858832,5.94657143 C18.2365867,5.76156698 17.7344317,5.55013333 17.3115644,5.33869968 C17.1529892,5.25941206 16.7565511,5.04797841 16.6508343,4.96869079 C16.6244051,4.96869079 16.5979759,4.94226159 16.5715467,4.91583238 C16.3072546,4.75725714 15.6465244,4.36081905 15.1972279,3.91152254 C14.9593651,3.67365968 14.6422146,3.30365079 14.5100686,3.11864635 C14.4572102,3.06578794 14.430781,3.01292952 14.4043517,3.01292952 C14.4043517,3.01292952 14.3779225,2.98650032 14.3514933,2.98650032 C14.2986349,2.98650032 14.2457765,3.01292952 14.2193473,3.01292952 C14.1664889,3.03935873 14.1136305,3.11864635 14.1400597,3.17150476 C14.1664889,3.22436317 14.6157854,3.88509333 14.9329359,4.1758146 C15.2500863,4.49296508 15.7258121,4.83654476 16.0429625,5.04797841 C16.2015378,5.15369524 16.9415556,5.60299175 16.9415556,5.60299175 C17.12656,5.73513778 17.3379937,5.8408546 17.6022857,5.99942984 C17.9194362,6.18443429 18.3158743,6.44872635 18.8444584,6.76587683 L19.0030337,6.87159365 C20.0866311,7.58518222 20.324494,7.71732825 21.090941,8.48377524 C21.4609498,8.85378413 21.6723835,9.09164698 21.8045295,9.25022222 L21.8309587,9.30308063 C21.8838171,9.35593905 21.9631048,9.46165587 22.0423924,9.5938019 C22.2273968,9.83166476 22.5181181,10.2281029 22.7824102,10.5452533 C22.888127,10.6773994 22.9674146,10.7302578 23.1788483,10.7831162 C23.3902819,10.8359746 23.4695695,10.8095454 23.6281448,10.7302578 C23.9981537,10.5452533 24.421021,10.3073905 24.685313,10.1488152 C24.817459,10.0695276 24.9231759,9.99024 25.0024635,9.96381079 L25.0553219,9.93738159 C25.2403263,9.85809397 25.5310476,9.69951873 26.0067733,9.51451429 C27.0110832,9.1445054 27.2753752,9.09164698 28.5439771,8.88021333 L28.7289816,8.85378413 C29.3368533,8.7480673 29.7861498,8.69520889 30.1561587,8.64235048 C30.44688,8.58949206 30.6847429,8.56306286 30.9226057,8.53663365 C30.9226057,8.53663365 31.7683403,8.40448762 31.979774,8.37805841 C32.3497829,8.3252 32.9312254,8.16662476 33.3540927,8.00804952 C33.77696,7.84947429 34.4376902,7.42660698 34.4905486,7.37374857 C34.543407,7.34731937 34.5169778,7.24160254 34.4905486,7.18874413 C34.4641194,7.18874413 34.411261,7.13588571 34.3584025,7.13588571" id="Shape"></path>
                    <path d="M53.5724356,1.40074794 C53.4138603,0.502154921 53.2288559,0.343579683 52.3038337,0.343579683 L49.3437625,0.343579683 C48.630174,0.343579683 48.4187403,0.396438095 48.128019,0.925022222 L48.1015898,1.00430984 C48.0751606,1.03073905 48.0487314,1.11002667 48.0223022,1.16288508 L41.9435848,12.0517181 L39.7235314,8.56306286 L44.8243683,2.0879073 C45.1415187,1.69146921 45.2472356,1.53289397 45.2736648,1.2421727 C45.300094,1.00430984 45.2208063,0.79287619 45.0622311,0.634300952 C44.797939,0.370008889 44.401501,0.343579683 44.0050629,0.343579683 L41.2828546,0.343579683 C40.7806997,0.343579683 40.6485537,0.475725714 40.3314032,0.845734603 L36.3141638,5.94657143 L37.0806108,1.71789841 L37.0806108,1.66504 C37.0806108,1.58575238 37.10704,1.50646476 37.10704,1.42717714 C37.10704,1.34788952 37.1334692,1.29503111 37.1334692,1.2421727 C37.1334692,1.13645587 37.1598984,0.819305397 36.9484648,0.607871746 C36.7370311,0.370008889 36.3670222,0.317150476 35.9177257,0.317150476 L33.7241016,0.317150476 C32.7726502,0.317150476 32.5612165,0.502154921 32.4026413,1.42717714 L31.8211987,4.67796952 C31.5040483,3.80580571 31.0283225,3.01292952 30.3940216,2.35219937 C28.9668444,0.845734603 26.7996495,0 24.3153041,0 C20.9587949,0 18.1837283,1.37431873 16.492259,3.62080127 L16.8358387,1.69146921 L16.8886971,1.48003556 C16.9151263,1.34788952 16.9151263,1.32146032 16.9151263,1.21574349 C16.9151263,1.11002667 16.9415556,0.79287619 16.7301219,0.58144254 C16.5186883,0.343579683 16.1486794,0.29072127 15.6993829,0.29072127 L13.5321879,0.29072127 C12.5807365,0.29072127 12.3693029,0.475725714 12.2107276,1.40074794 L11.3914222,5.89371302 L6.52844825,5.89371302 L7.29489524,1.71789841 L7.29489524,1.66504 C7.29489524,1.58575238 7.32132444,1.50646476 7.32132444,1.42717714 C7.32132444,1.34788952 7.34775365,1.29503111 7.34775365,1.2421727 C7.34775365,1.13645587 7.37418286,0.819305397 7.16274921,0.607871746 C6.95131556,0.370008889 6.58130667,0.317150476 6.13201016,0.317150476 L3.99124444,0.317150476 C3.03979302,0.317150476 2.82835937,0.502154921 2.66978413,1.42717714 L0.211867937,15.0646476 C0.159009524,15.3817981 0.132580317,15.4082273 0.132580317,15.5403733 C0.132580317,15.6460902 0.106151111,15.9632406 0.317584762,16.1746743 C0.529018413,16.4125371 0.899027302,16.4653956 1.34832381,16.4653956 L3.51551873,16.4653956 C4.46697016,16.4653956 4.67840381,16.2803911 4.83697905,15.3553689 L5.78843048,10.0959568 L10.6514044,10.0959568 L9.75281143,15.0646476 L9.72638222,15.2232229 C9.67352381,15.4082273 9.67352381,15.4346565 9.67352381,15.5403733 C9.67352381,15.6460902 9.6470946,15.9632406 9.85852825,16.1746743 C10.0699619,16.4125371 10.4399708,16.4653956 10.8892673,16.4653956 L13.0564622,16.4653956 C14.0079137,16.4653956 14.2193473,16.2803911 14.3779225,15.3553689 L15.0650819,11.523134 C15.3822324,12.5803022 15.9108165,13.5053244 16.6772635,14.2982006 C18.157299,15.883953 20.4302108,16.7561168 23.0731314,16.7561168 C26.0596317,16.7561168 28.5968356,15.5139441 30.2354463,13.4788952 L29.9447251,15.0646476 C29.8918667,15.3817981 29.8654375,15.4082273 29.8654375,15.5403733 C29.8654375,15.6460902 29.8390083,15.9632406 30.0504419,16.1746743 C30.2618756,16.4125371 30.6318844,16.4653956 31.081181,16.4653956 L33.2483759,16.4653956 C34.1998273,16.4653956 34.411261,16.2803911 34.5698362,15.3553689 L35.4684292,10.4131073 C35.6534337,10.756687 35.8384381,11.0738375 35.9970133,11.3645587 L38.6927924,15.751807 L38.77208,15.8575238 C39.0892305,16.3596787 39.2213765,16.4389663 39.8292483,16.4389663 L41.3092838,16.4389663 L42.7100317,16.4389663 L43.7672,16.4389663 C44.5072178,16.4389663 44.7186514,16.3861079 45.0093727,15.8046654 L45.0622311,15.7253778 C45.0886603,15.6989486 45.1150895,15.6460902 45.1415187,15.5932317 L46.1458286,13.6110413 L50.9030857,13.6110413 L51.2202362,15.3817981 C51.4052406,16.2539619 51.5902451,16.4125371 52.4888381,16.4125371 L54.8410375,16.4125371 C55.2374756,16.4125371 56.056781,16.4125371 56.1096394,15.5668025 C56.1096394,15.4082273 56.1096394,15.3817981 56.0303517,14.98536 L53.5724356,1.40074794 M34.807699,7.87590349 C34.807699,7.87590349 34.0676813,8.37805841 33.5655263,8.56306286 C33.0898006,8.7480673 32.4819289,8.88021333 32.0854908,8.95950095 C31.9533448,8.98593016 31.5569067,9.03878857 31.2926146,9.09164698 C31.1604686,9.11807619 31.081181,9.11807619 31.0547517,9.11807619 C30.8433181,9.1445054 30.6054552,9.19736381 30.2883048,9.22379302 L30.2618756,9.22379302 C29.8918667,9.27665143 29.4689994,9.32950984 28.8875568,9.43522667 L28.7025524,9.46165587 L28.6761232,9.46165587 C27.9625346,9.5938019 27.5660965,9.64666032 27.1960876,9.75237714 C26.5617867,11.2852711 25.0817511,12.2631517 23.2317067,12.2631517 C22.0688216,12.2631517 21.1173702,11.8931429 20.45664,11.2059835 C19.822339,10.5188241 19.5051886,9.5673727 19.558047,8.45734603 C19.558047,8.29877079 19.5844762,8.14019556 19.6109054,8.00804952 C19.3466133,7.84947429 19.0558921,7.66446984 18.659454,7.40017778 L18.5008787,7.29446095 C18.025153,6.97731048 17.6551441,6.76587683 17.3379937,6.58087238 L17.2851352,6.55444317 C17.0208432,6.39586794 16.8094095,6.2637219 16.6244051,6.13157587 L16.5451175,6.07871746 C16.2015378,5.86728381 15.8315289,5.65585016 15.7258121,5.57656254 C15.5408076,5.47084571 14.9329359,5.04797841 14.5364978,4.65154032 C14.1400597,4.28153143 13.664334,3.54151365 13.664334,3.51508444 C13.4793295,3.22436317 13.5586171,2.82792508 13.8757676,2.59006222 C14.0079137,2.4843454 14.1929181,2.43148698 14.3514933,2.43148698 L14.4836394,2.43148698 C14.6157854,2.45791619 14.7479314,2.53720381 14.8536483,2.64292063 L14.8800775,2.66934984 C14.9065067,2.69577905 14.9329359,2.72220825 14.9593651,2.77506667 C15.0650819,2.9072127 15.4086616,3.30365079 15.6200952,3.51508444 C15.8050997,3.70008889 16.1751086,4.01723937 16.8886971,4.44010667 L16.9151263,4.46653587 C16.9415556,4.49296508 16.9679848,4.49296508 16.994414,4.51939429 C17.0737016,4.5722527 17.4172813,4.75725714 17.6022857,4.86297397 C17.9987238,5.04797841 18.4744495,5.25941206 18.923746,5.44441651 L18.9501752,5.44441651 C19.4523302,5.62942095 19.9016267,5.8144254 20.2716356,5.99942984 L20.324494,6.02585905 C20.3773524,6.05228825 20.4302108,6.07871746 20.45664,6.10514667 C21.2495162,5.12726603 22.4652597,4.51939429 23.8924368,4.51939429 C25.0288927,4.51939429 25.9539149,4.86297397 26.5882159,5.55013333 C27.0903708,6.07871746 27.3810921,6.76587683 27.4603797,7.58518222 C27.5396673,7.58518222 27.6453841,7.55875302 27.7246717,7.55875302 L27.7775302,7.55875302 L28.147539,7.55875302 C28.4911187,7.55875302 28.8875568,7.58518222 29.2311365,7.58518222 C29.4425702,7.58518222 29.6540038,7.61161143 29.8918667,7.61161143 C30.1561587,7.61161143 30.4204508,7.61161143 30.6847429,7.58518222 C30.8697473,7.58518222 31.2926146,7.53232381 31.3719022,7.53232381 L31.3983314,7.53232381 C31.4247606,7.53232381 31.4511898,7.53232381 31.5040483,7.5058946 C31.7683403,7.4794654 32.4819289,7.37374857 33.010513,7.16231492 C33.3012343,7.03016889 33.77696,6.79230603 33.909106,6.73944762 C33.9883937,6.71301841 34.0148229,6.68658921 34.0412521,6.66016 L34.0941105,6.63373079 C34.1733981,6.60730159 34.2526857,6.58087238 34.3319733,6.58087238 C34.3848317,6.58087238 34.411261,6.58087238 34.4641194,6.60730159 C34.7019822,6.66016 34.8869867,6.84516444 34.9662743,6.97731048 C35.1512787,7.29446095 35.0719911,7.69089905 34.807699,7.87590349 M48.0223022,9.93738159 L49.528767,7.00373968 C49.6080546,6.84516444 49.6873422,6.68658921 49.793059,6.50158476 C49.8194883,6.73944762 49.8723467,7.0565981 49.9252051,7.42660698 L50.295214,9.93738159 L48.0223022,9.93738159" id="Shape"></path>
                    <path d="M78.73304,14.4303467 C78.1780267,14.4303467 77.702301,14.8796432 77.6494425,15.4346565 C77.5965841,15.9896698 78.0194514,16.4389663 78.5744648,16.4389663 C79.1294781,16.4389663 79.631633,15.9896698 79.6844914,15.4346565 C79.7109206,14.8796432 79.3144825,14.4303467 78.73304,14.4303467 M78.600894,16.3068203 C78.1251683,16.3068203 77.7815886,15.9103822 77.834447,15.4346565 C77.8873054,14.9589308 78.2837435,14.5624927 78.7594692,14.5624927 L78.7858984,14.5624927 C79.2351949,14.5624927 79.6052038,14.9589308 79.5523454,15.4082273 C79.4730578,15.9103822 79.0501905,16.3068203 78.600894,16.3068203" id="Shape"></path>
                    <path d="M79.0501905,15.1967937 C79.0501905,15.117506 79.0501905,15.0382184 78.9973321,14.98536 C78.9444737,14.8796432 78.8387568,14.853214 78.6537524,14.853214 L78.4687479,14.853214 C78.4158895,14.853214 78.3894603,14.8796432 78.3894603,14.9060724 L78.1780267,15.9368114 L78.1780267,15.9632406 C78.1780267,15.9896698 78.2044559,16.016099 78.2308851,16.016099 L78.3101727,16.016099 C78.3630311,16.016099 78.3894603,15.9896698 78.3894603,15.9632406 L78.4687479,15.5668025 L78.4951771,15.5668025 L78.7066108,15.9896698 C78.73304,16.0425283 78.73304,16.0425283 78.7858984,16.0425283 L78.8916152,16.0425283 C78.9180444,16.0425283 78.9444737,16.016099 78.9444737,16.016099 L78.9444737,15.9896698 L78.7066108,15.5668025 L78.73304,15.5668025 C78.9444737,15.4875149 79.0501905,15.3553689 79.0501905,15.1967937 M78.600894,15.3817981 L78.5480356,15.3817981 L78.6273232,15.0646476 L78.6801816,15.0646476 C78.8123276,15.0646476 78.8916152,15.117506 78.865186,15.2232229 C78.865186,15.2760813 78.8387568,15.3289397 78.7858984,15.3553689 C78.73304,15.3553689 78.6801816,15.3817981 78.600894,15.3817981" id="Shape"></path>
                </g>
            </g>
        </g>
    </g>
</svg>