<?xml version="1.0" encoding="UTF-8" standalone="no"?>
<svg width="200px" height="100px" viewBox="0 0 200 100" version="1.1" xmlns="http://www.w3.org/2000/svg" xmlns:xlink="http://www.w3.org/1999/xlink">
    <!-- Generator: Sketch 39.1 (31720) - http://www.bohemiancoding.com/sketch -->
    <title>xprize</title>
    <desc>Created with Sketch.</desc>
    <defs></defs>
    <g id="Welcome" stroke="none" stroke-width="1" fill="none" fill-rule="evenodd">
        <g id="xprize" fill="#FFFFFF">
            <g transform="translate(0.000000, 23.000000)" id="Xprize">
                <g>
                    <g id="ux">
                        <g id="Dashboard">
                            <g id="Xprize">
                                <path d="M67.8165917,13.7203874 L53.7566947,13.7203874 L53.7566947,45.6212428 L61.9289338,45.6212428 L61.9289338,37.4645558 L67.8165917,37.4645558 C83.1089069,37.4645558 83.1089069,13.7658819 67.8165917,13.7203874 M67.7710216,30.1287946 L61.9289338,30.1287946 L61.9289338,21.0116648 C63.8013589,21.0116648 65.8550518,20.9681921 67.7710216,21.0116648 C72.5194267,21.0581705 72.2449934,30.1287946 67.7710216,30.1287946" id="Fill-14"></path>
                                <path d="M103.057474,13.7203874 L89.0441602,13.7203874 L89.0441602,45.6212428 L97.2143741,45.6212428 L97.2143741,36.235189 L101.460495,36.235189 L106.938022,45.6212428 L116.807495,45.6161879 L109.815015,34.3203693 C117.895102,28.8519111 115.613558,13.7658819 103.057474,13.7203874 M103.057474,28.9894062 L97.2143741,28.9894062 L97.2143741,21.0116648 C99.1333819,21.0116648 101.140492,20.9681921 103.057474,21.0116648 C107.713727,21.0581705 107.485876,28.9894062 103.057474,28.9894062" id="Fill-15"></path>
                                <polygon id="Fill-16" points="125.024292 45.6212428 134.145401 45.6212428 134.145401 13.7203874 125.024292 13.7203874"></polygon>
                                <polyline id="Fill-17" points="145.375902 13.7203874 145.375902 21.0116648 157.242357 21.0116648 143.507526 45.6212428 169.706288 45.6212428 169.706288 38.3299653 156.466653 38.3299653 170.260217 13.7203874 145.375902 13.7203874"></polyline>
                                <polyline id="Fill-18" points="186.86799 38.37546 186.86799 32.7725399 197.733929 32.7725399 197.733929 25.5227131 186.86799 25.5227131 186.86799 21.0116648 198.691914 21.0116648 198.691914 13.7203874 178.743346 13.7203874 178.743346 45.6212428 199.103057 45.6212428 199.103057 38.37546 186.86799 38.37546"></polyline>
                                <path d="M31.8617772,45.6212428 L43.4983572,45.6212428 L26.0004488,23.5957615 C24.0247315,25.9200331 22.0621788,28.3737118 20.1451963,30.882995 L31.8617772,45.6212428" id="Fill-19"></path>
                                <path d="M50.5556478,3.76918869 C50.0219712,1.86043496 48.5941079,0.54917777 45.686735,0.600738385 C38.5595703,0.72711244 29.9316301,8.90199732 22.1907878,18.8056792 L11.6478904,5.53943646 L0.0102977108,5.53943646 L16.6079434,26.4326063 C6.92783997,40.4864122 -0.0342597272,54.834417 1.68525231,53.7647869 C4.60882785,48.9645948 8.42962816,42.9845745 12.7122055,36.8589714 C22.0368622,23.529036 33.5590105,9.51870271 42.8127803,5.56167829 C46.4786423,3.99261802 48.3379026,5.01978635 48.822971,7.41280546 C49.3100649,9.81391251 48.4118275,13.5919912 46.5616811,17.507565 C46.8361144,18.0535009 49.1885445,13.9802123 50.2700751,9.69461539 C50.8047644,7.59882806 51.0275516,5.45046912 50.5556478,3.76918869" id="Fill-21"></path>
                            </g>
                        </g>
                    </g>
                </g>
            </g>
        </g>
    </g>
</svg>