<?xml version="1.0" encoding="utf-8"?>
<!-- Generator: Adobe Illustrator 15.0.2, SVG Export Plug-In . SVG Version: 6.00 Build 0)  -->
<!DOCTYPE svg PUBLIC "-//W3C//DTD SVG 1.1//EN" "http://www.w3.org/Graphics/SVG/1.1/DTD/svg11.dtd">
<svg version="1.1" id="Layer_1" xmlns="http://www.w3.org/2000/svg" xmlns:xlink="http://www.w3.org/1999/xlink" x="0px" y="0px"
	 width="300px" height="300px" viewBox="0 0 300 300" enable-background="new 0 0 300 300" xml:space="preserve">
<g>
	<path fill="#FFFFFF" d="M87.985,167.812l-19.353-24.302c-0.583-1.164-1.688-1.976-2.975-2.186
		c-0.216-0.036-0.433-0.053-0.648-0.053c-1.065,0-2.099,0.42-2.863,1.186l-8.4,8.4l-17.173-23.745
		c-0.724-1.269-2.069-2.041-3.515-2.041c-0.094,0-0.188,0.002-0.283,0.009c-1.549,0.107-2.901,1.093-3.479,2.537L2.292,168.119
		c-0.194,0.485-0.29,0.994-0.29,1.503c0,0.799,0.235,1.591,0.696,2.273c0.754,1.111,2.011,1.778,3.354,1.778h2.426v-5.17
		c0-1.639,1.512-2.969,3.374-2.969c1.863,0,3.375,1.33,3.375,2.969v5.17h4.013v-16.615c0-1.639,1.51-2.967,3.371-2.967
		c1.864,0,3.376,1.328,3.376,2.967v16.615h4.012v-25.641c0-1.637,1.509-2.967,3.371-2.967c1.864,0,3.373,1.33,3.373,2.967v25.641
		h3.989v-12.093c0-1.639,1.511-2.967,3.374-2.967c1.862,0,3.372,1.328,3.372,2.967v12.093h4.014v-6.41
		c0-1.639,1.512-2.967,3.373-2.967c1.864,0,3.374,1.328,3.374,2.967v6.41h4.014v-14.176c0-1.635,1.51-2.966,3.371-2.966
		c1.862,0,3.373,1.331,3.373,2.966v14.176h4.561v-6.689c0-1.641,1.51-2.969,3.372-2.969c1.863,0,3.373,1.328,3.373,2.969v6.689
		h4.061c1.404,0,2.707-0.727,3.445-1.921c0.402-0.651,0.605-1.39,0.605-2.131C88.414,169.004,88.271,168.383,87.985,167.812z"/>
	<g>
		<path fill="#FFFFFF" d="M109.058,168.356c-2.156,0-2.156-1.179-2.156-3.744v-9.701h6.312v-6.21h-6.312v-7.185h-6.876v7.185h-3.027
			v6.21h3.027v10.263c0,7.393,1.797,9.754,8.006,9.754c1.796,0,5.235-0.771,5.235-0.771l-0.309-5.902
			C112.958,168.255,110.494,168.356,109.058,168.356z"/>
		<path fill="#FFFFFF" d="M124.506,148.701h-6.878v25.609h6.878v-16.629c0,0,2.618-1.334,7.134-2.206v-7.39
			c-4.056,0.77-7.134,3.028-7.134,3.028V148.701z"/>
		<path fill="#FFFFFF" d="M145.803,148.086c-7.491,0-11.341,4.618-11.341,13.753c0,9.238,3.284,13.089,11.034,13.089
			c4.771,0,10.673-1.438,10.673-1.438l-0.101-5.338c0,0-5.287,0.462-9.495,0.462c-3.694,0-5.133-1.23-5.183-4.157h15.087
			l0.514-4.823C156.991,151.884,153.348,148.086,145.803,148.086z M141.338,159.171c0.053-3.388,1.18-4.978,4.465-4.978
			c3.233,0,4.413,1.333,4.413,4.978H141.338z"/>
		<path fill="#FFFFFF" d="M182.087,166.407v-9.495c0-6.568-3.283-8.826-9.032-8.826c-3.745,0-10.572,1.129-10.572,1.129l0.207,5.85
			c0,0,6.157-0.409,9.956-0.409c1.486,0,2.565,0.924,2.565,2.31v1.281l-5.543,0.36c-5.647,0.41-8.932,2.103-8.932,7.903
			c0,5.132,2.567,8.418,7.648,8.418c3.54,0,7.852-1.746,7.852-1.746c1.644,1.077,2.823,1.746,7.288,1.746l0.205-5.851
			C182.291,168.819,182.087,168.306,182.087,166.407z M175.211,168.255c0,0-3.337,0.77-5.441,0.77c-1.436,0-2.104-0.924-2.104-2.721
			c0-1.848,1.078-2.514,2.874-2.616l4.671-0.205V168.255z"/>
		<path fill="#FFFFFF" d="M261.328,162.975h-0.067v2.738c0,2.078-1.916,3.763-4.278,3.763c-2.361,0-4.276-1.685-4.276-3.763v-17.012
			h-6.773v13.395c0,8.775,1.54,12.832,9.031,12.832c2.362,0,6.364-1.694,6.364-1.694v1.077h6.877v-25.609h-6.877V162.975z"/>
		<path fill="#FFFFFF" d="M203.746,148.754c0,0-3.645-0.668-5.543-0.668c-6.978,0-10.623,3.848-10.623,13.138
			c0,8.98,2.259,13.651,10.008,13.651c2.616,0,6.158-1.592,6.158-1.592v1.027h6.877v-35.925h-6.877V148.754z M203.146,165.22
			c0,1.819-1.913,3.293-4.276,3.293c-2.36,0-4.277-1.474-4.277-3.293v-7.711c0-1.817,1.917-3.293,4.277-3.293
			c2.363,0,4.276,1.476,4.276,3.293V165.22z"/>
		<path fill="#FFFFFF" d="M230.742,148.086c-2.412,0-6.366,1.334-6.366,1.334v-11.034h-6.875v35.925h6.858v-16.966
			c0-2.079,1.915-3.765,4.278-3.765s4.274,1.686,4.274,3.765v16.966h6.861v-13.445C239.773,152.602,237.925,148.086,230.742,148.086
			z"/>
		<path fill="#FFFFFF" d="M281.832,138.386h-6.878v35.925h6.878v-1.027c0,0,3.54,1.592,6.159,1.592
			c7.749,0,10.007-4.671,10.007-13.651c0-9.29-3.644-13.138-10.623-13.138c-1.899,0-5.543,0.668-5.543,0.668V138.386z
			 M282.431,157.509c0-1.817,1.915-3.293,4.277-3.293c2.361,0,4.276,1.476,4.276,3.293v7.711c0,1.819-1.915,3.293-4.276,3.293
			c-2.362,0-4.277-1.474-4.277-3.293V157.509z"/>
	</g>
</g>
</svg>
