<?xml version="1.0" encoding="utf-8"?>
<!-- Generator: Adobe Illustrator 15.0.2, SVG Export Plug-In . SVG Version: 6.00 Build 0)  -->
<!DOCTYPE svg PUBLIC "-//W3C//DTD SVG 1.1//EN" "http://www.w3.org/Graphics/SVG/1.1/DTD/svg11.dtd">
<svg version="1.1" id="Layer_1" xmlns="http://www.w3.org/2000/svg" xmlns:xlink="http://www.w3.org/1999/xlink" x="0px" y="0px"
	 width="300px" height="300px" viewBox="0 0 300 300" enable-background="new 0 0 300 300" xml:space="preserve">
<g>
	<rect x="98" y="141.719" fill="#FFFFFF" width="13" height="35"/>
	<path fill="#FFFFFF" d="M17.929,150.472c0-0.796,1.379-1.521,3.264-1.521c4.061,0,8.121,1.812,10.296,3.625l4.786-8.482
		c-4.061-2.685-9.281-4.497-15.155-4.497c-10.151,0-15.662,5.655-15.662,11.965c0,14.503,19.868,10.224,19.868,13.56
		c0,0.871-0.798,1.523-3.48,1.523c-3.916,0-9.861-2.249-12.616-4.425l-5.222,8.774c3.771,3.117,10.73,5.365,17.186,5.365
		c10.369,0,16.604-5.074,16.604-12.037C37.797,149.748,17.929,153.373,17.929,150.472z"/>
	<polygon fill="#FFFFFF" points="78.184,161.005 72.093,141.719 60.418,141.719 54.255,161.005 49.614,141.719 36.199,141.719 
		46.352,176.719 60.563,176.719 66.219,157.141 71.946,176.719 86.16,176.719 96.311,141.719 82.824,141.719 	"/>
	<path fill="#FFFFFF" d="M103.777,123.281c-4.062,0-7.324,3.264-7.324,7.323c0,4.061,3.263,7.324,7.324,7.324
		c4.06,0,7.323-3.263,7.323-7.324C111.1,126.544,107.837,123.281,103.777,123.281z"/>
	<path fill="#FFFFFF" d="M241.611,151.125c2.756,0,4.785,1.306,5.873,2.974l8.412-7.905c-1.959-2.972-6.89-6.598-14.865-6.598
		c-11.096,0-19.65,7.251-19.65,18.346c0,11.166,8.557,18.418,19.65,18.418c7.977,0,12.906-3.697,14.865-6.599l-8.412-7.978
		c-1.088,1.598-3.117,3.047-5.873,3.047c-3.697,0-6.889-2.395-6.889-6.889C234.723,153.445,237.914,151.125,241.611,151.125z"/>
	<polygon fill="#FFFFFF" points="203.548,141.719 187.812,141.719 180,152.939 180,126.719 166,126.719 166,176.719 180,176.719 
		180,167.586 182.419,164.792 188.32,176.719 204.346,176.719 191.51,157.66 	"/>
	<polygon fill="#FFFFFF" points="283.158,157.66 295.195,141.719 279.461,141.719 271,152.939 271,126.719 258,126.719 258,176.719 
		271,176.719 271,167.586 273.744,164.792 279.969,176.719 295.993,176.719 	"/>
	<rect x="205" y="141.719" fill="#FFFFFF" width="14" height="35"/>
	<path fill="#FFFFFF" d="M211.811,123.281c-4.061,0-7.326,3.264-7.326,7.323c0,4.061,3.267,7.324,7.326,7.324
		c4.062,0,7.322-3.263,7.322-7.324C219.133,126.544,215.872,123.281,211.811,123.281z"/>
	<path fill="#FFFFFF" d="M143,127.719h14v23.298v10.771v0.99c0,4.209,1,4.006,6,4.006v9.936c-1,0-5.729,0-6.633,0
		c-7.758,0-13.367-5.422-13.367-12.744V127.719z"/>
	<path fill="#FFFFFF" d="M163,141.719h-24.42h-0.872H130v-1.651c0-4.208,4-4.007,8-4.007v-9.342c0,0-5.399,0-6.306,0
		c-7.757,0-12.694,4.829-12.694,12.151v2.849h-9v11h9v24h13v-24h5.708h0.872H163V141.719z"/>
</g>
</svg>
