<?xml version="1.0" encoding="UTF-8" standalone="no"?>
<svg width="128px" height="27px" viewBox="0 0 128 27" version="1.1" xmlns="http://www.w3.org/2000/svg" xmlns:xlink="http://www.w3.org/1999/xlink">
    <!-- Generator: Sketch 39.1 (31720) - http://www.bohemiancoding.com/sketch -->
    <title>Hoka Logo</title>
    <desc>Created with Sketch.</desc>
    <defs></defs>
    <g id="Symbols" stroke="none" stroke-width="1" fill="none" fill-rule="evenodd">
        <g id="Header" transform="translate(-20.000000, -71.000000)" fill="#595853">
            <g id="Hoka-Logo" transform="translate(20.000000, 71.000000)">
                <path d="M94.0886695,13.0665996 C98.0213354,13.0665996 100.896833,10.3179622 101.108267,6.34300952 C101.3197,2.79092419 98.7824965,0.296007111 95.0189775,0.296007111 C90.9171647,0.296007111 87.9570936,3.00235784 87.7456599,6.85045029 C87.5342263,10.5716825 90.0714301,13.0665996 94.0886695,13.0665996 M91.4246055,6.7235901 C91.5091789,4.98983416 92.8623543,3.76351898 94.6806837,3.76351898 C96.4144396,3.76351898 97.5138946,4.9052607 97.3870344,6.68130337 C97.302461,8.4150593 95.9915723,9.64137448 94.2155297,9.64137448 C92.3972003,9.59908775 91.340032,8.45734603 91.4246055,6.7235901" id="Shape"></path>
                <path d="M100.727686,12.1362916 C100.685399,12.855166 101.361987,12.855166 101.657994,12.855166 L103.307177,12.855166 C104.068338,12.855166 104.237485,12.686019 104.364345,11.9671446 L105.210079,7.18874413 C105.294653,6.7235901 105.33694,6.38529625 105.379226,5.96242895 C105.632947,6.55444317 105.84438,7.01959721 106.098101,7.48475124 L108.719878,12.2631517 L108.762165,12.3054385 C108.973598,12.7283058 109.100459,12.8128792 109.607899,12.8128792 L111.849096,12.8128792 C112.610257,12.8128792 112.779404,12.6437323 112.906264,11.9248579 L114.724594,1.56460902 L114.766881,1.3954621 C114.809167,1.2686019 114.809167,1.2686019 114.809167,1.18402844 C114.851454,0.465154032 114.174866,0.465154032 113.878859,0.465154032 L112.229677,0.465154032 C111.468516,0.465154032 111.299369,0.634300952 111.172508,1.35317537 L110.2422,6.63901663 C110.199914,6.89273702 110.157627,7.1464574 110.11534,7.44246451 L110.030767,7.18874413 C109.86162,6.85045029 109.692473,6.55444317 109.565613,6.25843606 L106.732402,1.01488152 C106.478681,0.592014222 106.394108,0.507440762 105.886667,0.507440762 L103.687757,0.507440762 C102.926596,0.507440762 102.757449,0.676587683 102.630589,1.3954621 L100.81226,11.755711 C100.727686,12.0517181 100.727686,12.0517181 100.727686,12.1362916" id="Shape"></path>
                <path d="M113.921146,12.1362916 C113.878859,12.855166 114.555447,12.855166 114.851454,12.855166 L120.052722,12.855166 C120.813883,12.855166 120.98303,12.686019 121.10989,11.9671446 L121.321324,10.656256 L121.321324,10.5293958 L121.321324,10.3602489 C121.36361,9.64137448 120.687023,9.64137448 120.391016,9.64137448 L117.896099,9.64137448 L118.107532,8.37277257 L120.517876,8.37277257 C121.279037,8.37277257 121.448184,8.20362565 121.575044,7.48475124 L121.786478,6.21614933 C121.828764,6.04700241 121.828764,5.92014222 121.828764,5.87785549 C121.871051,5.15898108 121.194463,5.15898108 120.898456,5.15898108 L118.65726,5.15898108 L118.91098,3.80580571 L121.448184,3.80580571 C122.167058,3.80580571 122.378492,3.63665879 122.505352,2.91778438 L122.759073,1.48003556 C122.801359,1.35317537 122.801359,1.35317537 122.801359,1.2686019 C122.843646,0.549727492 122.167058,0.549727492 121.871051,0.549727492 L116.796644,0.549727492 C116.035482,0.549727492 115.866335,0.718874413 115.739475,1.43774883 L113.921146,11.7979977 L113.921146,12.1362916" id="Shape"></path>
                <path d="M97.4293211,13.785474 C93.3275083,13.785474 90.3674372,16.4918248 90.1560036,20.3399172 C89.9445699,24.0611495 92.5240604,26.5560665 96.4990131,26.5560665 C100.431679,26.5560665 103.307177,23.8074291 103.51861,19.8324764 C103.687757,16.2803911 101.19284,13.785474 97.4293211,13.785474 M99.797378,20.1284836 C99.7128046,21.8622395 98.4019159,23.0885547 96.6258733,23.0885547 C94.8498306,23.0885547 93.7503756,21.946813 93.8349491,20.213057 C93.9195225,18.4793011 95.2726979,17.2529859 97.0910273,17.2529859 C98.8247832,17.2529859 99.8819515,18.3947276 99.797378,20.1284836" id="Shape"></path>
                <path d="M117.177224,14.9272157 C117.219511,14.8003556 117.219511,14.8003556 117.219511,14.7157821 C117.261798,13.9969077 116.58521,13.9969077 116.289203,13.9969077 L114.64002,13.9969077 C113.878859,13.9969077 113.709712,14.1660546 113.582852,14.884929 L112.652544,20.1707703 C112.610257,20.4244907 112.567971,20.678211 112.525684,20.9742182 L112.44111,20.7204978 C112.271963,20.3822039 112.102817,20.0861968 111.975956,19.7901897 L109.142745,14.5466352 C108.889025,14.1237679 108.804452,14.0391944 108.297011,14.0391944 L106.098101,14.0391944 C105.33694,14.0391944 105.167793,14.2083413 105.040933,14.9272157 L103.222603,25.2874646 C103.180316,25.5834717 103.180316,25.5834717 103.180316,25.6680452 C103.13803,26.3869196 103.814617,26.3869196 104.110625,26.3869196 L105.759807,26.3869196 C106.520968,26.3869196 106.690115,26.2177727 106.816975,25.4988983 L107.66271,20.7204978 C107.747283,20.2553437 107.78957,19.9170499 107.831857,19.4941826 C108.085577,20.0861968 108.297011,20.5513509 108.550731,21.0165049 L111.172508,25.7949054 L111.214795,25.8371921 C111.426229,26.2600594 111.553089,26.3446329 112.06053,26.3446329 L114.301726,26.3446329 C115.062888,26.3446329 115.232035,26.175486 115.358895,25.4566116 L117.177224,15.0963627 L117.177224,14.9272157" id="Shape"></path>
                <path d="M123.05508,21.8199528 C123.816241,21.8199528 123.985388,21.6508058 124.112248,20.9319314 L124.323682,19.6633295 C124.365968,19.4941826 124.365968,19.4096091 124.365968,19.3250357 C124.408255,18.6061613 123.731667,18.6061613 123.43566,18.6061613 L121.194463,18.6061613 L121.448184,17.2529859 L123.985388,17.2529859 C124.704262,17.2529859 124.915696,17.083839 125.042556,16.3649646 L125.296276,14.9272157 C125.338563,14.8003556 125.338563,14.8003556 125.338563,14.7157821 C125.38085,13.9969077 124.704262,13.9969077 124.408255,13.9969077 L119.333847,13.9969077 C118.572686,13.9969077 118.403539,14.1660546 118.276679,14.884929 L116.45835,25.2451779 C116.416063,25.4988983 116.416063,25.541185 116.416063,25.6257585 C116.373776,26.3446329 117.050364,26.3446329 117.346371,26.3446329 L122.463065,26.3446329 C123.224227,26.3446329 123.393373,26.175486 123.520234,25.4566116 L123.731667,24.1457229 L123.731667,24.0188627 L123.731667,23.8497158 C123.773954,23.1308414 123.097366,23.1308414 122.801359,23.1308414 L120.306442,23.1308414 L120.517876,21.8622395 L123.05508,21.8622395 L123.05508,21.8199528" id="Shape"></path>
                <path d="M54.9734441,11.4174171 L54.8888706,11.4174171 C54.8465839,11.4174171 54.8042971,11.4597039 54.677437,11.5019906 C54.3391431,11.6711375 53.6202687,12.0094314 53.1551147,12.220865 C52.2248066,12.6014456 50.9562047,12.7705925 50.4910507,12.8128792 L50.3219037,12.8128792 C50.1104701,12.855166 49.3915957,12.8974527 49.0955886,12.9397394 C48.3344274,12.9820262 47.4886928,12.9820262 46.7275317,12.9397394 C45.8817971,12.8974527 45.1206359,12.855166 44.486335,12.8974527 L44.4017615,12.8974527 C43.4714535,12.9397394 41.9068444,13.2780333 41.5262639,13.3626067 C40.8919629,13.5317537 39.2004937,13.7009006 38.693053,13.7431873 C38.523906,13.7431873 38.2278989,13.785474 37.8473183,13.7009006 C37.4667378,13.6163271 37.1707307,13.4894669 37.0438705,13.4048935 C36.5787164,13.1511731 35.0986809,12.3477252 34.5912401,11.9248579 C34.295233,11.6711375 32.9420577,10.7408295 32.1386098,10.3602489 L31.9694629,10.3602489 C31.3774486,10.0642418 30.6585742,9.8105214 29.8974131,9.51451429 C29.1785387,9.21850717 28.3750908,8.88021333 27.6985031,8.54191949 C27.4447827,8.4150593 26.8104818,8.07676546 26.6413349,7.94990527 C26.5990481,7.94990527 26.5567614,7.90761854 26.5144747,7.86533181 C26.0916074,7.61161143 25.0344391,6.97731048 24.3155647,6.25843606 C23.9349841,5.87785549 23.4275434,5.28584127 23.2161097,4.98983416 C23.1315363,4.9052607 23.0892495,4.82068724 23.0469628,4.82068724 C23.0469628,4.82068724 23.0046761,4.77840051 22.9623893,4.77840051 C22.8778159,4.77840051 22.7932424,4.82068724 22.7509557,4.82068724 C22.6663822,4.86297397 22.5818088,4.98983416 22.6240955,5.07440762 C22.6663822,5.15898108 23.3852566,6.21614933 23.8926974,6.68130337 C24.4001382,7.18874413 25.1612993,7.73847162 25.6687401,8.07676546 C25.9224604,8.24591238 27.1064889,8.96478679 27.1064889,8.96478679 C27.402496,9.17622044 27.7407898,9.34536737 28.1636571,9.59908775 C28.6710979,9.89509486 29.3053989,10.3179622 30.1511335,10.8254029 L30.4048538,10.9945498 C32.1386098,12.1362916 32.5191903,12.3477252 33.7455055,13.5740404 C34.3375197,14.1660546 34.6758136,14.5466352 34.8872472,14.8003556 L34.929534,14.884929 C35.0141074,14.9695025 35.1409676,15.1386494 35.2678278,15.350083 C35.5638349,15.7306636 36.028989,16.3649646 36.4518563,16.8724053 C36.6210032,17.083839 36.7478634,17.1684124 37.0861572,17.2529859 C37.424451,17.3375594 37.5513112,17.2952726 37.8050316,17.1684124 C38.3970458,16.8724053 39.0736335,16.4918248 39.4965008,16.2381044 C39.7079345,16.1112442 39.8770814,15.984384 40.0039416,15.9420973 L40.088515,15.8998105 C40.3845222,15.7729503 40.8496762,15.51923 41.6108373,15.2232229 C43.2177331,14.6312086 43.6406004,14.5466352 45.6703634,14.2083413 L45.9663705,14.1660546 C46.9389653,13.9969077 47.6578397,13.9123342 48.249854,13.8277608 C48.715008,13.7431873 49.0955886,13.7009006 49.4761691,13.6586138 C49.4761691,13.6586138 50.8293445,13.4471802 51.1676383,13.4048935 C51.7596526,13.32032 52.6899606,13.0665996 53.3665483,12.8128792 C54.043136,12.5591589 55.1003043,11.8825712 55.1848777,11.7979977 C55.2694512,11.755711 55.2271644,11.5865641 55.1848777,11.5019906 C55.142591,11.5019906 55.0580175,11.4174171 54.9734441,11.4174171" id="Shape"></path>
                <path d="M85.7158969,2.2411967 C85.4621765,0.803447873 85.1661694,0.549727492 83.6861338,0.549727492 L78.9500201,0.549727492 C77.8082783,0.549727492 77.4699845,0.634300952 77.0048305,1.48003556 L76.9625437,1.60689575 C76.920257,1.64918248 76.8779703,1.77604267 76.8356836,1.86061613 L67.1097356,19.282749 L63.5576503,13.7009006 L71.7189892,3.34065168 C72.22643,2.70635073 72.3955769,2.45263035 72.4378636,1.98747632 C72.4801503,1.60689575 72.3532902,1.2686019 72.0995698,1.01488152 C71.6767025,0.592014222 71.0424015,0.549727492 70.4081006,0.549727492 L66.0525674,0.549727492 C65.2491195,0.549727492 65.0376858,0.761161143 64.5302451,1.35317537 L58.1026621,9.51451429 L59.3289773,2.74863746 L59.3289773,2.664064 C59.3289773,2.53720381 59.371264,2.41034362 59.371264,2.28348343 C59.371264,2.15662324 59.4135507,2.07204978 59.4135507,1.98747632 C59.4135507,1.8183294 59.4558375,1.31088863 59.1175436,0.972594794 C58.7792498,0.592014222 58.1872356,0.507440762 57.4683611,0.507440762 L53.9585625,0.507440762 C52.4362403,0.507440762 52.0979464,0.803447873 51.844226,2.28348343 L50.913918,7.48475124 C50.4064772,6.08928914 49.6453161,4.82068724 48.6304345,3.76351898 C46.3469511,1.35317537 42.8794392,0 38.9044866,0 C33.5340719,0 29.0939652,2.19890997 26.3876145,5.79328203 L26.937342,2.70635073 L27.0219154,2.36805689 C27.0642022,2.15662324 27.0642022,2.11433651 27.0642022,1.94518959 C27.0642022,1.77604267 27.1064889,1.2686019 26.768195,0.930308063 C26.4299012,0.549727492 25.837887,0.465154032 25.1190126,0.465154032 L21.6515007,0.465154032 C20.1291784,0.465154032 19.7908846,0.761161143 19.5371642,2.2411967 L18.2262756,9.42994083 L10.4455172,9.42994083 L11.6718324,2.74863746 L11.6718324,2.664064 C11.6718324,2.53720381 11.7141191,2.41034362 11.7141191,2.28348343 C11.7141191,2.15662324 11.7564058,2.07204978 11.7564058,1.98747632 C11.7564058,1.8183294 11.7986926,1.31088863 11.4603987,0.972594794 C11.1221049,0.592014222 10.5300907,0.507440762 9.81121625,0.507440762 L6.38599111,0.507440762 C4.86366883,0.507440762 4.52537498,0.803447873 4.2716546,2.28348343 L0.338988698,24.1034362 C0.254415238,24.610877 0.212128508,24.6531637 0.212128508,24.8645973 C0.212128508,25.0337443 0.169841778,25.541185 0.508135619,25.8794789 C0.84642946,26.2600594 1.43844368,26.3446329 2.1573181,26.3446329 L5.62482997,26.3446329 C7.14715225,26.3446329 7.4854461,26.0486258 7.73916648,24.5685902 L9.26148876,16.1535309 L17.0422471,16.1535309 L15.6044983,24.1034362 L15.5622116,24.3571566 C15.4776381,24.6531637 15.4776381,24.6954504 15.4776381,24.8645973 C15.4776381,25.0337443 15.4353514,25.541185 15.7736452,25.8794789 C16.111939,26.2600594 16.7039533,26.3446329 17.4228277,26.3446329 L20.8903396,26.3446329 C22.4126618,26.3446329 22.7509557,26.0486258 23.0046761,24.5685902 L24.104131,18.4370143 C24.6115718,20.1284836 25.4573064,21.6085191 26.6836216,22.877121 C29.0516785,25.4143248 32.6883373,26.8097869 36.9170103,26.8097869 C41.6954108,26.8097869 45.7549369,24.8223106 48.3767142,21.5662324 L47.9115601,24.1034362 C47.8269867,24.610877 47.7846999,24.6531637 47.7846999,24.8645973 C47.7846999,25.0337443 47.7424132,25.541185 48.080707,25.8794789 C48.4190009,26.2600594 49.0110151,26.3446329 49.7298895,26.3446329 L53.1974014,26.3446329 C54.7197237,26.3446329 55.0580175,26.0486258 55.3117379,24.5685902 L56.7494867,16.6609717 C57.0454938,17.2106992 57.341501,17.7181399 57.5952213,18.183294 L61.9084678,25.2028912 L62.035328,25.3720381 C62.5427688,26.175486 62.7542024,26.3023462 63.7267972,26.3023462 L66.0948541,26.3023462 L68.3360508,26.3023462 L70.02752,26.3023462 C71.2115484,26.3023462 71.5498423,26.2177727 72.0149963,25.2874646 L72.0995698,25.1606044 C72.1418565,25.1183177 72.1841432,25.0337443 72.22643,24.9491708 L73.8333257,21.777666 L81.4449371,21.777666 L81.9523779,24.610877 C82.248385,26.006339 82.5443921,26.2600594 83.982141,26.2600594 L87.7456599,26.2600594 C88.3799609,26.2600594 89.6908495,26.2600594 89.775423,24.9068841 C89.775423,24.6531637 89.775423,24.610877 89.6485628,23.976576 L85.7158969,2.2411967 M55.6923185,12.6014456 C55.6923185,12.6014456 54.50829,13.4048935 53.7048422,13.7009006 C52.943681,13.9969077 51.9710862,14.2083413 51.3367853,14.3352015 C51.1253516,14.3774883 50.4910507,14.4620617 50.0681834,14.5466352 C49.8567497,14.5889219 49.7298895,14.5889219 49.6876028,14.5889219 C49.349309,14.6312086 48.9687284,14.7157821 48.4612876,14.7580688 L48.4190009,14.7580688 C47.8269867,14.8426423 47.150399,14.9272157 46.2200909,15.0963627 L45.9240838,15.1386494 L45.8817971,15.1386494 C44.7400554,15.350083 44.1057544,15.4346565 43.5137402,15.6038034 C42.4988587,18.0564338 40.1308018,19.6210428 37.1707307,19.6210428 C35.3101145,19.6210428 33.7877923,19.0290286 32.730624,17.9295736 C31.7157425,16.8301186 31.2083017,15.3077963 31.2928752,13.5317537 C31.2928752,13.2780333 31.3351619,13.0243129 31.3774486,12.8128792 C30.9545813,12.5591589 30.4894273,12.2631517 29.8551263,11.8402844 L29.601406,11.6711375 C28.8402448,11.1636968 28.2482306,10.8254029 27.7407898,10.5293958 L27.6562164,10.4871091 C27.2333491,10.2333887 26.8950552,10.021955 26.5990481,9.8105214 L26.4721879,9.72594794 C25.9224604,9.3876541 25.3304462,9.04936025 25.1612993,8.92250006 C24.8652922,8.75335314 23.8926974,8.07676546 23.2583964,7.44246451 C22.6240955,6.85045029 21.8629343,5.66642184 21.8629343,5.62413511 C21.5669272,5.15898108 21.6937874,4.52468013 22.2012282,4.14409956 C22.4126618,3.97495263 22.708669,3.89037917 22.9623893,3.89037917 L23.173823,3.89037917 C23.3852566,3.9326659 23.5966903,4.0595261 23.7658372,4.22867302 L23.8081239,4.27095975 C23.8504107,4.31324648 23.8926974,4.35553321 23.9349841,4.44010667 C24.104131,4.65154032 24.6538585,5.28584127 24.9921524,5.62413511 C25.2881595,5.92014222 25.8801737,6.42758298 27.0219154,7.10417067 L27.0642022,7.1464574 C27.1064889,7.18874413 27.1487756,7.18874413 27.1910623,7.23103086 C27.3179225,7.31560432 27.86765,7.61161143 28.1636571,7.78075835 C28.7979581,8.07676546 29.5591192,8.4150593 30.2779937,8.71106641 L30.3202804,8.71106641 C31.1237283,9.00707352 31.8426027,9.30308063 32.4346169,9.59908775 L32.5191903,9.64137448 C32.6037638,9.68366121 32.6883373,9.72594794 32.730624,9.76823467 C33.9992259,8.20362565 35.9444155,7.23103086 38.2278989,7.23103086 C40.0462283,7.23103086 41.5262639,7.78075835 42.5411454,8.88021333 C43.3445933,9.72594794 43.8097473,10.8254029 43.9366075,12.1362916 C44.0634677,12.1362916 44.2326146,12.0940048 44.3594748,12.0940048 L44.4440483,12.0940048 L45.0360625,12.0940048 C45.58579,12.0940048 46.2200909,12.1362916 46.7698184,12.1362916 C47.1081123,12.1362916 47.4464061,12.1785783 47.8269867,12.1785783 C48.249854,12.1785783 48.6727213,12.1785783 49.0955886,12.1362916 C49.3915957,12.1362916 50.0681834,12.0517181 50.1950436,12.0517181 L50.2373303,12.0517181 C50.279617,12.0517181 50.3219037,12.0517181 50.4064772,12.0094314 C50.8293445,11.9671446 51.9710862,11.7979977 52.8168208,11.4597039 C53.2819749,11.2482702 54.043136,10.8676897 54.2545697,10.7831162 C54.3814298,10.7408295 54.4237166,10.6985427 54.4660033,10.656256 L54.5505768,10.6139693 C54.677437,10.5716825 54.8042971,10.5293958 54.9311573,10.5293958 C55.0157308,10.5293958 55.0580175,10.5293958 55.142591,10.5716825 C55.5231716,10.656256 55.8191787,10.9522631 55.9460389,11.1636968 C56.242046,11.6711375 56.1151858,12.3054385 55.6923185,12.6014456 M76.8356836,15.8998105 L79.2460272,11.2059835 C79.3728874,10.9522631 79.4997476,10.6985427 79.6688945,10.4025356 C79.7111812,10.7831162 79.7957547,11.290557 79.8803281,11.8825712 L80.4723423,15.8998105 L76.8356836,15.8998105" id="Shape"></path>
                <path d="M125.972864,23.0885547 C125.084843,23.0885547 124.323682,23.8074291 124.239108,24.6954504 C124.154535,25.5834717 124.831122,26.3023462 125.719144,26.3023462 C126.607165,26.3023462 127.410613,25.5834717 127.495186,24.6954504 C127.537473,23.8074291 126.903172,23.0885547 125.972864,23.0885547 M125.76143,26.0909125 C125.000269,26.0909125 124.450542,25.4566116 124.535115,24.6954504 C124.619689,23.9342893 125.25399,23.2999883 126.015151,23.2999883 L126.057437,23.2999883 C126.776312,23.2999883 127.368326,23.9342893 127.283753,24.6531637 C127.156892,25.4566116 126.480305,26.0909125 125.76143,26.0909125" id="Shape"></path>
                <path d="M126.480305,24.3148698 C126.480305,24.1880097 126.480305,24.0611495 126.395731,23.976576 C126.311158,23.8074291 126.142011,23.7651423 125.846004,23.7651423 L125.549997,23.7651423 C125.465423,23.7651423 125.423137,23.8074291 125.423137,23.8497158 L125.084843,25.4988983 L125.084843,25.541185 C125.084843,25.5834717 125.127129,25.6257585 125.169416,25.6257585 L125.296276,25.6257585 C125.38085,25.6257585 125.423137,25.5834717 125.423137,25.541185 L125.549997,24.9068841 L125.592283,24.9068841 L125.930577,25.5834717 C125.972864,25.6680452 125.972864,25.6680452 126.057437,25.6680452 L126.226584,25.6680452 C126.268871,25.6680452 126.311158,25.6257585 126.311158,25.6257585 L126.311158,25.5834717 L125.930577,24.9068841 L125.972864,24.9068841 C126.311158,24.7800239 126.480305,24.5685902 126.480305,24.3148698 M125.76143,24.610877 L125.676857,24.610877 L125.803717,24.1034362 L125.888291,24.1034362 C126.099724,24.1034362 126.226584,24.1880097 126.184298,24.3571566 C126.184298,24.44173 126.142011,24.5263035 126.057437,24.5685902 C125.972864,24.5685902 125.888291,24.610877 125.76143,24.610877" id="Shape"></path>
            </g>
        </g>
    </g>
</svg>