<?xml version="1.0" encoding="UTF-8" standalone="no"?>
<svg width="200px" height="100px" viewBox="0 0 200 100" version="1.1" xmlns="http://www.w3.org/2000/svg" xmlns:xlink="http://www.w3.org/1999/xlink">
    <!-- Generator: Sketch 39.1 (31720) - http://www.bohemiancoding.com/sketch -->
    <title>hokaoneone</title>
    <desc>Created with Sketch.</desc>
    <defs></defs>
    <g id="Welcome" stroke="none" stroke-width="1" fill="none" fill-rule="evenodd">
        <g id="hokaoneone" fill="#FFFFFF">
            <g transform="translate(0.000000, 29.000000)" id="Hoka-Logo">
                <g>
                    <g id="Symbols">
                        <g id="Header">
                            <g id="Hoka-Logo">
                                <path d="M149.347094,20.7406343 C155.589421,20.7406343 160.153703,16.3777178 160.489313,10.0682691 C160.824921,4.4300384 156.797613,0.469852557 150.823774,0.469852557 C144.31296,0.469852557 139.614434,4.76564737 139.278825,10.8737306 C138.943216,16.7804484 142.970524,20.7406343 149.347094,20.7406343 M145.118421,10.6723652 C145.252665,7.92037168 147.400562,5.97383965 150.2868,5.97383965 C153.038793,5.97383965 154.78396,7.7861281 154.582594,10.6052434 C154.448351,13.357237 152.367575,15.303769 149.54846,15.303769 C146.662223,15.2366472 144.984178,13.4243588 145.118421,10.6723652" id="Shape"></path>
                                <path d="M159.885216,19.2639549 C159.818094,20.4050254 160.892043,20.4050254 161.361895,20.4050254 L163.979646,20.4050254 C165.187838,20.4050254 165.456325,20.1365381 165.65769,18.9954676 L167.000125,11.410705 C167.13437,10.6723652 167.201492,10.1353909 167.268613,9.46417294 C167.671344,10.403878 168.006952,11.1422178 168.409684,11.8805575 L172.571235,19.4653202 L172.638357,19.5324421 C172.973965,20.20366 173.175332,20.3379035 173.980792,20.3379035 L177.538248,20.3379035 C178.74644,20.3379035 179.014927,20.0694163 179.216292,18.9283459 L182.10253,2.48350638 L182.169652,2.21501921 C182.236773,2.01365381 182.236773,2.01365381 182.236773,1.87941022 C182.303895,0.738339733 181.229946,0.738339733 180.760094,0.738339733 L178.142344,0.738339733 C176.934152,0.738339733 176.665665,1.00682691 176.464298,2.14789741 L174.987619,10.5381216 C174.920498,10.9408524 174.853376,11.3435832 174.786254,11.8134357 L174.652011,11.410705 C174.383524,10.8737306 174.115037,10.403878 173.913671,9.93402549 L169.416511,1.61092305 C169.013779,0.939705114 168.879537,0.805461527 168.074075,0.805461527 L164.583741,0.805461527 C163.375549,0.805461527 163.107062,1.0739487 162.905697,2.21501921 L160.01946,18.6598587 C159.885216,19.1297113 159.885216,19.1297113 159.885216,19.2639549" id="Shape"></path>
                                <path d="M180.827216,19.2639549 C180.760094,20.4050254 181.834043,20.4050254 182.303895,20.4050254 L190.559876,20.4050254 C191.768068,20.4050254 192.036556,20.1365381 192.237921,18.9954676 L192.57353,16.9146921 L192.57353,16.7133267 L192.57353,16.4448395 C192.640651,15.303769 191.566703,15.303769 191.096851,15.303769 L187.136665,15.303769 L187.472273,13.2901152 L191.298216,13.2901152 C192.506408,13.2901152 192.774895,13.021628 192.97626,11.8805575 L193.31187,9.8669037 C193.37899,9.59841652 193.37899,9.39705114 193.37899,9.32992935 C193.446113,8.18885886 192.372163,8.18885886 191.902311,8.18885886 L188.344857,8.18885886 L188.747587,6.04096144 L192.774895,6.04096144 C193.915965,6.04096144 194.251575,5.77247427 194.45294,4.63140378 L194.855671,2.34926279 C194.922792,2.14789741 194.922792,2.14789741 194.922792,2.01365381 C194.989914,0.872583321 193.915965,0.872583321 193.446113,0.872583321 L185.391498,0.872583321 C184.183305,0.872583321 183.914817,1.1410705 183.713452,2.282141 L180.827216,18.7269805 L180.827216,19.2639549" id="Shape"></path>
                                <path d="M154.649716,21.8817048 C148.138902,21.8817048 143.440377,26.1774997 143.104768,32.2855829 C142.769159,38.1923008 146.863588,42.1524865 153.173037,42.1524865 C159.415363,42.1524865 163.979646,37.78957 164.315254,31.4801213 C164.583741,25.8418906 160.623556,21.8817048 154.649716,21.8817048 M158.408537,31.949974 C158.274293,34.7019675 156.193517,36.6484995 153.374402,36.6484995 C150.555287,36.6484995 148.81012,34.8362111 148.944364,32.0842175 C149.078607,29.332224 151.226505,27.3856919 154.112742,27.3856919 C156.864735,27.3856919 158.54278,29.1979803 158.408537,31.949974" id="Shape"></path>
                                <path d="M185.995594,23.6939932 C186.062716,23.4926279 186.062716,23.4926279 186.062716,23.3583843 C186.129838,22.2173138 185.055889,22.2173138 184.586037,22.2173138 L181.968286,22.2173138 C180.760094,22.2173138 180.491606,22.485801 180.290241,23.6268714 L178.813562,32.0170957 C178.74644,32.4198265 178.679319,32.8225571 178.612197,33.2924098 L178.477952,32.889679 C178.209465,32.3527046 177.940979,31.8828521 177.739613,31.4129995 L173.242452,23.0898971 C172.839722,22.4186792 172.705479,22.2844356 171.900017,22.2844356 L168.409684,22.2844356 C167.201492,22.2844356 166.933005,22.5529227 166.73164,23.6939932 L163.845402,40.1388327 C163.778279,40.6086852 163.778279,40.6086852 163.778279,40.7429289 C163.711159,41.8839994 164.785106,41.8839994 165.25496,41.8839994 L167.87271,41.8839994 C169.080902,41.8839994 169.349389,41.6155122 169.550754,40.4744417 L170.89319,32.889679 C171.027433,32.1513392 171.094556,31.6143649 171.161678,30.943147 C171.564408,31.8828521 171.900017,32.6211919 172.302748,33.3595316 L176.464298,40.9442943 L176.531421,41.011416 C176.86703,41.682634 177.068395,41.8168776 177.873857,41.8168776 L181.431311,41.8168776 C182.639505,41.8168776 182.907992,41.5483905 183.109357,40.40732 L185.995594,23.9624805 L185.995594,23.6939932" id="Shape"></path>
                                <path d="M195.325524,34.6348457 C196.533716,34.6348457 196.802203,34.3663584 197.003568,33.2252879 L197.339178,31.2116341 C197.406298,30.943147 197.406298,30.8089033 197.406298,30.6746598 C197.473421,29.5335894 196.399471,29.5335894 195.929619,29.5335894 L192.372163,29.5335894 L192.774895,27.3856919 L196.802203,27.3856919 C197.943273,27.3856919 198.278883,27.1172048 198.480248,25.9761343 L198.882978,23.6939932 C198.9501,23.4926279 198.9501,23.4926279 198.9501,23.3583843 C199.017222,22.2173138 197.943273,22.2173138 197.473421,22.2173138 L189.418805,22.2173138 C188.210613,22.2173138 187.942125,22.485801 187.74076,23.6268714 L184.854524,40.071711 C184.787402,40.4744417 184.787402,40.5415635 184.787402,40.6758071 C184.720279,41.8168776 185.794229,41.8168776 186.264081,41.8168776 L194.385817,41.8168776 C195.594011,41.8168776 195.862497,41.5483905 196.063863,40.40732 L196.399471,38.3265443 L196.399471,38.1251789 L196.399471,37.8566917 C196.466594,36.7156213 195.392644,36.7156213 194.922792,36.7156213 L190.962606,36.7156213 L191.298216,34.7019675 L195.325524,34.7019675 L195.325524,34.6348457" id="Shape"></path>
                                <path d="M87.2594351,18.1228843 L87.1251914,18.1228843 C87.0580697,18.1228843 86.9909478,18.1900062 86.7895825,18.2571279 C86.2526081,18.5256151 85.1115376,19.0625895 84.3731979,19.3981984 C82.8965184,20.0022946 80.8828646,20.2707817 80.1445249,20.3379035 L79.8760376,20.3379035 C79.5404287,20.4050254 78.3993583,20.4721471 77.9295057,20.5392689 C76.7213133,20.6063908 75.3788775,20.6063908 74.1706852,20.5392689 C72.8282494,20.4721471 71.620057,20.4050254 70.6132302,20.4721471 L70.4789865,20.4721471 C69.0023071,20.5392689 66.5188006,21.0762433 65.9147046,21.2104868 C64.9078776,21.4789741 62.2230059,21.7474613 61.4175444,21.814583 C61.1490571,21.814583 60.6792046,21.8817048 60.0751084,21.7474613 C59.4710124,21.6132176 59.0011598,21.4118522 58.7997944,21.2776087 C58.0614546,20.8748779 55.7121919,19.5995638 54.9067303,18.9283459 C54.4368778,18.5256151 52.2889805,17.0489357 51.0136663,16.4448395 L50.7451792,16.4448395 C49.805474,15.974987 48.6644035,15.5722562 47.4562113,15.1024036 C46.3151408,14.6325511 45.0398267,14.0955767 43.9658779,13.5586024 C43.5631471,13.357237 42.5563203,12.8202626 42.2878332,12.6188973 C42.2207113,12.6188973 42.1535895,12.5517755 42.0864678,12.4846537 C41.4152498,12.0819229 39.7372049,11.075096 38.5961344,9.93402549 C37.9920383,9.32992935 37.1865768,8.39022424 36.8509678,7.92037168 C36.7167243,7.7861281 36.6496024,7.65188451 36.5824806,7.65188451 C36.5824806,7.65188451 36.5153589,7.58476271 36.448237,7.58476271 C36.3139935,7.58476271 36.1797498,7.65188451 36.1126281,7.65188451 C35.9783844,7.7190063 35.844141,7.92037168 35.9112627,8.05461527 C35.9783844,8.18885886 37.1194549,9.8669037 37.9249165,10.6052434 C38.7303781,11.410705 39.9385703,12.2832883 40.7440319,12.8202626 C41.1467625,13.0887498 43.0261729,14.2298203 43.0261729,14.2298203 C43.4960254,14.5654293 44.0329997,14.8339165 44.7042176,15.2366472 C45.5096792,15.7064998 46.5165062,16.3777178 47.8589421,17.1831792 L48.2616727,17.4516663 C51.0136663,19.2639549 51.6177624,19.5995638 53.5642944,21.5460959 C54.5039995,22.485801 55.040974,23.0898971 55.3765829,23.4926279 L55.4437048,23.6268714 C55.5779483,23.7611151 55.7793137,24.0296022 55.980679,24.3652111 C56.4505316,24.9693073 57.1888714,25.9761343 57.8600894,26.7815957 C58.1285765,27.1172048 58.3299419,27.2514483 58.8669162,27.3856919 C59.4038905,27.5199356 59.6052559,27.4528137 60.0079867,27.2514483 C60.9476917,26.7815957 62.0216405,26.1774997 62.6928584,25.7747689 C63.0284675,25.5734035 63.2969546,25.3720381 63.49832,25.3049163 L63.6325635,25.2377944 C64.1024162,25.036429 64.8407559,24.6336984 66.0489481,24.1638459 C68.5995763,23.2241406 69.2707943,23.0898971 72.4926403,22.5529227 L72.9624929,22.485801 C74.5062941,22.2173138 75.6473646,22.0830702 76.5870698,21.9488267 C77.3254095,21.814583 77.9295057,21.7474613 78.5336017,21.6803394 C78.5336017,21.6803394 80.6814992,21.3447305 81.2184735,21.2776087 C82.1581787,21.1433651 83.6348581,20.7406343 84.7088068,20.3379035 C85.7827556,19.9351729 87.4608005,18.8612241 87.595044,18.7269805 C87.7292876,18.6598587 87.6621657,18.3913716 87.595044,18.2571279 C87.5279222,18.2571279 87.3936786,18.1228843 87.2594351,18.1228843" id="Shape"></path>
                                <path d="M136.056979,3.55745508 C135.654248,1.27531408 135.184396,0.872583321 132.835133,0.872583321 L125.317492,0.872583321 C123.505204,0.872583321 122.968229,1.00682691 122.22989,2.34926279 L122.162768,2.55062817 C122.095646,2.61774997 122.028524,2.81911535 121.961403,2.95335894 L106.52339,30.6075381 L100.885159,21.7474613 L113.839665,5.30262171 C114.645127,4.29579481 114.913614,3.89306405 114.980736,3.15472432 C115.047858,2.55062817 114.846492,2.01365381 114.443762,1.61092305 C113.772544,0.939705114 112.765717,0.872583321 111.75889,0.872583321 L104.845345,0.872583321 C103.570031,0.872583321 103.234422,1.20819229 102.42896,2.14789741 L92.2264478,15.1024036 L94.1729798,4.3629166 L94.1729798,4.22867302 C94.1729798,4.02730763 94.2401016,3.82594225 94.2401016,3.62457687 C94.2401016,3.42321149 94.3072233,3.2889679 94.3072233,3.15472432 C94.3072233,2.88623714 94.3743452,2.0807756 93.8373708,1.54380126 C93.3003965,0.939705114 92.3606914,0.805461527 91.2196208,0.805461527 L85.6485119,0.805461527 C83.2321275,0.805461527 82.695153,1.27531408 82.2924222,3.62457687 L80.8157429,11.8805575 C80.0102813,9.66553832 78.802089,7.65188451 77.1911659,5.97383965 C73.566589,2.14789741 68.0626019,0 61.7531533,0 C53.2286856,0 46.1808971,3.49033329 41.8851024,9.19568576 L42.7576857,4.29579481 L42.8919292,3.75882046 C42.9590511,3.42321149 42.9590511,3.3560897 42.9590511,3.08760252 C42.9590511,2.81911535 43.0261729,2.01365381 42.4891984,1.47667947 C41.9522241,0.872583321 41.012519,0.738339733 39.8714486,0.738339733 L34.3674614,0.738339733 C31.9510768,0.738339733 31.4141025,1.20819229 31.0113717,3.55745508 L28.9305962,14.96816 L16.580186,14.96816 L18.5267181,4.3629166 L18.5267181,4.22867302 C18.5267181,4.02730763 18.5938398,3.82594225 18.5938398,3.62457687 C18.5938398,3.42321149 18.6609616,3.2889679 18.6609616,3.15472432 C18.6609616,2.88623714 18.7280835,2.0807756 18.191109,1.54380126 C17.6541348,0.939705114 16.7144297,0.805461527 15.5733591,0.805461527 L10.1364938,0.805461527 C7.72010925,0.805461527 7.18313489,1.27531408 6.78040413,3.62457687 L0.538077298,38.2594225 C0.403833711,39.0648841 0.336711917,39.1320059 0.336711917,39.4676148 C0.336711917,39.7361021 0.269590124,40.5415635 0.806564475,41.0785379 C1.34353883,41.682634 2.28324394,41.8168776 3.42431444,41.8168776 L8.92830154,41.8168776 C11.3446861,41.8168776 11.8816605,41.3470251 12.2843912,38.9977622 L14.7007758,25.6405252 L27.0511859,25.6405252 L24.7690449,38.2594225 L24.7019232,38.6621533 C24.5676795,39.1320059 24.5676795,39.1991276 24.5676795,39.4676148 C24.5676795,39.7361021 24.5005578,40.5415635 25.0375321,41.0785379 C25.5745063,41.682634 26.5142116,41.8168776 27.6552821,41.8168776 L33.1592692,41.8168776 C35.5756537,41.8168776 36.1126281,41.3470251 36.5153589,38.9977622 L38.2605254,29.2651021 C39.065987,31.949974 40.4084229,34.2992367 42.3549549,36.3128905 C46.1137754,40.3401981 51.8862497,42.5552173 58.598429,42.5552173 C66.1831917,42.5552173 72.626884,39.400493 76.7884352,34.2321149 L76.0500954,38.2594225 C75.9158519,39.0648841 75.84873,39.1320059 75.84873,39.4676148 C75.84873,39.7361021 75.7816083,40.5415635 76.3185825,41.0785379 C76.855557,41.682634 77.7952621,41.8168776 78.9363325,41.8168776 L84.4403197,41.8168776 C86.8567043,41.8168776 87.3936786,41.3470251 87.7964094,38.9977622 L90.0785503,26.4459868 C90.5484029,27.3185702 91.0182556,28.1240316 91.4209862,28.8623714 L98.2674092,40.0045892 L98.4687746,40.2730763 C99.2742362,41.5483905 99.6098451,41.7497559 101.153646,41.7497559 L104.912467,41.7497559 L108.469922,41.7497559 L111.154794,41.7497559 C113.034204,41.7497559 113.571178,41.6155122 114.309518,40.1388327 L114.443762,39.9374673 C114.510883,39.8703456 114.578005,39.7361021 114.645127,39.6018584 L117.195755,34.5677238 L129.277678,34.5677238 L130.08314,39.0648841 C130.552992,41.2799032 131.022845,41.682634 133.304986,41.682634 L139.278825,41.682634 C140.285652,41.682634 142.366428,41.682634 142.500671,39.5347367 C142.500671,39.1320059 142.500671,39.0648841 142.299306,38.0580571 L136.056979,3.55745508 M88.4005056,20.0022946 C88.4005056,20.0022946 86.5210952,21.2776087 85.2457813,21.7474613 C84.0375889,22.2173138 82.4937876,22.5529227 81.4869608,22.7542881 C81.1513517,22.82141 80.1445249,22.9556535 79.473307,23.0898971 C79.1376979,23.1570189 78.9363325,23.1570189 78.8692108,23.1570189 C78.3322365,23.2241406 77.7281403,23.3583843 76.9226787,23.425506 L76.855557,23.425506 C75.9158519,23.5597497 74.8419032,23.6939932 73.3652237,23.9624805 L72.8953711,24.0296022 L72.8282494,24.0296022 C71.015961,24.3652111 70.009134,24.4994548 69.0694289,24.7679419 C67.4585059,28.661006 63.6996854,31.1445124 59.0011598,31.1445124 C56.0478008,31.1445124 53.6314163,30.2048073 51.9533714,28.4596406 C50.3424484,26.714474 49.5369868,24.2980894 49.6712305,21.4789741 C49.6712305,21.0762433 49.7383522,20.6735125 49.805474,20.3379035 C49.134256,19.9351729 48.3959163,19.4653202 47.3890894,18.7941022 L46.9863587,18.5256151 C45.7781663,17.7201537 44.8384613,17.1831792 44.0329997,16.7133267 L43.8987562,16.6462049 C43.2275383,16.2434741 42.6905638,15.9078651 42.2207113,15.5722562 L42.0193459,15.4380126 C41.1467625,14.9010383 40.2070575,14.3640639 39.9385703,14.1626985 C39.4687178,13.8942113 37.9249165,12.8202626 36.9180895,11.8134357 C35.9112627,10.8737306 34.7030703,8.99432038 34.7030703,8.92719859 C34.2332178,8.18885886 34.4345832,7.18203195 35.2400448,6.57793581 C35.5756537,6.30944862 36.0455063,6.17520503 36.448237,6.17520503 L36.783846,6.17520503 C37.1194549,6.24232683 37.455064,6.44369222 37.7235511,6.7121794 L37.7906729,6.77930119 C37.8577948,6.84642298 37.9249165,6.91354478 37.9920383,7.04778837 C38.2605254,7.38339733 39.1331087,8.39022424 39.6700832,8.92719859 C40.1399357,9.39705114 41.0796408,10.2025127 42.8919292,11.2764614 L42.9590511,11.3435832 C43.0261729,11.410705 43.0932946,11.410705 43.1604163,11.4778268 C43.3617817,11.6120703 44.2343651,12.0819229 44.7042176,12.3504101 C45.7110446,12.8202626 46.9192368,13.357237 48.0603075,13.8270895 L48.1274292,13.8270895 C49.4027433,14.2969421 50.5438138,14.7667947 51.4835189,15.2366472 L51.6177624,15.303769 C51.752006,15.3708908 51.8862497,15.4380126 51.9533714,15.5051344 C53.9670252,13.021628 57.0546278,11.4778268 60.6792046,11.4778268 C63.5654417,11.4778268 65.9147046,12.3504101 67.5256276,14.0955767 C68.8009417,15.4380126 69.5392814,17.1831792 69.7406468,19.2639549 C69.9420122,19.2639549 70.2104994,19.196833 70.4118648,19.196833 L70.5461084,19.196833 L71.4858135,19.196833 C72.3583968,19.196833 73.3652237,19.2639549 74.237807,19.2639549 C74.7747814,19.2639549 75.3117557,19.3310767 75.9158519,19.3310767 C76.5870698,19.3310767 77.2582878,19.3310767 77.9295057,19.2639549 C78.3993583,19.2639549 79.473307,19.1297113 79.6746724,19.1297113 L79.7417941,19.1297113 C79.8089159,19.1297113 79.8760376,19.1297113 80.0102813,19.0625895 C80.6814992,18.9954676 82.4937876,18.7269805 83.8362235,18.1900062 C84.5745633,17.8543971 85.7827556,17.2503011 86.1183646,17.1160575 C86.3197298,17.0489357 86.3868517,16.9818138 86.4539735,16.9146921 L86.5882171,16.8475703 C86.7895825,16.7804484 86.9909478,16.7133267 87.1923132,16.7133267 C87.3265568,16.7133267 87.3936786,16.7133267 87.5279222,16.7804484 C88.1320184,16.9146921 88.601871,17.3845446 88.8032363,17.7201537 C89.2730889,18.5256151 89.0717235,19.5324421 88.4005056,20.0022946 M121.961403,25.2377944 L125.787345,17.7872754 C125.98871,17.3845446 126.190076,16.9818138 126.458563,16.5119613 C126.525684,17.1160575 126.659928,17.921519 126.794172,18.8612241 L127.733877,25.2377944 L121.961403,25.2377944" id="Shape"></path>
                            </g>
                        </g>
                    </g>
                </g>
            </g>
        </g>
    </g>
</svg>