<?xml version="1.0" encoding="UTF-8" standalone="no"?>
<svg width="200px" height="100px" viewBox="0 0 200 100" version="1.1" xmlns="http://www.w3.org/2000/svg" xmlns:xlink="http://www.w3.org/1999/xlink">
    <!-- Generator: Sketch 39.1 (31720) - http://www.bohemiancoding.com/sketch -->
    <title>ugg</title>
    <desc>Created with Sketch.</desc>
    <defs></defs>
    <g id="Welcome" stroke="none" stroke-width="1" fill="none" fill-rule="evenodd">
        <g id="ugg" fill="#FFFFFF">
            <g transform="translate(42.000000, 23.000000)" id="Page-1">
                <g>
                    <g>
                        <g id="ugg">
                            <g id="Group">
                                <g id="Shape">
                                    <path d="M0.0617965545,3.52328958 L10.6998852,3.52328958 L10.6998852,4.24757178 C10.6998852,4.24757178 9.16073011,4.97185398 9.16073011,5.78672682 L9.16073011,27.3344545 C9.16073011,33.6948483 13.9314685,35.2249221 18.7354307,35.2424201 C23.6071698,35.2601395 28.5130188,33.9325103 28.5130188,27.0742001 L28.5130188,5.85472518 C28.5130188,5.85472518 28.2075799,4.34369975 27.0022149,4.34369975 C27.0022149,3.91931912 26.9512716,3.52328958 26.9512716,3.52328958 L36.9669648,3.52328958 L36.9669648,4.39464316 C36.9669648,4.39464316 35.4052174,4.83607875 35.4052174,5.85472518 L35.4052174,9.2497703 C35.4052174,9.2497703 29.7015505,14.6821082 29.7015505,26.8365381 C29.7015505,34.3356275 31.6028466,38.2104265 31.6028466,38.2104265 C27.9021411,41.0960377 23.7261116,41.4696964 16.6642494,41.4696964 C11.0961362,41.4696964 1.65787531,40.0778343 1.65787531,28.0250697 L1.65787531,5.65073011 C1.65787531,5.65073011 1.14866284,4.39464316 0.0622395406,4.39464316 C0.0617965545,4.05509434 0.0617965545,3.52328958 0.0617965545,3.52328958 L0.0617965545,3.52328958 L0.0617965545,3.52328958 Z"></path>
                                    <path d="M81.4427645,3.85132076 L82.427744,4.42853158 L76.825521,16.6509598 L75.7729861,16.2436341 C75.7729861,16.2436341 76.1805332,9.75898278 59.1709763,8.84222313 C59.1709763,8.84222313 41.9576456,8.3668991 41.6858737,27.7194094 C41.6858737,27.7194094 41.6858737,44.6270796 60.2232896,44.6270796 C70.6124201,44.6270796 74.9578918,40.9602625 74.9578918,40.9602625 L74.9578918,33.9661771 L62.8034619,33.9661771 C62.8034619,33.9661771 61.004274,33.9661771 60.4950615,36.4107958 L59.3745283,36.4107958 L59.3745283,24.4596964 L60.4607301,24.4596964 C60.4607301,24.4596964 60.9019443,26.8024282 62.5657999,26.8024282 L85.7884577,26.8024282 L85.7884577,27.9568498 C85.7884577,27.9568498 83.5817227,28.6020591 83.5817227,30.5370222 L83.5817227,41.5711402 C83.5817227,41.5711402 83.4116161,43.5063249 85.7884577,44.0835357 L85.7884577,45.1021822 C85.7884577,45.1021822 59.544192,62.6889499 39.9881297,47.2072518 C33.2658163,42.5220098 24.4384331,24.2561444 37.9510582,8.09534865 C37.9510582,8.09534865 51.8032321,-7.38634946 78.4211566,4.49652994 C78.4215997,4.49652994 80.1868991,5.44717802 81.4427645,3.85132076 L81.4427645,3.85132076 L81.4427645,3.85132076 Z"></path>
                                    <path d="M113.278179,6.0128712 L108.796489,15.2475799 L108.162797,14.8854389 C108.162797,14.8854389 108.253167,13.0747333 106.306907,12.1240853 C100.874791,8.00453651 80.0963085,6.23923708 81.7258327,25.7498933 L73.5777687,25.7498933 C73.5777687,25.7498933 73.4873996,16.9451026 74.7999672,16.039639 C75.0717391,16.039639 75.0261116,17.3976128 75.0261116,17.3976128 L77.5387284,18.2124856 L83.6271288,4.97163249 C83.6271288,4.97163249 94.4012142,-0.596480722 109.611362,5.92228056 C110.561788,6.42019688 111.467252,6.46538146 112.418121,5.55991797 L113.278179,6.0128712 L113.278179,6.0128712 L113.278179,6.0128712 Z"></path>
                                    <path d="M97.932256,22.852543 L116.039311,22.852543 L116.039311,23.7577851 C116.039311,23.7577851 114.274233,24.1205906 114.274233,25.7498933 C114.274233,27.3791961 114.319196,34.0337326 114.319196,34.0337326 C114.319196,34.0337326 114.319196,35.3917064 116.039311,35.799032 L116.039311,36.4781297 C116.039311,36.4781297 104.223987,48.1915669 84.8949548,42.3177933 L84.8949548,34.8486055 C90.7459147,38.9227482 104.020878,37.7342166 107.653363,33.4091222 L107.653363,28.2618458 L98.0452174,28.2618458 C98.0452174,28.2618458 96.9585726,28.0582936 96.3813618,29.9934783 L95.4646021,29.9934783 L95.4646021,20.9623216 L96.4154717,20.9623216 C96.4156932,20.9627645 96.5632076,22.852543 97.932256,22.852543 L97.932256,22.852543 L97.932256,22.852543 Z"></path>
                                </g>
                            </g>
                        </g>
                    </g>
                </g>
            </g>
        </g>
    </g>
</svg>