<?xml version="1.0" encoding="utf-8"?>
<!-- Generator: Adobe Illustrator 15.0.2, SVG Export Plug-In . SVG Version: 6.00 Build 0)  -->
<!DOCTYPE svg PUBLIC "-//W3C//DTD SVG 1.1//EN" "http://www.w3.org/Graphics/SVG/1.1/DTD/svg11.dtd">
<svg version="1.1" id="Layer_1" xmlns="http://www.w3.org/2000/svg" xmlns:xlink="http://www.w3.org/1999/xlink" x="0px" y="0px"
	 width="612px" height="792px" viewBox="0 0 612 792" enable-background="new 0 0 612 792" xml:space="preserve">
<g>
	<g>
		<path d="M41.279,266.907h48.029v3.27c0,0-6.949,3.27-6.949,6.949c0,3.679,0,56.306,0,97.284c0,28.716,21.539,35.624,43.228,35.703
			c21.995,0.08,44.144-5.914,44.144-36.878v-95.802c0,0-1.379-6.822-6.821-6.822c0-1.916-0.23-3.704-0.23-3.704h45.219v3.934
			c0,0-7.051,1.993-7.051,6.592c0,4.598,0,15.328,0,15.328s-25.751,24.526-25.751,79.401c0,33.857,8.584,51.351,8.584,51.351
			c-16.708,13.028-35.562,14.715-67.445,14.715c-25.139,0-67.751-6.284-67.751-60.7V276.512c0,0-2.299-5.671-7.204-5.671
			C41.279,269.308,41.279,266.907,41.279,266.907z"/>
		<path d="M408.699,268.388l4.447,2.606l-25.293,55.182l-4.752-1.839c0,0,1.84-29.277-74.955-33.416c0,0-77.715-2.146-78.942,85.227
			c0,0,0,76.335,83.693,76.335c46.905,0,66.524-16.555,66.524-16.555v-31.577h-54.875c0,0-8.123,0-10.422,11.037
			c-5.059,0-5.059,0-5.059,0v-53.957h4.904c0,0,1.992,10.577,9.504,10.577s104.846,0,104.846,0v5.212c0,0-9.963,2.913-9.963,11.649
			c0,8.738,0,49.817,0,49.817s-0.768,8.737,9.963,11.343c0,2.606,0,4.599,0,4.599s-118.488,79.401-206.78,9.504
			c-30.35-21.153-70.204-103.62-9.197-176.583c0,0,62.54-69.897,182.715-16.248C395.059,271.301,403.029,275.593,408.699,268.388z"
			/>
		<path d="M552.43,278.147l-20.234,41.693l-2.861-1.635c0,0,0.408-8.175-8.379-12.467c-24.525-18.599-118.336-26.569-110.979,61.518
			h-36.787c0,0-0.408-39.752,5.518-43.84c1.227,0,1.021,6.131,1.021,6.131l11.344,3.679l27.488-59.78
			c0,0,48.643-25.139,117.314,4.292c4.291,2.248,8.379,2.452,12.672-1.636C552.43,278.147,552.43,278.147,552.43,278.147z"/>
		<path d="M483.146,354.175h81.75v4.087c0,0-7.969,1.638-7.969,8.994s0.203,37.4,0.203,37.4s0,6.131,7.766,7.97
			c0,3.066,0,3.066,0,3.066s-53.344,52.884-140.611,26.365c0,0,0-30.503,0-33.722c26.416,18.394,86.35,13.028,102.75-6.499v-23.239
			h-43.379c0,0-4.906-0.919-7.512,7.818c-4.139,0-4.139,0-4.139,0v-40.774h4.293C476.299,345.643,476.965,354.175,483.146,354.175z"
			/>
		<g>
			<path d="M558.502,319.486V308.75h3.902c0.816,0,1.418,0.1,1.807,0.3c0.387,0.2,0.707,0.533,0.955,0.999
				c0.248,0.466,0.373,1.006,0.373,1.621c0,0.81-0.211,1.467-0.633,1.969c-0.422,0.503-1.037,0.822-1.842,0.959
				c0.326,0.197,0.576,0.395,0.746,0.596c0.348,0.411,0.652,0.868,0.916,1.37l1.537,2.922h-1.463l-1.176-2.232
				c-0.455-0.874-0.797-1.462-1.029-1.765c-0.232-0.304-0.457-0.508-0.672-0.613c-0.219-0.105-0.521-0.158-0.912-0.158h-1.346v4.768
				H558.502z M559.666,313.488h2.504c0.547,0,0.963-0.066,1.246-0.197c0.283-0.132,0.508-0.339,0.674-0.622
				c0.166-0.284,0.248-0.614,0.248-0.989c0-0.542-0.158-0.967-0.475-1.278c-0.318-0.31-0.789-0.465-1.414-0.465h-2.783V313.488z"/>
		</g>
		<path fill="#191910" d="M561.576,304.87c-5.053,0-9.146,4.095-9.146,9.146c0,5.052,4.094,9.146,9.146,9.146
			c5.051,0,9.145-4.094,9.145-9.146C570.721,308.965,566.627,304.87,561.576,304.87z M561.576,321.333
			c-4.043,0-7.318-3.276-7.318-7.317s3.275-7.316,7.318-7.316c4.039,0,7.316,3.275,7.316,7.316S565.615,321.333,561.576,321.333z"/>
	</g>
	<g>
		<path d="M70.863,535.485c0-1.84,0-13.565,0-13.565c-4.062-13.105-21.92-4.905-22.38-3.908l2.683,3.219
			c9.887-6.056,12.263,0.536,12.492,1.149c0.23,0.613-7.279,1.973-7.279,1.973c-15.1,3.929-9.812,14.352-4.677,15.808
			c5.058,2.224,10.193-2.529,11.803-3.603c0,1.687,0.459,3.603,0.459,3.603s5.901,0,8.201,0
			C72.166,540.16,70.863,537.325,70.863,535.485z M54.768,535.025c-3.104-3.104,1.456-8.277,8.89-9.273
			C64.808,529.584,60.593,540.391,54.768,535.025z"/>
		<path d="M391.645,535.514c0-1.839,0-13.565,0-13.565c-4.062-13.106-21.92-4.905-22.379-3.909l2.682,3.219
			c9.887-6.054,12.264,0.537,12.492,1.15c0.23,0.613-7.277,1.973-7.277,1.973c-15.102,3.929-9.812,14.352-4.678,15.809
			c5.059,2.222,10.193-2.53,11.803-3.603c0,1.687,0.459,3.603,0.459,3.603s5.902,0,8.201,0
			C392.947,540.189,391.645,537.353,391.645,535.514z M375.551,535.054c-3.105-3.104,1.455-8.277,8.889-9.273
			C385.59,529.612,381.375,540.419,375.551,535.054z"/>
		<path d="M565.186,535.485c0-1.84,0-13.565,0-13.565c-4.062-13.105-21.92-4.905-22.379-3.908l2.682,3.219
			c9.887-6.056,12.264,0.536,12.494,1.149c0.229,0.613-7.281,1.973-7.281,1.973c-15.1,3.929-9.811,14.352-4.676,15.808
			c5.059,2.224,10.193-2.529,11.803-3.603c0,1.687,0.459,3.603,0.459,3.603s5.902,0,8.201,0
			C566.488,540.16,565.186,537.325,565.186,535.485z M549.092,535.025c-3.105-3.104,1.455-8.277,8.891-9.273
			C559.131,529.584,554.916,540.391,549.092,535.025z"/>
		<path d="M110.257,515.405h7.587v15.716c0,0-0.307,4.9,5.211,4.9c5.519,0,5.595-4.9,5.595-4.9v-15.716h7.435v24.755h-7.358
			c0,0,0-1.149,0-3.142c-3.755,5.187-18.7,4.904-18.47-3.449V515.405z"/>
		<path d="M197.373,520.029l2.401-3.116c-3.321-3.424-17.73-3.321-17.985,4.701c0,4.648,7.051,7.612,7.051,7.612
			s7.715,4.803,1.941,7.256c-3.167,1.839-8.073-1.993-8.073-1.993l-2.401,3.424c0,0,11.599,7.357,18.394-0.817
			c5.059-7.103-3.372-10.935-3.372-10.935s-10.781-5.008-3.986-7.664C193.489,517.526,197.373,520.029,197.373,520.029z"/>
		<path d="M253.155,507.856v7.473h7.32v3.448h-7.32v13.872c0,0,0.538,6.132,7.32,3.257c0.728,1.572,1.456,3.258,1.456,3.258
			s-14.179,5.557-16.018-3.909c-0.086-0.457,0-16.516,0-16.516h-4.062v-3.41h3.947v-5.711L253.155,507.856z"/>
		<path d="M309.488,515.367v24.793h7.395v-14.332c0,0,1.38-7.971,8.545-4.368c2.914-4.445,2.914-4.445,2.914-4.445
			s-4.715-6.591-11.459,2.645c0-1.647,0-4.292,0-4.292H309.488z"/>
		<rect x="434.605" y="503.641" width="7.549" height="36.52"/>
		<g>
			<rect x="490.17" y="515.329" width="7.09" height="24.679"/>
			<rect x="490.17" y="502.875" width="7.09" height="5.939"/>
		</g>
	</g>
</g>
</svg>
