<?xml version="1.0" encoding="UTF-8" standalone="no"?>
<svg width="192px" height="50px" viewBox="0 0 192 50" version="1.1" xmlns="http://www.w3.org/2000/svg" xmlns:xlink="http://www.w3.org/1999/xlink">
    <!-- Generator: Sketch 39.1 (31720) - http://www.bohemiancoding.com/sketch -->
    <title>Xprize</title>
    <desc>Created with Sketch.</desc>
    <defs></defs>
    <g id="ux" stroke="none" stroke-width="1" fill="none" fill-rule="evenodd">
        <g id="Dashboard" transform="translate(-240.000000, -14.000000)" fill="#FFFFFF">
            <g id="Xprize" transform="translate(240.000000, 14.000000)">
                <path d="M62.7303473,12.6913583 L49.7249426,12.6913583 L49.7249426,42.1996496 L57.2842638,42.1996496 L57.2842638,34.6547141 L62.7303473,34.6547141 C76.8757389,34.6547141 76.8757389,12.7334408 62.7303473,12.6913583 M62.688195,27.869135 L57.2842638,27.869135 L57.2842638,19.4357899 C59.016257,19.4357899 60.9159229,19.3955777 62.688195,19.4357899 C67.0804697,19.4788077 66.8266189,27.869135 62.688195,27.869135" id="Fill-14"></path>
                <path d="M95.3281639,12.6913583 L82.3658482,12.6913583 L82.3658482,42.1996496 L89.923296,42.1996496 L89.923296,33.5175498 L93.8509582,33.5175498 L98.9176706,42.1996496 L108.046933,42.1949738 L101.578889,31.7463416 C109.052969,26.6880178 106.942541,12.7334408 95.3281639,12.6913583 M95.3281639,26.8152007 L89.923296,26.8152007 L89.923296,19.4357899 C91.6983783,19.4357899 93.5549551,19.3955777 95.3281639,19.4357899 C99.6351973,19.4788077 99.4244355,26.8152007 95.3281639,26.8152007" id="Fill-15"></path>
                <polygon id="Fill-16" points="115.64747 42.1996496 124.084496 42.1996496 124.084496 12.6913583 115.64747 12.6913583"></polygon>
                <polyline id="Fill-17" points="134.472709 12.6913583 134.472709 19.4357899 145.44918 19.4357899 132.744462 42.1996496 156.978316 42.1996496 156.978316 35.4552179 144.731654 35.4552179 157.490701 12.6913583 134.472709 12.6913583"></polyline>
                <polyline id="Fill-18" points="172.852891 35.4973005 172.852891 30.3145994 182.903884 30.3145994 182.903884 23.6085096 172.852891 23.6085096 172.852891 19.4357899 183.79002 19.4357899 183.79002 12.6913583 165.337595 12.6913583 165.337595 42.1996496 184.170328 42.1996496 184.170328 35.4973005 172.852891 35.4973005"></polyline>
                <path d="M29.4721439,42.1996496 L40.2359804,42.1996496 L24.0504151,21.8260794 C22.2228766,23.9760306 20.4075154,26.2456834 18.6343066,28.5667704 L29.4721439,42.1996496" id="Fill-19"></path>
                <path d="M46.7639742,3.48649954 C46.2703234,1.72090234 44.9495498,0.507989437 42.2602299,0.555683006 C35.6676025,0.672579007 27.6867578,8.23434752 20.5264787,17.3952533 L10.7742986,5.12397873 L0.00952538247,5.12397873 L15.3623476,24.4501608 C6.40825197,37.4499313 -0.0316902477,50.7218357 1.55885839,49.7324279 C4.26316576,45.2922502 7.79740605,39.7607314 11.7587901,34.0945485 C20.3840975,21.7643583 31.0420847,8.80480001 39.6018218,5.14455242 C42.9927441,3.69317167 44.7125599,4.64330237 45.1612482,6.85684505 C45.61181,9.07786907 44.7809404,12.5725919 43.069555,16.1944976 C43.3234058,16.6994883 45.4994037,12.9316964 46.4998195,8.96751924 C46.9944071,7.02891596 47.2004852,5.04168394 46.7639742,3.48649954" id="Fill-21"></path>
                <path d="M189.960187,12.6913583 C189.844034,12.6268317 189.657627,12.5941008 189.400966,12.5941008 L189.007544,12.5941008 L189.007544,13.5404908 L189.424384,13.5404908 C189.620159,13.5404908 189.766287,13.5208523 189.863705,13.4825104 C190.044492,13.4105024 190.13348,13.2749031 190.13348,13.073842 C190.13348,12.8840029 190.076341,12.7558848 189.960187,12.6913583 L189.960187,12.6913583 Z M189.46279,12.2798843 C189.785958,12.2798843 190.024821,12.3107449 190.175633,12.3734011 C190.446345,12.4865565 190.582169,12.7072561 190.582169,13.0355001 C190.582169,13.2692921 190.497864,13.441363 190.326445,13.5517128 C190.23652,13.6096932 190.110999,13.6517758 189.94801,13.6779605 C190.154088,13.7106914 190.30209,13.7957917 190.397635,13.9341965 C190.492244,14.0716662 190.540016,14.2072656 190.540016,14.3381891 L190.540016,14.5298986 C190.540016,14.5897493 190.542827,14.6542759 190.546574,14.7234783 C190.55032,14.7926808 190.558751,14.838504 190.569055,14.8600129 L190.585916,14.8918086 L190.154088,14.8918086 C190.151278,14.8833921 190.149405,14.8749756 190.146595,14.866559 C190.143784,14.8572074 190.141911,14.8478557 190.140038,14.8366337 L190.13067,14.7534037 L190.13067,14.5467316 C190.13067,14.2446723 190.049176,14.0454815 189.884313,13.9491592 C189.785958,13.8930491 189.616412,13.8649941 189.370991,13.8649941 L189.007544,13.8649941 L189.007544,14.8918086 L188.545742,14.8918086 L188.545742,12.2798843 L189.46279,12.2798843 L189.46279,12.2798843 Z M188.059585,12.1470905 C187.661479,12.5464072 187.462895,13.0298891 187.462895,13.5956657 C187.462895,14.1661182 187.660543,14.6524056 188.056775,15.0545278 C188.453944,15.4557149 188.939164,15.656776 189.506816,15.656776 C190.077277,15.656776 190.559688,15.4557149 190.957793,15.0545278 C191.355899,14.6524056 191.556356,14.1661182 191.556356,13.5956657 C191.556356,13.0298891 191.355899,12.5464072 190.957793,12.1470905 C190.558751,11.7449682 190.075404,11.5439071 189.506816,11.5439071 C188.942911,11.5439071 188.459564,11.7449682 188.059585,12.1470905 L188.059585,12.1470905 Z M191.194783,15.2808385 C190.73017,15.7474873 190.168139,15.9812793 189.506816,15.9812793 C188.846429,15.9812793 188.286271,15.7474873 187.822595,15.2808385 C187.360793,14.8169951 187.13036,14.254024 187.13036,13.5928602 C187.13036,12.9373074 187.363603,12.378077 187.828215,11.9132985 C188.292828,11.4513255 188.851112,11.220339 189.506816,11.220339 C190.168139,11.220339 190.73017,11.4513255 191.194783,11.9132985 C191.660332,12.3762066 191.892639,12.9354371 191.892639,13.5928602 C191.892639,14.2512185 191.660332,14.8141896 191.194783,15.2808385 L191.194783,15.2808385 Z" id="Fill-22"></path>
            </g>
        </g>
    </g>
</svg>