<?xml version="1.0" encoding="utf-8"?>
<!-- Generator: Adobe Illustrator 15.0.2, SVG Export Plug-In . SVG Version: 6.00 Build 0)  -->
<!DOCTYPE svg PUBLIC "-//W3C//DTD SVG 1.1//EN" "http://www.w3.org/Graphics/SVG/1.1/DTD/svg11.dtd">
<svg version="1.1" id="Layer_1" xmlns="http://www.w3.org/2000/svg" xmlns:xlink="http://www.w3.org/1999/xlink" x="0px" y="0px"
	 width="300px" height="300px" viewBox="0 0 300 300" enable-background="new 0 0 300 300" xml:space="preserve">
<g>
	<g>
		<path fill="#FFFFFF" d="M28.349,120.855c0,0.471,0.234,0.909,0.624,1.174c0.386,0.26,0.889,0.314,1.321,0.14
			c1.791-0.719,3.804-0.719,5.593,0c0.431,0.173,0.935,0.119,1.32-0.141c0.39-0.265,0.623-0.704,0.623-1.173v-2.853
			c0-2.657-2.082-4.74-4.74-4.74c-1.277,0-2.47,0.49-3.361,1.378c-0.89,0.891-1.38,2.084-1.38,3.361V120.855z"/>
		<path fill="#FFFFFF" d="M54.28,169.037l2.287,1.922c0.835,0.704,1.955,1.108,3.074,1.108h0c0.129,0,0.257-0.006,0.385-0.017
			c1.229-0.105,2.435-0.729,3.222-1.668c1.71-2.033,1.457-4.967-0.577-6.678l-2.359-1.984c-0.255-0.213-0.579-0.333-0.911-0.333
			c-0.132,0-0.263,0.02-0.39,0.057c-0.454,0.131-0.811,0.474-0.956,0.924c-0.505,1.549-1.511,2.911-2.834,3.836l-0.84,0.586
			c-0.359,0.251-0.584,0.661-0.605,1.097C53.757,168.326,53.945,168.755,54.28,169.037z"/>
		<path fill="#FFFFFF" d="M54.565,132.292c-0.006,0.438,0.195,0.862,0.539,1.131l0.56,0.443c1.345,1.058,2.291,2.573,2.668,4.263
			c0.104,0.471,0.438,0.853,0.889,1.02c0.093,0.036,0.19,0.059,0.29,0.075c0.066,0.009,0.135,0.014,0.202,0.014
			c0.309,0,0.602-0.097,0.848-0.281l2.335-1.743c2.13-1.59,2.553-4.504,0.964-6.635c-0.763-1.022-1.87-1.686-3.116-1.867
			c-0.226-0.032-0.456-0.049-0.681-0.049c-1.023,0-2.003,0.329-2.836,0.953l-2.093,1.561
			C54.784,131.438,54.571,131.855,54.565,132.292z"/>
		<path fill="#FFFFFF" d="M37.831,181.344v-2.562c0-0.472-0.231-0.909-0.623-1.173c-0.385-0.262-0.889-0.318-1.32-0.144
			c-1.789,0.721-3.804,0.721-5.592,0c-0.169-0.065-0.347-0.101-0.529-0.101c-0.284,0-0.558,0.086-0.792,0.244
			c-0.391,0.264-0.624,0.701-0.624,1.173v2.557c-0.003,1.227,0.517,2.478,1.391,3.352c0.872,0.873,2.124,1.396,3.349,1.396
			l0.001,0.653l0-0.653C35.75,186.081,37.831,184.003,37.831,181.344z"/>
		<path fill="#FFFFFF" d="M5.301,171.281c0.254,0.044,0.517,0.067,0.782,0.067c0.995,0,1.974-0.303,2.755-0.855l2.441-1.717
			c0.357-0.252,0.583-0.665,0.6-1.1c0.019-0.439-0.172-0.866-0.507-1.147l-0.792-0.661c-1.238-1.033-2.123-2.475-2.493-4.058
			c-0.106-0.46-0.435-0.834-0.875-1.003c-0.162-0.061-0.332-0.093-0.505-0.093c-0.292,0-0.575,0.09-0.815,0.257l-2.51,1.768
			c-1.044,0.735-1.739,1.824-1.954,3.064c-0.216,1.239,0.07,2.498,0.805,3.539C2.938,170.346,4.084,171.069,5.301,171.281z"/>
		<path fill="#FFFFFF" d="M3.077,129.527c-0.856,0.948-1.292,2.163-1.229,3.42c0.065,1.257,0.621,2.42,1.569,3.276l2.154,1.944
			c0.277,0.252,0.645,0.385,1.021,0.363c0.099-0.004,0.197-0.02,0.292-0.045c0.467-0.125,0.834-0.474,0.982-0.932
			c0.533-1.645,1.617-3.062,3.051-3.989l0.606-0.393c0.366-0.237,0.606-0.638,0.642-1.075c0.034-0.436-0.139-0.872-0.462-1.165
			l-1.932-1.745c-0.883-0.794-2.011-1.233-3.177-1.233c-0.082,0-0.163,0.002-0.243,0.006C5.096,128.023,3.932,128.58,3.077,129.527z
			"/>
	</g>
</g>
<path fill="#FFFFFF" d="M52.615,135.331l-16.751-9.671c-1.717-0.992-3.833-0.992-5.548,0l-16.752,9.671
	c-1.715,0.992-2.774,2.824-2.774,4.806v19.344c0,1.982,1.059,3.813,2.774,4.805l16.752,9.671c0.858,0.496,1.816,0.744,2.773,0.744
	c0.958,0,1.917-0.248,2.775-0.744l16.751-9.671c1.718-0.991,2.775-2.822,2.775-4.805v-19.344
	C55.39,138.155,54.333,136.323,52.615,135.331z M43.922,154.196c0,1.568-0.838,3.015-2.194,3.801l-6.445,3.72
	c-0.678,0.393-1.436,0.588-2.194,0.588c-0.757,0-1.514-0.195-2.193-0.588l-6.445-3.72c-1.356-0.786-2.193-2.232-2.193-3.801v-7.44
	c0-1.567,0.836-3.016,2.193-3.799l6.445-3.721c1.358-0.783,3.028-0.783,4.387,0l6.445,3.721c1.356,0.784,2.194,2.232,2.194,3.799
	V154.196z"/>
<g>
	<path fill="#FFFFFF" d="M78.6,142.865h0.872v-6.979c0-0.531,0.19-0.986,0.567-1.364c0.377-0.377,0.838-0.566,1.382-0.566
		c0.532,0,0.986,0.189,1.365,0.566c0.376,0.378,0.565,0.833,0.565,1.364v6.979h2.32c0.531,0,0.983,0.189,1.355,0.565
		c0.371,0.378,0.557,0.834,0.557,1.366c0,0.544-0.186,1.005-0.557,1.382c-0.372,0.378-0.824,0.567-1.355,0.567h-2.32v9.334
		c0,2.462,1.236,3.694,3.712,3.694c0.531,0,0.984,0.187,1.354,0.565c0.371,0.375,0.557,0.831,0.557,1.363
		c0,0.546-0.187,1.006-0.557,1.385c-0.371,0.375-0.823,0.564-1.354,0.564c-5.062,0-7.592-2.522-7.592-7.572v-9.334H78.6
		c-0.519,0-0.968-0.189-1.345-0.567c-0.378-0.376-0.566-0.837-0.566-1.382c0-0.532,0.188-0.988,0.566-1.366
		C77.632,143.055,78.082,142.865,78.6,142.865z"/>
	<path fill="#FFFFFF" d="M104.918,142.865c0.916,0,1.533,0.478,1.856,1.429l3.768,11.303l3.897-11.655
		c0.099-0.323,0.296-0.582,0.593-0.779c0.297-0.199,0.68-0.298,1.151-0.298c0.273,0,0.525,0.05,0.761,0.15
		c0.235,0.098,0.438,0.237,0.612,0.415c0.172,0.181,0.312,0.387,0.417,0.623c0.105,0.235,0.158,0.483,0.158,0.743
		c0,0.235-0.05,0.481-0.147,0.741l-5.624,16.871c-0.112,0.358-0.315,0.656-0.613,0.892c-0.297,0.233-0.699,0.353-1.206,0.353
		c-0.434,0-0.817-0.125-1.151-0.37c-0.334-0.248-0.551-0.54-0.649-0.874l-3.823-11.47l-3.824,11.47
		c-0.111,0.358-0.334,0.656-0.668,0.892c-0.334,0.233-0.717,0.353-1.151,0.353c-0.433,0-0.814-0.119-1.141-0.353
		c-0.328-0.235-0.553-0.533-0.677-0.892l-5.624-16.871c-0.087-0.272-0.13-0.519-0.13-0.741c0-0.26,0.05-0.508,0.149-0.743
		c0.099-0.236,0.234-0.442,0.408-0.623c0.174-0.178,0.377-0.317,0.613-0.415c0.235-0.1,0.488-0.15,0.76-0.15
		c0.446,0,0.82,0.105,1.123,0.315c0.302,0.211,0.51,0.465,0.622,0.762l3.897,11.638l3.768-11.286
		C103.365,143.343,103.991,142.865,104.918,142.865z"/>
	<path fill="#FFFFFF" d="M137.137,157.807c0.556,0,1.018,0.184,1.383,0.547c0.364,0.365,0.547,0.827,0.547,1.382
		c0,0.544-0.186,1.007-0.556,1.395c-1.919,1.68-4.183,2.522-6.793,2.522c-2.871,0-5.32-1.014-7.349-3.043
		c-2.03-2.031-3.045-4.479-3.045-7.351c0-2.871,1.016-5.32,3.045-7.349c2.029-2.028,4.479-3.044,7.349-3.044
		c2.845,0,5.295,1.017,7.349,3.044c1.014,1.001,1.775,2.119,2.282,3.349c0.507,1.233,0.761,2.566,0.761,4
		c0,0.557-0.188,1.018-0.565,1.383s-0.838,0.547-1.382,0.547h-14.699c0.21,0.683,0.519,1.302,0.928,1.866
		c0.409,0.564,0.887,1.045,1.438,1.447c0.55,0.402,1.157,0.714,1.819,0.938c0.661,0.221,1.352,0.334,2.069,0.334
		c0.815,0,1.564-0.126,2.245-0.372c0.68-0.247,1.312-0.619,1.893-1.115C136.228,157.979,136.654,157.819,137.137,157.807z
		 M137.972,151.329c-0.211-0.681-0.523-1.302-0.938-1.865c-0.414-0.562-0.896-1.047-1.446-1.448
		c-0.551-0.402-1.157-0.714-1.819-0.937c-0.663-0.222-1.345-0.333-2.051-0.333c-0.706,0-1.393,0.111-2.06,0.333
		c-0.668,0.223-1.281,0.535-1.838,0.937c-0.557,0.401-1.038,0.886-1.447,1.448c-0.409,0.563-0.712,1.184-0.91,1.865H137.972z"/>
	<path fill="#FFFFFF" d="M148.94,144.777c1.646-1.274,3.582-1.912,5.809-1.912c1.301,0,2.534,0.254,3.704,0.761
		c1.168,0.508,2.2,1.199,3.09,2.071c0.892,0.872,1.599,1.897,2.118,3.08c0.517,1.182,0.778,2.441,0.778,3.778v9.148
		c0,0.546-0.19,1.006-0.567,1.385c-0.376,0.375-0.832,0.564-1.364,0.564c-0.544,0-1.006-0.189-1.381-0.564
		c-0.379-0.379-0.567-0.839-0.567-1.385v-9.148c0-0.791-0.154-1.541-0.464-2.246c-0.31-0.704-0.726-1.321-1.253-1.847
		c-0.526-0.525-1.141-0.943-1.847-1.254c-0.705-0.308-1.454-0.462-2.247-0.462c-0.802,0-1.554,0.15-2.254,0.453
		c-0.698,0.303-1.315,0.721-1.848,1.254c-0.531,0.533-0.947,1.151-1.252,1.855c-0.302,0.705-0.454,1.455-0.454,2.246v9.148
		c0,0.546-0.188,1.006-0.566,1.385c-0.376,0.375-0.831,0.564-1.362,0.564c-0.548,0-1.007-0.189-1.383-0.564
		c-0.38-0.379-0.567-0.839-0.567-1.385v-16.889c0-0.531,0.187-0.991,0.567-1.373c0.376-0.384,0.835-0.576,1.383-0.576
		c0.531,0,0.986,0.192,1.362,0.576C148.752,143.824,148.94,144.27,148.94,144.777z"/>
	<path fill="#FFFFFF" d="M167.799,142.865h0.872v-6.979c0-0.531,0.188-0.986,0.563-1.364c0.377-0.377,0.839-0.566,1.385-0.566
		c0.531,0,0.986,0.189,1.364,0.566c0.376,0.378,0.565,0.833,0.565,1.364v6.979h2.32c0.529,0,0.984,0.189,1.354,0.565
		c0.372,0.378,0.558,0.834,0.558,1.366c0,0.544-0.186,1.005-0.558,1.382c-0.369,0.378-0.824,0.567-1.354,0.567h-2.32v9.334
		c0,2.462,1.237,3.694,3.712,3.694c0.532,0,0.984,0.187,1.354,0.565c0.372,0.375,0.557,0.831,0.557,1.363
		c0,0.546-0.185,1.006-0.557,1.385c-0.37,0.375-0.822,0.564-1.354,0.564c-5.061,0-7.59-2.522-7.59-7.572v-9.334h-0.872
		c-0.52,0-0.969-0.189-1.347-0.567c-0.377-0.376-0.566-0.837-0.566-1.382c0-0.532,0.189-0.988,0.566-1.366
		C166.83,143.055,167.279,142.865,167.799,142.865z"/>
	<path fill="#FFFFFF" d="M187.657,161.721l-6.683-16.053c-0.124-0.285-0.185-0.576-0.185-0.872c0-0.26,0.05-0.508,0.15-0.743
		c0.097-0.236,0.232-0.442,0.407-0.623c0.173-0.178,0.377-0.317,0.613-0.415c0.233-0.1,0.486-0.15,0.757-0.15
		c0.386,0,0.744,0.108,1.077,0.325c0.335,0.217,0.59,0.536,0.762,0.956l5.216,12.453l5.215-12.49
		c0.15-0.371,0.359-0.669,0.642-0.899c0.275-0.23,0.67-0.345,1.176-0.345c0.273,0,0.527,0.05,0.762,0.15
		c0.235,0.098,0.439,0.237,0.614,0.415c0.171,0.181,0.311,0.387,0.416,0.623c0.106,0.235,0.159,0.483,0.159,0.743
		c0,0.271-0.069,0.563-0.204,0.872l-10.673,25.596c-0.16,0.383-0.408,0.695-0.741,0.936c-0.333,0.239-0.7,0.361-1.096,0.361
		c-0.557,0-1.018-0.187-1.383-0.556c-0.367-0.37-0.547-0.836-0.547-1.392c0-0.298,0.062-0.583,0.185-0.855L187.657,161.721z"/>
	<path fill="#FFFFFF" d="M206.866,139.173c0,0.63-0.225,1.168-0.668,1.614c-0.446,0.446-0.985,0.667-1.614,0.667
		c-0.633,0-1.172-0.222-1.616-0.667s-0.669-0.984-0.669-1.614c0-0.631,0.225-1.17,0.669-1.615c0.444-0.446,0.983-0.669,1.616-0.669
		c0.629,0,1.168,0.223,1.614,0.669C206.642,138.003,206.866,138.542,206.866,139.173z M202.652,161.703v-16.889
		c0-0.545,0.187-1.006,0.565-1.384c0.377-0.375,0.834-0.565,1.366-0.565c0.53,0,0.983,0.189,1.362,0.565
		c0.378,0.378,0.571,0.839,0.586,1.384v16.889c-0.015,0.546-0.208,1.006-0.586,1.385c-0.379,0.375-0.832,0.564-1.362,0.564
		c-0.532,0-0.989-0.189-1.366-0.564C202.839,162.709,202.652,162.249,202.652,161.703z"/>
	<path fill="#FFFFFF" d="M220.915,142.865c2.462,0,4.635,0.761,6.514,2.283v-9.262c0-0.557,0.183-1.018,0.548-1.383
		c0.364-0.364,0.826-0.547,1.385-0.547c0.542,0,1.004,0.183,1.382,0.547c0.377,0.365,0.564,0.827,0.564,1.383v17.372
		c0,2.895-1.014,5.346-3.044,7.351c-2.054,2.029-4.504,3.043-7.349,3.043c-2.87,0-5.321-1.014-7.351-3.043
		c-2.028-2.031-3.041-4.479-3.041-7.351c0-2.871,1.013-5.32,3.041-7.349C215.594,143.882,218.045,142.865,220.915,142.865z
		 M227.429,153.259c0-0.892-0.172-1.729-0.508-2.516c-0.343-0.785-0.807-1.474-1.395-2.069c-0.588-0.593-1.277-1.063-2.068-1.41
		c-0.793-0.347-1.64-0.519-2.543-0.519c-0.915,0-1.771,0.172-2.562,0.519c-0.791,0.346-1.479,0.814-2.06,1.401
		c-0.582,0.588-1.043,1.278-1.384,2.069c-0.339,0.792-0.511,1.633-0.511,2.524c0,0.891,0.172,1.732,0.511,2.525
		c0.341,0.792,0.802,1.48,1.384,2.067c0.58,0.589,1.269,1.055,2.06,1.401c0.791,0.349,1.646,0.521,2.562,0.521
		c0.903,0,1.75-0.173,2.543-0.521c0.791-0.347,1.48-0.815,2.068-1.41c0.588-0.593,1.052-1.283,1.395-2.07
		C227.257,154.989,227.429,154.149,227.429,153.259z"/>
	<path fill="#FFFFFF" d="M250.09,157.807c0.557,0,1.019,0.184,1.384,0.547c0.365,0.365,0.547,0.827,0.547,1.382
		c0,0.544-0.188,1.007-0.557,1.395c-1.919,1.68-4.181,2.522-6.791,2.522c-2.872,0-5.321-1.014-7.351-3.043
		c-2.03-2.031-3.044-4.479-3.044-7.351c0-2.871,1.014-5.32,3.044-7.349c2.029-2.028,4.479-3.044,7.351-3.044
		c2.845,0,5.293,1.017,7.348,3.044c1.016,1.001,1.774,2.119,2.284,3.349c0.506,1.233,0.76,2.566,0.76,4
		c0,0.557-0.189,1.018-0.566,1.383s-0.837,0.547-1.381,0.547h-14.7c0.21,0.683,0.521,1.302,0.929,1.866
		c0.408,0.564,0.886,1.045,1.436,1.447c0.553,0.402,1.156,0.714,1.822,0.938c0.661,0.221,1.349,0.334,2.069,0.334
		c0.813,0,1.563-0.126,2.244-0.372c0.681-0.247,1.312-0.619,1.892-1.115C249.181,157.979,249.609,157.819,250.09,157.807z
		 M250.924,151.329c-0.208-0.681-0.522-1.302-0.935-1.865c-0.416-0.562-0.896-1.047-1.449-1.448
		c-0.55-0.402-1.156-0.714-1.818-0.937c-0.662-0.222-1.345-0.333-2.049-0.333c-0.707,0-1.394,0.111-2.062,0.333
		c-0.67,0.223-1.281,0.535-1.841,0.937c-0.553,0.401-1.035,0.886-1.445,1.448c-0.409,0.563-0.711,1.184-0.908,1.865H250.924z"/>
	<path fill="#FFFFFF" d="M274.941,161.721v-0.37c-0.927,0.742-1.937,1.312-3.025,1.708c-1.09,0.396-2.254,0.594-3.49,0.594
		c-2.87,0-5.318-1.014-7.347-3.043c-2.032-2.031-3.046-4.479-3.046-7.351c0-2.871,1.014-5.32,3.046-7.349
		c2.028-2.028,4.477-3.044,7.347-3.044c2.849,0,5.297,1.017,7.351,3.044c2.03,2.029,3.044,4.479,3.044,7.349v8.462
		c0,0.535-0.19,0.988-0.566,1.367c-0.377,0.375-0.832,0.564-1.364,0.564c-0.543,0-1.003-0.189-1.382-0.564
		C275.129,162.709,274.941,162.256,274.941,161.721z M268.426,146.746c-0.915,0-1.769,0.172-2.562,0.519
		c-0.79,0.346-1.477,0.814-2.058,1.401c-0.583,0.588-1.045,1.278-1.383,2.069c-0.341,0.792-0.512,1.633-0.512,2.524
		c0,0.891,0.171,1.732,0.512,2.525c0.338,0.792,0.8,1.48,1.383,2.067c0.581,0.589,1.268,1.055,2.058,1.401
		c0.793,0.349,1.646,0.521,2.562,0.521c0.902,0,1.752-0.173,2.542-0.521c0.794-0.347,1.483-0.815,2.071-1.41
		c0.588-0.593,1.051-1.283,1.392-2.07c0.342-0.783,0.511-1.623,0.511-2.514c0-0.892-0.169-1.729-0.511-2.516
		c-0.341-0.785-0.804-1.474-1.392-2.069c-0.588-0.593-1.277-1.063-2.071-1.41C270.178,146.917,269.328,146.746,268.426,146.746z"/>
	<path fill="#FFFFFF" d="M285.577,153.76c-1.166-0.445-1.982-0.902-2.451-1.375h0.018c-0.939-0.95-1.409-2.07-1.409-3.358
		c0-0.939,0.252-1.791,0.751-2.551c0.503-0.762,1.154-1.408,1.958-1.939c0.806-0.532,1.71-0.944,2.719-1.234
		c1.01-0.291,2.021-0.437,3.036-0.437c3.094,0,5.745,1.244,7.963,3.731c0.259,0.321,0.388,0.711,0.388,1.169
		c0,0.556-0.183,1.018-0.547,1.382c-0.365,0.365-0.826,0.548-1.385,0.548c-0.394,0-0.729-0.112-1.011-0.334
		c-0.277-0.223-0.546-0.464-0.807-0.724c-1.262-1.263-2.797-1.892-4.602-1.892c-1.781,0-3.205,0.542-4.27,1.632
		c-0.198,0.198-0.298,0.47-0.298,0.816s0.161,0.582,0.482,0.705l8.687,2.858c1.214,0.471,2.028,0.928,2.45,1.371h-0.02
		c0.939,0.955,1.411,2.074,1.411,3.36c0,0.954-0.249,1.807-0.751,2.563c-0.502,0.755-1.153,1.4-1.958,1.938
		c-0.806,0.538-1.708,0.95-2.709,1.234c-1.004,0.285-2.013,0.427-3.025,0.427c-3.119,0-5.774-1.23-7.964-3.693
		c-0.272-0.357-0.409-0.761-0.409-1.206c0-0.558,0.185-1.019,0.55-1.382c0.362-0.365,0.825-0.55,1.382-0.55
		c0.408,0,0.755,0.121,1.038,0.362c0.287,0.242,0.547,0.475,0.782,0.696c1.262,1.263,2.801,1.895,4.621,1.895
		c1.77,0,3.191-0.559,4.268-1.672c0.186-0.209,0.279-0.463,0.279-0.759c0-0.349-0.168-0.59-0.502-0.727L285.577,153.76z"/>
</g>
</svg>
