<?xml version="1.0" encoding="UTF-8" standalone="no"?>
<svg width="160px" height="36px" viewBox="0 0 160 36" version="1.1" xmlns="http://www.w3.org/2000/svg" xmlns:xlink="http://www.w3.org/1999/xlink">
    <!-- Generator: Sketch 39.1 (31720) - http://www.bohemiancoding.com/sketch -->
    <title>mindset</title>
    <desc>Created with Sketch.</desc>
    <defs></defs>
    <g id="Page-1" stroke="none" stroke-width="1" fill="none" fill-rule="evenodd">
        <g id="mindset" fill="#FFFFFF">
            <g transform="translate(30.000000, 8.000000)" id="Page-1">
                <g>
                    <path d="M20.1903846,18.5897436 L20.1903846,1.05961538 L13.9089744,1.05961538 L10.2294872,10.5737179 L6.57628205,1.05961538 L0.294871795,1.05961538 L0.294871795,18.5897436 L4.81538462,18.5897436 L4.81538462,7.18333333 L9.23076923,18.5897436 L11.2282051,18.5897436 L15.6698718,7.18333333 L15.6698718,18.5897436 L20.1903846,18.5897436 L20.1903846,18.5897436 Z M25.2628205,4.76538462 C26.550641,4.76538462 27.575641,3.71410256 27.575641,2.42628205 C27.575641,1.13846154 26.550641,0.113461538 25.2628205,0.113461538 C23.975,0.113461538 22.95,1.13846154 22.95,2.42628205 C22.95,3.71410256 23.975,4.76538462 25.2628205,4.76538462 L25.2628205,4.76538462 L25.2628205,4.76538462 Z M27.2865385,18.5897436 L27.2865385,5.89551282 L23.2391026,5.89551282 L23.2391026,18.5897436 L27.2865385,18.5897436 L27.2865385,18.5897436 Z M42.8717949,18.5897436 L42.8717949,9.60128205 C42.8717949,7.26217949 41.5576923,5.58012821 38.6666667,5.58012821 C36.5378205,5.58012821 35.0397436,6.5525641 34.2775641,7.44615385 L34.2775641,5.89551282 L30.2301282,5.89551282 L30.2301282,18.5897436 L34.2775641,18.5897436 L34.2775641,10.3897436 C34.750641,9.81153846 35.5391026,9.15448718 36.7480769,9.15448718 C38.0096154,9.15448718 38.824359,9.70641026 38.824359,11.2570513 L38.824359,18.5897436 L42.8717949,18.5897436 L42.8717949,18.5897436 Z M58.3782051,18.5897436 L58.3782051,1.05961538 L54.3570513,1.05961538 L54.3570513,7.39358974 C53.3320513,6.13205128 51.9916667,5.58012821 50.5987179,5.58012821 C47.4185897,5.58012821 44.974359,8.07692308 44.974359,12.2294872 C44.974359,16.5397436 47.4711538,18.9051282 50.5987179,18.9051282 C52.0179487,18.9051282 53.3057692,18.3269231 54.3570513,17.1179487 L54.3570513,18.5897436 L58.3782051,18.5897436 L58.3782051,18.5897436 Z M51.9128205,15.3307692 C50.3096154,15.3307692 49.1269231,14.1217949 49.1269231,12.2294872 C49.1269231,10.3371795 50.3096154,9.15448718 51.9128205,9.15448718 C52.7801282,9.15448718 53.8314103,9.60128205 54.3570513,10.2846154 L54.3570513,14.174359 C53.8314103,14.8576923 52.7801282,15.3307692 51.9128205,15.3307692 L51.9128205,15.3307692 L51.9128205,15.3307692 Z M67.9711538,18.9051282 C72.675641,18.9051282 75.2775641,16.5660256 75.2775641,13.0442308 C75.2775641,6.52628205 65.3692308,8.15576923 65.3692308,5.92179487 C65.3692308,5.18589744 65.9474359,4.66025641 67.2615385,4.66025641 C68.9961538,4.66025641 70.9147436,5.26474359 72.3865385,6.47371795 L74.8570513,3.24102564 C72.9910256,1.63782051 70.5467949,0.796794872 67.7346154,0.796794872 C63.2403846,0.796794872 60.7435897,3.425 60.7435897,6.36858974 C60.7435897,13.1230769 70.6782051,11.2044872 70.6782051,13.5961538 C70.6782051,14.4371795 69.7320513,15.0416667 68.1814103,15.0416667 C65.7897436,15.0416667 63.8448718,13.9903846 62.5833333,12.7288462 L60.1916667,16.1192308 C61.9525641,17.8012821 64.4230769,18.9051282 67.9711538,18.9051282 L67.9711538,18.9051282 L67.9711538,18.9051282 Z M83.3724359,18.9051282 C85.3173077,18.9051282 87.4198718,18.3532051 88.6814103,17.2230769 L86.9730769,14.7 C86.2634615,15.3833333 84.7128205,15.7775641 83.8192308,15.7775641 C81.9794872,15.7775641 80.875641,14.7 80.6391026,13.5173077 L89.6801282,13.5173077 L89.6801282,12.65 C89.6801282,8.33974359 86.9467949,5.58012821 83.1884615,5.58012821 C79.2198718,5.58012821 76.4339744,8.55 76.4339744,12.2294872 C76.4339744,16.3557692 79.4564103,18.9051282 83.3724359,18.9051282 L83.3724359,18.9051282 L83.3724359,18.9051282 Z M85.8166667,10.8891026 L80.5865385,10.8891026 C80.7442308,9.96923077 81.4275641,8.70769231 83.1884615,8.70769231 C85.0544872,8.70769231 85.7115385,9.99551282 85.8166667,10.8891026 L85.8166667,10.8891026 L85.8166667,10.8891026 Z M96.4871795,18.9051282 C97.9852564,18.9051282 98.9839744,18.5371795 99.4833333,18.0641026 L98.6948718,15.0153846 C98.5634615,15.1730769 98.1166667,15.3307692 97.6698718,15.3307692 C96.9602564,15.3307692 96.5397436,14.7788462 96.5397436,14.0429487 L96.5397436,9.41730769 L99.1153846,9.41730769 L99.1153846,5.89551282 L96.5397436,5.89551282 L96.5397436,2.42628205 L92.5185897,2.42628205 L92.5185897,5.89551282 L90.4160256,5.89551282 L90.4160256,9.41730769 L92.5185897,9.41730769 L92.5185897,15.1730769 C92.5185897,17.6173077 93.9115385,18.9051282 96.4871795,18.9051282 L96.4871795,18.9051282 L96.4871795,18.9051282 Z" id="MindSet"></path>
                </g>
            </g>
        </g>
    </g>
</svg>