<svg width="115" height="115" viewBox="0 0 115 115" fill="none" xmlns="http://www.w3.org/2000/svg">
<g clip-path="url(#clip0_612_56853)">
<path d="M0 57.2343C0 88.8439 25.6247 114.469 57.2343 114.469C88.8439 114.469 114.469 88.8439 114.469 57.2343C114.469 25.6247 88.8439 0 57.2343 0C25.6247 0 0 25.6247 0 57.2343Z" fill="#003333"/>
<path d="M57 21.5908C76.6061 21.5908 92.5 37.4847 92.5 57.0908C92.5 76.6969 76.6061 92.5908 57 92.5908C37.3939 92.5908 21.5 76.6969 21.5 57.0908C21.5 37.4847 37.3939 21.5908 57 21.5908ZM57 25.3906C39.4926 25.3906 25.2998 39.5834 25.2998 57.0908C25.2998 74.5982 39.4926 88.791 57 88.791C74.5074 88.791 88.7002 74.5982 88.7002 57.0908C88.7002 39.5834 74.5074 25.3906 57 25.3906Z" fill="#99CC00" stroke="#003333" stroke-miterlimit="10"/>
<path fill-rule="evenodd" clip-rule="evenodd" d="M74.7909 71.638L73.0217 73.2597C66.2261 79.489 59.3844 80.9454 53.5324 79.9784C47.8165 79.0339 43.2956 75.8236 40.8241 73.1049L39.2097 71.3291L42.7614 68.1002L44.3758 69.8761C46.268 71.9575 49.8635 74.5071 54.3149 75.2426C58.6301 75.9557 64.0066 75.012 69.7783 69.7213L71.5474 68.0996L74.7909 71.638Z" fill="#006633"/>
</g>
<defs>
<clipPath id="clip0_612_56853">
<rect width="114.469" height="114.469" rx="57.2343" fill="white"/>
</clipPath>
</defs>
</svg>
