<?xml version="1.0" encoding="UTF-8" standalone="no"?>
<svg width="300px" height="150px" viewBox="0 0 300 150" version="1.1" xmlns="http://www.w3.org/2000/svg" xmlns:xlink="http://www.w3.org/1999/xlink" xmlns:sketch="http://www.bohemiancoding.com/sketch/ns">
    <!-- Generator: Sketch 3.3.3 (12081) - http://www.bohemiancoding.com/sketch -->
    <title>bliphub logo</title>
    <desc>Created with Sketch.</desc>
    <defs></defs>
    <g id="User-first-login" stroke="none" stroke-width="1" fill="none" fill-rule="evenodd" sketch:type="MSPage">
        <g id="bliphub-logo" sketch:type="MSArtboardGroup" fill="#FFFFFF">
            <path d="M75,52.5618524 L81.6400739,52.5618524 L81.6400739,64.8204505 L81.8443839,64.8204505 C82.5594724,64.0032065 83.478858,63.3562314 84.6025685,62.8795058 C85.7262789,62.4027801 86.9691521,62.1644209 88.3312254,62.1644209 C91.3958902,62.1644209 93.7369185,63.211499 95.3543805,65.3056866 C96.9718425,67.3998743 97.7805614,70.5921856 97.7805614,74.8827164 C97.7805614,79.4797136 96.648355,82.969974 94.3839082,85.3536022 C92.1194614,87.7372304 89.0122784,88.9290267 85.0622659,88.9290267 C82.8829487,88.9290267 80.8909464,88.7502572 79.0861994,88.392713 C77.2814523,88.0351688 75.9193995,87.6350657 75,87.1923919 L75,52.5618524 Z M86.3902807,67.782945 C85.1644148,67.782945 84.1684136,68.0979197 83.4022474,68.7278786 C82.6360812,69.3578375 82.0486959,70.2687103 81.6400739,71.4605244 L81.6400739,82.5954177 C82.1849033,82.8678323 82.7722885,83.0551146 83.4022474,83.1572701 C84.0322063,83.2594256 84.7047199,83.3105025 85.4198083,83.3105025 C87.2245554,83.3105025 88.5951211,82.6550146 89.5315464,81.3440191 C90.4679718,80.0330236 90.9361775,77.9473802 90.9361775,75.0870263 C90.9361775,70.2176144 89.4208937,67.782945 86.3902807,67.782945 L86.3902807,67.782945 Z M106.972078,79.7350781 C106.972078,80.9268922 107.125309,81.7952009 107.431775,82.3400302 C107.738242,82.8848595 108.231986,83.1572701 108.913022,83.1572701 C109.321644,83.1572701 109.721747,83.1232187 110.113343,83.0551151 C110.504939,82.9870114 110.990171,82.8337805 111.569052,82.5954177 L112.284137,87.8053218 C111.739308,88.0777365 110.90505,88.350147 109.78134,88.6225617 C108.657629,88.8949764 107.499884,89.0311816 106.30807,89.0311816 C104.367116,89.0311816 102.885883,88.5800016 101.864328,87.6776281 C100.842774,86.7752546 100.332004,85.2855093 100.332004,83.2083476 L100.332004,52.5618524 L106.972078,52.5618524 L106.972078,79.7350781 Z M113.507564,62.7773508 L120.147638,62.7773508 L120.147638,88.3160967 L113.507564,88.3160967 L113.507564,62.7773508 Z M112.537092,55.5754244 C112.537092,54.5879213 112.903144,53.7451511 113.635258,53.0470886 C114.367372,52.349026 115.380399,52 116.674369,52 C117.968338,52 119.015417,52.349026 119.815635,53.0470886 C120.615853,53.7451511 121.015956,54.5879213 121.015956,55.5754244 C121.015956,56.5629275 120.615853,57.3886721 119.815635,58.0526828 C119.015417,58.7166935 117.968338,59.0486939 116.674369,59.0486939 C115.380399,59.0486939 114.367372,58.7166935 113.635258,58.0526828 C112.903144,57.3886721 112.537092,56.5629275 112.537092,55.5754244 L112.537092,55.5754244 Z M124.384638,62.7773508 L129.237,62.7773508 L130.003162,65.8420003 L130.207472,65.8420003 C131.09282,64.5480307 132.139898,63.5945937 133.348738,62.9816608 C134.557578,62.3687278 136.030297,62.0622659 137.766941,62.0622659 C140.967813,62.0622659 143.368431,63.0752927 144.968867,65.1013767 C146.569303,67.1274607 147.369509,70.3878746 147.369509,74.8827164 C147.369509,77.0620336 147.114124,79.0284974 146.603347,80.7821667 C146.092569,82.535836 145.334927,84.0255813 144.330398,85.2514472 C143.325869,86.4773132 142.100022,87.4137245 140.652819,88.0607093 C139.205616,88.7076941 137.545614,89.0311816 135.672764,89.0311816 C134.617157,89.0311816 133.748848,88.9545662 133.067811,88.8013329 C132.386775,88.6480997 131.705748,88.4012276 131.024712,88.0607093 L131.024712,98.5315951 L124.384638,98.5315951 L124.384638,62.7773508 Z M135.774919,67.68079 C134.480949,67.68079 133.467922,68.0042776 132.735808,68.6512624 C132.003693,69.2982472 131.433334,70.2687098 131.024712,71.5626794 L131.024712,82.1867977 C131.501437,82.5613679 132.02072,82.8593169 132.582575,83.0806538 C133.14443,83.3019907 133.885047,83.4126575 134.804446,83.4126575 C136.711349,83.4126575 138.141504,82.7401439 139.094955,81.3950966 C140.048407,80.0500492 140.525125,77.8282006 140.525125,74.7294839 C140.525125,72.482063 140.150561,70.7454457 139.40142,69.5195797 C138.65228,68.2937138 137.443458,67.68079 135.774919,67.68079 L135.774919,67.68079 Z M165.346354,88.3160967 L165.346354,73.810089 C165.346354,71.7329273 165.056918,70.2346692 164.478037,69.3152698 C163.899156,68.3958703 162.843565,67.9361775 161.311232,67.9361775 C160.187522,67.9361775 159.157469,68.3192548 158.221044,69.085421 C157.284619,69.8515873 156.663182,70.8305627 156.356715,72.0223768 L156.356715,88.3160967 L149.716642,88.3160967 L149.716642,52.5618524 L156.356715,52.5618524 L156.356715,65.6376903 L156.561025,65.6376903 C157.378269,64.5480317 158.382783,63.6797231 159.574597,63.0327383 C160.766412,62.3857535 162.281695,62.0622659 164.120494,62.0622659 C165.414464,62.0622659 166.555183,62.2325225 167.542686,62.5730408 C168.530189,62.9135591 169.355934,63.4754059 170.019945,64.2585981 C170.683955,65.0417902 171.177699,66.105894 171.501192,67.4509413 C171.824684,68.7959886 171.986428,70.4559905 171.986428,72.4309968 L171.986428,88.3160967 L165.346354,88.3160967 Z M181.688719,62.7773508 L181.688719,77.2833585 C181.688719,79.3605202 181.935591,80.8587783 182.429343,81.7781778 C182.923094,82.6975772 183.885044,83.1572701 185.315221,83.1572701 C186.575139,83.1572701 187.622217,82.7827055 188.456487,82.0335652 C189.290757,81.284425 189.912193,80.3650393 190.320815,79.2753807 L190.320815,62.7773508 L196.960889,62.7773508 L196.960889,80.552318 C196.960889,81.9484431 197.028992,83.3190087 197.165199,84.6640561 C197.301407,86.0091034 197.505714,87.2264381 197.778129,88.3160967 L192.772535,88.3160967 L191.597753,84.5363623 L191.393443,84.5363623 C190.61025,85.8303319 189.520608,86.9029485 188.124483,87.7542443 C186.728358,88.6055401 185.076869,89.0311816 183.169966,89.0311816 C181.875997,89.0311816 180.718252,88.860925 179.696697,88.5204067 C178.675142,88.1798884 177.823859,87.6180416 177.142822,86.8348495 C176.461786,86.0516574 175.942503,84.9960664 175.584959,83.668045 C175.227415,82.3400236 175.048645,80.6715088 175.048645,78.6624508 L175.048645,62.7773508 L181.688719,62.7773508 Z M200.533881,52.5618524 L207.173955,52.5618524 L207.173955,64.8204505 L207.378265,64.8204505 C208.093354,64.0032065 209.012739,63.3562314 210.13645,62.8795058 C211.26016,62.4027801 212.503034,62.1644209 213.865107,62.1644209 C216.929772,62.1644209 219.2708,63.211499 220.888262,65.3056866 C222.505724,67.3998743 223.314443,70.5921856 223.314443,74.8827164 C223.314443,79.4797136 222.182236,82.969974 219.91779,85.3536022 C217.653343,87.7372304 214.54616,88.9290267 210.596147,88.9290267 C208.41683,88.9290267 206.424828,88.7502572 204.620081,88.392713 C202.815334,88.0351688 201.453281,87.6350657 200.533881,87.1923919 L200.533881,52.5618524 Z M211.924162,67.782945 C210.698296,67.782945 209.702295,68.0979197 208.936129,68.7278786 C208.169963,69.3578375 207.582577,70.2687103 207.173955,71.4605244 L207.173955,82.5954177 C207.718785,82.8678323 208.30617,83.0551146 208.936129,83.1572701 C209.566088,83.2594256 210.238601,83.3105025 210.95369,83.3105025 C212.758437,83.3105025 214.129002,82.6550146 215.065428,81.3440191 C216.001853,80.0330236 216.470059,77.9473802 216.470059,75.0870263 C216.470059,70.2176144 214.954775,67.782945 211.924162,67.782945 L211.924162,67.782945 Z" id="bliphub" sketch:type="MSShapeGroup"></path>
        </g>
    </g>
</svg>