<?xml version="1.0" encoding="UTF-8" standalone="no"?>
<svg width="300px" height="300px" viewBox="0 0 300 300" version="1.1" xmlns="http://www.w3.org/2000/svg" xmlns:xlink="http://www.w3.org/1999/xlink" xmlns:sketch="http://www.bohemiancoding.com/sketch/ns">
    <!-- Generator: Sketch 3.3.3 (12081) - http://www.bohemiancoding.com/sketch -->
    <title>Artboard 1</title>
    <desc>Created with Sketch.</desc>
    <defs></defs>
    <g id="Page-1" stroke="none" stroke-width="1" fill="none" fill-rule="evenodd" sketch:type="MSPage">
        <g id="Artboard-1" sketch:type="MSArtboardGroup" fill="#FFFFFF">
            <path d="M3.07302742,137.003358 L9.01594852,137.003358 L9.01594852,178.273643 L3.07302742,178.273643 L3.07302742,137.003358 Z M2,124.457191 C2,123.136535 2.37142885,122.063518 3.11429771,121.238109 C3.85716656,120.412699 4.83388688,120 6.04448797,120 C7.25508906,120 8.25932263,120.398942 9.0572188,121.196838 C9.85511498,121.994734 10.2540571,123.081508 10.2540571,124.457191 C10.2540571,125.777847 9.85511498,126.809593 9.0572188,127.552462 C8.25932263,128.295331 7.25508906,128.66676 6.04448797,128.66676 C4.83388688,128.66676 3.85716656,128.281574 3.11429771,127.511192 C2.37142885,126.740809 2,125.722819 2,124.457191 L2,124.457191 Z M39.308338,178.273643 L39.308338,153.759093 C39.308338,151.558001 39.2395549,149.673343 39.1019866,148.105064 C38.9644183,146.536786 38.6755292,145.25742 38.2353106,144.266928 C37.795092,143.276436 37.1898005,142.547335 36.419418,142.079603 C35.6490355,141.61187 34.6310453,141.378008 33.3654169,141.378008 C31.4944879,141.378008 29.9124762,142.107109 28.6193341,143.565333 C27.326192,145.023557 26.4320114,146.688109 25.9367655,148.559037 L25.9367655,178.273643 L19.9938444,178.273643 L19.9938444,137.003358 L24.2034135,137.003358 L25.276441,141.378008 L25.5240627,141.378008 C26.6796364,139.782215 28.0552989,138.489093 29.6510912,137.498601 C31.2468836,136.508109 33.2828639,136.012871 35.7590935,136.012871 C37.8501317,136.012871 39.5697097,136.466839 40.9178791,137.37479 C42.2660485,138.282741 43.3253086,139.892266 44.0956911,142.203414 C45.0861829,140.277457 46.5031152,138.764229 48.3465305,137.663682 C50.1899458,136.563136 52.2121696,136.012871 54.4132625,136.012871 C56.2291641,136.012871 57.7836626,136.246733 59.0768047,136.714466 C60.3699468,137.182198 61.4154502,138.007595 62.2133464,139.190683 C63.0112426,140.37377 63.6027774,141.942025 63.9879687,143.895495 C64.3731599,145.848965 64.5657527,148.311401 64.5657527,151.282876 L64.5657527,178.273643 L58.6228316,178.273643 L58.6228316,152.025741 C58.6228316,148.448966 58.278916,145.78018 57.5910744,144.019306 C56.9032329,142.258432 55.3212211,141.378008 52.8449916,141.378008 C50.7539534,141.378008 49.0894018,142.024569 47.8512871,143.317711 C46.6131723,144.610853 45.746505,146.357945 45.2512591,148.559037 L45.2512591,178.273643 L39.308338,178.273643 Z M93.0422496,178.273643 L93.0422496,153.759093 C93.0422496,151.558001 92.9734665,149.673343 92.8358982,148.105064 C92.6983298,146.536786 92.4094407,145.25742 91.9692222,144.266928 C91.5290036,143.276436 90.9237121,142.547335 90.1533296,142.079603 C89.3829471,141.61187 88.3649569,141.378008 87.0993285,141.378008 C85.2283995,141.378008 83.6463877,142.107109 82.3532457,143.565333 C81.0601036,145.023557 80.165923,146.688109 79.6706771,148.559037 L79.6706771,178.273643 L73.727756,178.273643 L73.727756,137.003358 L77.9373251,137.003358 L79.0103525,141.378008 L79.2579743,141.378008 C80.413548,139.782215 81.7892105,138.489093 83.3850028,137.498601 C84.9807951,136.508109 87.0167755,136.012871 89.493005,136.012871 C91.5840433,136.012871 93.3036213,136.466839 94.6517907,137.37479 C95.9999601,138.282741 97.0592202,139.892266 97.8296027,142.203414 C98.8200945,140.277457 100.237027,138.764229 102.080442,137.663682 C103.923857,136.563136 105.946081,136.012871 108.147174,136.012871 C109.963076,136.012871 111.517574,136.246733 112.810716,136.714466 C114.103858,137.182198 115.149362,138.007595 115.947258,139.190683 C116.745154,140.37377 117.336689,141.942025 117.72188,143.895495 C118.107072,145.848965 118.299664,148.311401 118.299664,151.282876 L118.299664,178.273643 L112.356743,178.273643 L112.356743,152.025741 C112.356743,148.448966 112.012828,145.78018 111.324986,144.019306 C110.637144,142.258432 109.055133,141.378008 106.578903,141.378008 C104.487865,141.378008 102.823313,142.024569 101.585199,143.317711 C100.347084,144.610853 99.4804166,146.357945 98.9851707,148.559037 L98.9851707,178.273643 L93.0422496,178.273643 Z M152.141298,175.467264 C150.820643,176.677865 149.142334,177.613315 147.106323,178.273643 C145.070313,178.933971 142.924279,179.26413 140.668159,179.26413 C138.081875,179.26413 135.839545,178.755135 133.941102,177.737129 C132.04266,176.719124 130.474405,175.260922 129.23629,173.362479 C127.998175,171.464036 127.090238,169.194193 126.512451,166.552882 C125.934664,163.91157 125.645775,160.94014 125.645775,157.6385 C125.645775,150.595003 126.938898,145.22992 129.525182,141.543089 C132.111466,137.856258 135.770728,136.012871 140.503078,136.012871 C142.043843,136.012871 143.570828,136.205463 145.084079,136.590655 C146.597331,136.975846 147.959237,137.746217 149.169838,138.901791 C150.380439,140.057364 151.357159,141.680646 152.100028,143.771684 C152.842897,145.862723 153.214326,148.586534 153.214326,151.943201 C153.214326,152.878665 153.173056,153.882899 153.090515,154.955932 C153.007974,156.028965 152.911677,157.143251 152.801623,158.298825 L131.836318,158.298825 C131.836318,160.665 132.028911,162.811033 132.414102,164.736989 C132.799293,166.662946 133.404585,168.299984 134.229994,169.648153 C135.055404,170.996323 136.114664,172.041826 137.407806,172.784695 C138.700948,173.527564 140.310473,173.898993 142.23643,173.898993 C143.722167,173.898993 145.194126,173.62386 146.65235,173.073587 C148.110574,172.523314 149.224861,171.862996 149.995243,171.092613 L152.141298,175.467264 Z M147.519026,153.346391 C147.629081,149.219341 147.051303,146.192884 145.785674,144.266928 C144.520046,142.340972 142.786711,141.378008 140.585618,141.378008 C138.054362,141.378008 136.045894,142.340972 134.560157,144.266928 C133.074419,146.192884 132.193995,149.219341 131.918858,153.346391 L147.519026,153.346391 Z M161.550923,137.003358 L165.760492,137.003358 L166.83352,141.378008 L167.081142,141.378008 C167.851524,139.782215 168.855758,138.530363 170.093872,137.622412 C171.331987,136.714461 172.831459,136.260492 174.592334,136.260492 C175.857962,136.260492 177.288651,136.508112 178.884443,137.003358 L177.728875,143.028819 C176.298165,142.533573 175.032555,142.285954 173.932009,142.285954 C172.171135,142.285954 170.740446,142.794949 169.639899,143.812955 C168.539353,144.83096 167.824008,146.192866 167.493844,147.898713 L167.493844,178.273643 L161.550923,178.273643 L161.550923,137.003358 Z M183.506715,171.505316 C184.607262,172.165644 185.914141,172.729666 187.427392,173.197398 C188.940644,173.66513 190.495142,173.898993 192.090935,173.898993 C193.906836,173.898993 195.447578,173.445024 196.713206,172.537073 C197.978835,171.629122 198.61164,170.157164 198.61164,168.121153 C198.61164,166.415306 198.226454,165.01213 197.456072,163.911584 C196.685689,162.811037 195.708969,161.82056 194.525881,160.940123 C193.342794,160.059686 192.063428,159.248045 190.687745,158.505176 C189.312062,157.762307 188.032696,156.868127 186.849608,155.822608 C185.666521,154.777089 184.689801,153.538992 183.919418,152.108282 C183.149036,150.677572 182.76385,148.861697 182.76385,146.660604 C182.76385,143.138856 183.713057,140.483827 185.6115,138.695439 C187.509942,136.907051 190.192484,136.012871 193.659205,136.012871 C195.915326,136.012871 197.868766,136.21922 199.519586,136.631925 C201.170406,137.04463 202.601094,137.608652 203.811696,138.324007 L202.243425,143.276441 C201.197906,142.726168 199.987323,142.272199 198.61164,141.914522 C197.235957,141.556844 195.832781,141.378008 194.402071,141.378008 C192.421087,141.378008 190.976641,141.790707 190.068691,142.616116 C189.16074,143.441526 188.706771,144.734649 188.706771,146.495523 C188.706771,147.871206 189.091957,149.040519 189.862339,150.003497 C190.632722,150.966476 191.609442,151.8469 192.792529,152.644796 C193.975617,153.442692 195.254983,154.254333 196.630666,155.079743 C198.006349,155.905152 199.285715,156.881873 200.468802,158.009933 C201.65189,159.137993 202.62861,160.486142 203.398993,162.054421 C204.169375,163.6227 204.554561,165.589897 204.554561,167.956072 C204.554561,169.496837 204.306941,170.955039 203.811696,172.330722 C203.31645,173.706405 202.559835,174.903231 201.54183,175.921237 C200.523824,176.939242 199.258215,177.750883 197.744964,178.356184 C196.231712,178.961484 194.457108,179.26413 192.421097,179.26413 C189.999895,179.26413 187.908888,179.030267 186.148013,178.562535 C184.387139,178.094803 182.901424,177.475755 181.690823,176.705372 L183.506715,171.505316 Z M213.05624,137.003358 L218.999161,137.003358 L218.999161,178.273643 L213.05624,178.273643 L213.05624,137.003358 Z M211.983212,124.457191 C211.983212,123.136535 212.354641,122.063518 213.09751,121.238109 C213.840379,120.412699 214.817099,120 216.0277,120 C217.238301,120 218.242535,120.398942 219.040431,121.196838 C219.838327,121.994734 220.237269,123.081508 220.237269,124.457191 C220.237269,125.777847 219.838327,126.809593 219.040431,127.552462 C218.242535,128.295331 217.238301,128.66676 216.0277,128.66676 C214.817099,128.66676 213.840379,128.281574 213.09751,127.511192 C212.354641,126.740809 211.983212,125.722819 211.983212,124.457191 L211.983212,124.457191 Z M228.161164,157.6385 C228.161164,150.209812 229.44053,144.748432 231.999301,141.254197 C234.558071,137.759962 238.203576,136.012871 242.935926,136.012871 C247.99844,136.012871 251.726485,137.801232 254.120173,141.378008 C256.513862,144.954784 257.710688,150.374894 257.710688,157.6385 C257.710688,165.122216 256.417566,170.597353 253.831281,174.064074 C251.244997,177.530795 247.613249,179.26413 242.935926,179.26413 C237.873412,179.26413 234.145367,177.475769 231.751679,173.898993 C229.35799,170.322217 228.161164,164.902107 228.161164,157.6385 L228.161164,157.6385 Z M234.351707,157.6385 C234.351707,160.059702 234.50303,162.260762 234.80568,164.241746 C235.10833,166.22273 235.603569,167.928551 236.29141,169.359261 C236.979252,170.789972 237.873432,171.904258 238.973979,172.702154 C240.074525,173.500051 241.395161,173.898993 242.935926,173.898993 C245.797347,173.898993 247.94338,172.619627 249.374091,170.060856 C250.804801,167.502086 251.520145,163.361342 251.520145,157.6385 C251.520145,155.272325 251.368823,153.085022 251.066172,151.076525 C250.763522,149.068028 250.268284,147.34845 249.580442,145.917739 C248.892601,144.487029 247.99842,143.372742 246.897874,142.574846 C245.797327,141.77695 244.476691,141.378008 242.935926,141.378008 C240.129533,141.378008 237.997256,142.671131 236.539032,145.257415 C235.080808,147.843699 234.351707,151.970686 234.351707,157.6385 L234.351707,157.6385 Z M286.764969,178.273643 L286.764969,153.098769 C286.764969,148.97172 286.283487,145.986532 285.320509,144.143117 C284.357531,142.299702 282.637953,141.378008 280.161724,141.378008 C277.960631,141.378008 276.144756,142.038326 274.714046,143.358982 C273.283336,144.679637 272.237832,146.302919 271.577504,148.228875 L271.577504,178.273643 L265.634583,178.273643 L265.634583,137.003358 L269.926693,137.003358 L270.99972,141.378008 L271.247342,141.378008 C272.292861,139.89227 273.709793,138.626661 275.498181,137.581142 C277.286569,136.535622 279.418846,136.012871 281.895076,136.012871 C283.65595,136.012871 285.210448,136.26049 286.558618,136.755736 C287.906787,137.250982 289.03483,138.090136 289.942781,139.273223 C290.850732,140.456311 291.538563,142.038322 292.006295,144.019306 C292.474028,146.00029 292.70789,148.503995 292.70789,151.530498 L292.70789,178.273643 L286.764969,178.273643 Z" id="immersion" sketch:type="MSShapeGroup"></path>
        </g>
    </g>
</svg>