<?xml version="1.0" encoding="UTF-8"?>
<svg width="35px" height="50px" viewBox="0 0 35 50" version="1.1" xmlns="http://www.w3.org/2000/svg" xmlns:xlink="http://www.w3.org/1999/xlink">
    <!-- Generator: Sketch 40.1 (33804) - http://www.bohemiancoding.com/sketch -->
    <title>arrow</title>
    <desc>Created with Sketch.</desc>
    <defs></defs>
    <g id="Welcome" stroke="none" stroke-width="1" fill="none" fill-rule="evenodd">
        <path d="M2.342,49.57375 C1.343,49.07675 0.71,48.01175 0.633,46.87675 C0.633,46.73475 0,36.08175 0,25.00075 C0,13.91975 0.633,3.26675 0.633,3.12475 C0.711,1.98975 1.343,0.99375 2.342,0.42675 C3.336,-0.14225 4.54,-0.14225 5.539,0.42675 C20.591,8.87675 33.523,22.15875 34.017,22.72775 C35.227,24.00675 35.227,25.99375 34.017,27.27275 C33.523,27.84175 20.591,41.12375 5.539,49.57375 C4.54,50.14275 3.336,50.14275 2.342,49.57375 L2.342,49.57375 Z" id="arrow" fill="#282829"></path>
    </g>
</svg>