<?xml version="1.0" encoding="utf-8"?>
<!-- Generator: Adobe Illustrator 15.0.2, SVG Export Plug-In . SVG Version: 6.00 Build 0)  -->
<!DOCTYPE svg PUBLIC "-//W3C//DTD SVG 1.1//EN" "http://www.w3.org/Graphics/SVG/1.1/DTD/svg11.dtd">
<svg version="1.1" id="Layer_1" xmlns="http://www.w3.org/2000/svg" xmlns:xlink="http://www.w3.org/1999/xlink" x="0px" y="0px"
	 width="50px" height="50px" viewBox="0 0 50 50" enable-background="new 0 0 50 50" xml:space="preserve">
<g>
	<path d="M92.906-37.185c0,0.464,0,0.869,0,1.331c0,13.543-10.299,29.168-29.166,29.168c-5.787,0-11.227-1.274-15.74-4.168
		c0.811,0.114,1.619,0.171,2.43,0.171c4.805,0,9.26-2.079,12.732-4.857c-4.456-0.059-8.275-3.066-9.55-7.118
		c0.638,0.116,1.274,0.173,1.911,0.173c0.926,0,1.852-0.116,2.719-0.346c-4.687-0.926-8.217-5.094-8.217-10.071
		c0-0.057,0-0.057,0-0.114c1.389,0.751,2.952,1.215,4.629,1.272c-2.777-1.852-4.57-4.976-4.57-8.506
		c0-1.911,0.521-3.472,1.388-4.978c5.094,6.192,12.617,10.069,21.124,10.533c-0.174-0.753-0.232-1.563-0.232-2.373
		c0-5.671,4.572-10.244,10.244-10.244c2.951,0,5.612,1.274,7.523,3.242c2.313-0.462,4.514-1.331,6.479-2.489
		c-0.75,2.373-2.37,4.398-4.513,5.672c2.083-0.232,4.052-0.81,5.903-1.62C96.609-40.425,94.874-38.632,92.906-37.185z"/>
</g>
<g>
	<path d="M-9.737,77.34c0,13.834-11.167,25.001-25.001,25.001c-13.831,0-24.999-11.167-24.999-25.001
		c0-13.831,11.168-24.999,24.999-24.999C-20.905,52.341-9.737,63.509-9.737,77.34z M-50.246,91.23
		c4.397-6.715,9.953-11.286,16.55-13.602c0.405-0.173,0.81-0.289,1.215-0.404c-0.462-1.1-0.983-2.258-1.504-3.355
		c-5.903,1.735-12.962,2.718-21.586,2.834c0,0.232,0,0.404,0,0.637C-55.572,82.663-53.545,87.527-50.246,91.23z M-55.107,72.884
		c7.696-0.173,14.061-0.983,19.328-2.487c-2.141-3.878-4.803-7.871-8.044-11.807C-49.495,61.311-53.72,66.577-55.107,72.884z
		 M-26.926,96.668c-0.753-4.688-2.025-10.069-4.109-15.856c-5.903,1.677-11.631,5.616-16.377,13.08
		c3.472,2.662,7.871,4.282,12.673,4.282C-31.96,98.174-29.299,97.652-26.926,96.668z M-39.541,57.086
		c3.183,3.936,5.729,7.985,7.869,11.921c4.397-1.794,7.869-4.224,10.587-7.407c-3.642-3.182-8.447-5.094-13.654-5.094
		C-36.417,56.506-37.978,56.682-39.541,57.086z M-29.936,72.363c0.58,1.33,1.158,2.604,1.679,3.878
		c4.511-0.696,9.314-0.464,14.352,0.694c-0.114-4.746-1.794-9.086-4.517-12.559C-21.426,67.792-25.247,70.454-29.936,72.363z
		 M-14.198,80.755c-3.875-0.928-8.213-1.393-12.612-0.871c1.909,5.267,3.064,10.248,3.878,14.644
		C-18.361,91.345-15.122,86.485-14.198,80.755z"/>
</g>
<g>
	<path d="M123.667-2.708h-4.111c0.635,1.445,0.984,3.126,0.984,4.978c0,6.887-4.916,11.458-10.997,11.69
		c-1.791,2.837-1.327,4.514,1.274,6.252c7.176,0.289,12.85,4.452,12.85,9.895c0,5.787-6.082,9.895-13.546,9.895
		c-7.465,0-13.538-4.164-13.538-9.895c0-3.704,2.545-6.769,6.424-8.45c-3.647-3.586-2.377-7.176,0.17-9.26
		c-3.354-1.908-5.551-5.494-5.551-10.126c0-7.062,5.145-11.749,11.453-11.749c2.32,0,4.461,0.637,6.252,1.736
		c6.194-0.405,8.336-2.257,8.336-2.257V-2.708z M103.873,30.105c0,2.026,2.431,3.646,6.248,3.646c3.821,0,6.251-1.62,6.251-3.646
		c0-2.023-2.43-3.644-6.251-3.644C106.304,26.462,103.873,28.082,103.873,30.105z M113.247,1.98c0-3.647-1.848-5.731-4.168-5.731
		c-2.312,0-4.164,2.084-4.164,5.731c0,3.643,1.852,5.727,4.164,5.727C111.399,7.707,113.247,5.623,113.247,1.98z"/>
</g>
<g>
	<path d="M118.75,54.623h-15.22c-2.489-2.544-5.96-4.164-9.78-4.164s-7.291,1.62-9.78,4.164H68.75v-8.332
		c0-3.992,3.299-7.289,7.291-7.289h35.418c3.992,0,7.291,3.297,7.291,7.289V54.623z M118.75,58.79v22.919
		c0,3.992-3.299,7.289-7.291,7.289H76.041c-3.992,0-7.291-3.297-7.291-7.289V58.79h12.501c-0.696,1.62-1.042,3.358-1.042,5.21
		c0,7.465,6.076,13.541,13.541,13.541S107.291,71.465,107.291,64c0-1.852-0.346-3.59-1.042-5.21H118.75z M84.375,64
		c0-5.152,4.168-9.377,9.375-9.377c5.15,0,9.375,4.225,9.375,9.377c0,5.21-4.225,9.377-9.375,9.377
		C88.543,73.377,84.375,69.21,84.375,64z"/>
</g>
<g>
	<path d="M-45.051,29.564l-24.999-18.75c0-1.734,1.39-3.125,3.126-3.125h43.749c1.734,0,3.125,1.392,3.125,3.125L-45.051,29.564z
		 M-45.051,35.177l25.001-18.75v25.636c0,1.733-1.392,3.126-3.125,3.126h-43.749c-1.736,0-3.126-1.393-3.126-3.126V16.427
		L-45.051,35.177z"/>
</g>
<g>
	<path d="M9.88,49.574c-0.999-0.497-1.632-1.562-1.709-2.697c0-0.142-0.633-10.796-0.633-21.876c0-11.081,0.633-21.734,0.633-21.876
		c0.078-1.135,0.71-2.131,1.709-2.698c0.994-0.569,2.198-0.569,3.197,0c15.052,8.45,27.984,21.732,28.478,22.301
		c1.21,1.279,1.21,3.266,0,4.546c-0.494,0.568-13.426,13.851-28.478,22.301C12.078,50.143,10.874,50.143,9.88,49.574z"/>
</g>
<g>
	<path d="M61.072,26.744c-0.176-0.087-0.287-0.274-0.301-0.475c0-0.024-0.111-1.899-0.111-3.849s0.111-3.824,0.111-3.849
		c0.014-0.2,0.125-0.375,0.301-0.475c0.175-0.1,0.387-0.1,0.562,0c2.648,1.487,4.924,3.824,5.011,3.924
		c0.213,0.225,0.213,0.575,0,0.8c-0.087,0.1-2.362,2.437-5.011,3.923C61.459,26.845,61.247,26.845,61.072,26.744z"/>
</g>
<text transform="matrix(1 0 0 1 20.9604 -5.3306)" font-family="'SSPika'" font-size="12">directright</text>
</svg>
