<?xml version="1.0" encoding="UTF-8"?>
<svg width="50px" height="50px" viewBox="0 0 50 50" version="1.1" xmlns="http://www.w3.org/2000/svg" xmlns:xlink="http://www.w3.org/1999/xlink">
    <!-- Generator: Sketch 40.1 (33804) - http://www.bohemiancoding.com/sketch -->
    <title>dribbble</title>
    <desc>Created with Sketch.</desc>
    <defs></defs>
    <g id="Welcome" stroke="none" stroke-width="1" fill="none" fill-rule="evenodd">
        <path d="M50,24.999 C50,38.833 38.833,50 24.999,50 C11.168,50 0,38.833 0,24.999 C0,11.168 11.168,0 24.999,0 C38.832,-7.10542736e-15 50,11.168 50,24.999 L50,24.999 Z M9.491,38.889 C13.888,32.174 19.444,27.603 26.041,25.287 C26.446,25.114 26.851,24.998 27.256,24.883 C26.794,23.783 26.273,22.625 25.752,21.528 C19.849,23.263 12.79,24.246 4.166,24.362 L4.166,24.999 C4.165,30.322 6.192,35.186 9.491,38.889 L9.491,38.889 Z M4.63,20.543 C12.326,20.37 18.691,19.56 23.958,18.056 C21.817,14.178 19.155,10.185 15.914,6.249 C10.242,8.97 6.017,14.236 4.63,20.543 L4.63,20.543 Z M32.811,44.327 C32.058,39.639 30.786,34.258 28.702,28.471 C22.799,30.148 17.071,34.087 12.325,41.551 C15.797,44.213 20.196,45.833 24.998,45.833 C27.777,45.833 30.438,45.311 32.811,44.327 L32.811,44.327 Z M20.196,4.745 C23.379,8.681 25.925,12.73 28.065,16.666 C32.462,14.872 35.934,12.442 38.652,9.259 C35.01,6.077 30.205,4.165 24.998,4.165 C23.32,4.165 21.759,4.341 20.196,4.745 L20.196,4.745 Z M29.801,20.022 C30.381,21.352 30.959,22.626 31.48,23.9 C35.991,23.204 40.794,23.436 45.832,24.594 C45.718,19.848 44.038,15.508 41.315,12.035 C38.311,15.451 34.49,18.113 29.801,20.022 L29.801,20.022 Z M45.539,28.414 C41.664,27.486 37.326,27.021 32.927,27.543 C34.836,32.81 35.991,37.791 36.805,42.187 C41.376,39.004 44.615,34.144 45.539,28.414 L45.539,28.414 Z" id="dribbble" fill="#282829"></path>
    </g>
</svg>