<?xml version="1.0" encoding="UTF-8"?>
<svg width="28px" height="50px" viewBox="0 0 28 50" version="1.1" xmlns="http://www.w3.org/2000/svg" xmlns:xlink="http://www.w3.org/1999/xlink">
    <!-- Generator: Sketch 40.1 (33804) - http://www.bohemiancoding.com/sketch -->
    <title>github</title>
    <desc>Created with Sketch.</desc>
    <defs></defs>
    <g id="Welcome" stroke="none" stroke-width="1" fill="none" fill-rule="evenodd">
        <path d="M27.084,7.291 L22.973,7.291 C23.608,8.736 23.957,10.417 23.957,12.269 C23.957,19.156 19.041,23.727 12.96,23.959 C11.169,26.796 11.633,28.473 14.234,30.211 C21.41,30.5 27.084,34.663 27.084,40.106 C27.084,45.893 21.002,50.001 13.538,50.001 C6.073,50.001 0,45.837 0,40.106 C0,36.402 2.545,33.337 6.424,31.656 C2.777,28.07 4.047,24.48 6.594,22.396 C3.24,20.488 1.043,16.902 1.043,12.27 C1.043,5.208 6.188,0.521 12.496,0.521 C14.816,0.521 16.957,1.158 18.748,2.257 C24.942,1.852 27.084,0 27.084,0 L27.084,7.291 L27.084,7.291 Z M7.29,40.105 C7.29,42.131 9.721,43.751 13.538,43.751 C17.359,43.751 19.789,42.131 19.789,40.105 C19.789,38.082 17.359,36.461 13.538,36.461 C9.721,36.461 7.29,38.081 7.29,40.105 L7.29,40.105 Z M16.664,11.98 C16.664,8.333 14.816,6.249 12.496,6.249 C10.184,6.249 8.332,8.333 8.332,11.98 C8.332,15.623 10.184,17.707 12.496,17.707 C14.817,17.706 16.664,15.622 16.664,11.98 L16.664,11.98 Z" id="github" fill="#282829"></path>
    </g>
</svg>