<?xml version="1.0" encoding="UTF-8"?>
<svg width="51px" height="41px" viewBox="0 0 51 41" version="1.1" xmlns="http://www.w3.org/2000/svg" xmlns:xlink="http://www.w3.org/1999/xlink">
    <!-- Generator: Sketch 40.1 (33804) - http://www.bohemiancoding.com/sketch -->
    <title>twitter</title>
    <desc>Created with Sketch.</desc>
    <defs></defs>
    <g id="Welcome" stroke="none" stroke-width="1" fill="none" fill-rule="evenodd">
        <path d="M45.71175,10.127 L45.71175,11.458 C45.71175,25.001 35.41275,40.626 16.54575,40.626 C10.75775,40.626 5.31875,39.352 0.80475,36.458 C1.61475,36.572 2.42475,36.629 3.23475,36.629 C8.03975,36.629 12.49375,34.55 15.96775,31.772 C11.51075,31.713 7.69175,28.706 6.41775,24.654 C7.05475,24.77 7.69175,24.827 8.32875,24.827 C9.25475,24.827 10.18075,24.711 11.04775,24.481 C6.36075,23.555 2.83075,19.387 2.83075,14.41 L2.83075,14.296 C4.22075,15.047 5.78375,15.511 7.45975,15.568 C4.68175,13.716 2.88975,10.592 2.88975,7.062 C2.88975,5.151 3.41075,3.59 4.27775,2.084 C9.37175,8.276 16.89475,12.153 25.40175,12.617 C25.22875,11.864 25.16975,11.054 25.16975,10.244 C25.16975,4.573 29.74175,0 35.41375,0 C38.36475,0 41.02575,1.274 42.93675,3.242 C45.24975,2.78 47.45075,1.911 49.41575,0.753 C48.66575,3.126 47.04575,5.151 44.90275,6.425 C46.98575,6.193 48.95475,5.615 50.80575,4.805 C49.41475,6.887 47.67975,8.68 45.71175,10.127 L45.71175,10.127 Z" id="twitter" fill="#282829"></path>
    </g>
</svg>