<?xml version="1.0" encoding="UTF-8" standalone="no"?>
<svg width="600px" height="340px" viewBox="0 0 600 340" version="1.1" xmlns="http://www.w3.org/2000/svg" xmlns:xlink="http://www.w3.org/1999/xlink" xmlns:sketch="http://www.bohemiancoding.com/sketch/ns">
    <!-- Generator: Sketch 3.4 (15588) - http://www.bohemiancoding.com/sketch -->
    <title>Artboard 2</title>
    <desc>Created with Sketch.</desc>
    <defs></defs>
    <g id="Dashboard" stroke="none" stroke-width="1" fill="none" fill-rule="evenodd" sketch:type="MSPage">
        <g id="Artboard-2" sketch:type="MSArtboardGroup" fill="#FFFFFF">
            <path d="M233,233.769231 L367.615385,233.769231 L367.615385,258 L233,258 L233,233.769231 Z M360.607852,113.917266 L344.500922,129.284592 L341.724384,131.933635 L339.084415,129.148468 C328.821291,118.320873 317.47883,113.002519 304.880312,113.002519 C294.323261,113.002519 285.558657,116.552738 278.365965,123.720542 C271.176566,130.885064 267.616228,139.631916 267.616228,150.184425 C267.616228,157.601027 269.211147,164.105306 272.385969,169.760457 C275.543244,175.384355 279.988057,179.780054 285.782463,182.999168 C291.613979,186.238899 298.095985,187.859401 305.291203,187.859401 C311.446197,187.859401 317.019264,186.722295 322.045855,184.45784 C327.108694,182.177057 332.837128,177.906535 339.167055,171.628921 L341.928047,168.890748 L344.620388,171.69645 L360.234249,187.967737 L362.861006,190.705094 L360.145263,193.354193 C350.89957,202.372998 342.085927,208.682765 333.657029,212.25778 C325.218909,215.836707 315.645864,217.615385 304.96249,217.615385 C285.1881,217.615385 268.830973,211.279365 256.120935,198.627496 C243.408366,185.973109 237.038462,169.720377 237.038462,150.102247 C237.038462,137.391382 239.933095,126.016492 245.734141,116.046855 C251.535805,106.076156 259.842499,98.060925 270.590445,92.0351221 C281.32554,86.0165245 292.913055,83 305.291203,83 C315.81337,83 325.956357,85.2282738 335.68447,89.6737616 C345.42061,94.1229177 353.825179,100.458892 360.868725,108.657118 L363.234738,111.411002 L360.607852,113.917266 Z" id="Path-Copy" sketch:type="MSShapeGroup"></path>
        </g>
    </g>
</svg>