<?xml version="1.0" encoding="utf-8"?>
<!-- Generator: Adobe Illustrator 15.0.2, SVG Export Plug-In . SVG Version: 6.00 Build 0)  -->
<!DOCTYPE svg PUBLIC "-//W3C//DTD SVG 1.1//EN" "http://www.w3.org/Graphics/SVG/1.1/DTD/svg11.dtd">
<svg version="1.1" id="Layer_1" xmlns="http://www.w3.org/2000/svg" xmlns:xlink="http://www.w3.org/1999/xlink" x="0px" y="0px"
	 width="300px" height="300px" viewBox="0 0 300 300" enable-background="new 0 0 300 300" xml:space="preserve">
<g>
	<g>
		<path fill="#FFFFFF" d="M19.529,160.333l-2.048-5.089H6.528l-2.048,5.089H2.432l8.472-20.697h2.202l8.472,20.697H19.529z
			 M11.989,141.529l-4.871,12.102h9.773L11.989,141.529z"/>
		<path fill="#FFFFFF" d="M45.623,160.333l-13.032-17.779v17.779h-1.769v-20.697h1.8l12.97,17.532v-17.532h1.769v20.697H45.623z"/>
		<path fill="#FFFFFF" d="M73.702,160.333l-2.048-5.089H60.701l-2.047,5.089h-2.049l8.472-20.697h2.204l8.472,20.697H73.702z
			 M66.163,141.529l-4.872,12.102h9.774L66.163,141.529z"/>
		<path fill="#FFFFFF" d="M84.996,160.333v-20.697h1.769v19.084h10.022v1.613H84.996z"/>
		<path fill="#FFFFFF" d="M109.167,160.333v-8.844l-8.223-11.854h2.141l6.982,10.178l6.981-10.178h2.141l-8.222,11.854v8.844
			H109.167z"/>
		<path fill="#FFFFFF" d="M133.71,160.333v-19.082h-6.764v-1.615h15.328v1.615h-6.765v19.082H133.71z"/>
		<path fill="#FFFFFF" d="M152.141,160.333v-20.697h1.77v20.697H152.141z"/>
		<path fill="#FFFFFF" d="M164.49,150c0-6.36,4.622-10.706,10.488-10.706c3.289,0,5.771,1.46,7.54,3.663l-1.489,0.962
			c-1.306-1.801-3.57-3.011-6.051-3.011c-4.873,0-8.628,3.693-8.628,9.092c0,5.338,3.755,9.093,8.628,9.093
			c2.48,0,4.745-1.212,6.051-3.011l1.489,0.931c-1.832,2.265-4.251,3.693-7.54,3.693C169.112,160.706,164.49,156.361,164.49,150z"/>
		<path fill="#FFFFFF" d="M205.414,157.417l1.147-1.335c1.336,1.553,3.506,3.011,6.454,3.011c4.252,0,5.463-2.358,5.463-4.127
			c0-6.082-12.413-2.917-12.413-10.147c0-3.382,3.04-5.524,6.796-5.524c3.103,0,5.399,1.087,7.011,2.918l-1.178,1.302
			c-1.489-1.798-3.6-2.605-5.927-2.605c-2.76,0-4.838,1.584-4.838,3.817c0,5.306,12.41,2.389,12.41,10.115
			c0,2.667-1.77,5.865-7.354,5.865C209.572,160.706,206.995,159.34,205.414,157.417z"/>
		<path fill="#FFFFFF" d="M230.796,160.333v-20.697h7.756c3.973,0,6.238,2.793,6.238,6.05c0,3.26-2.296,6.054-6.238,6.054h-5.988
			v8.594H230.796z M242.928,145.686c0-2.605-1.831-4.435-4.561-4.435h-5.804v8.872h5.804
			C241.097,150.123,242.928,148.293,242.928,145.686z"/>
		<path fill="#FFFFFF" d="M289.004,160.333v-19.082h-6.764v-1.615h15.328v1.615h-6.765v19.082H289.004z"/>
	</g>
	<circle fill="#FFFFFF" cx="263.911" cy="149.684" r="10.164"/>
</g>
</svg>
