<?xml version="1.0" encoding="UTF-8"?>
<svg width="251px" height="49px" viewBox="0 0 251 49" version="1.1" xmlns="http://www.w3.org/2000/svg" xmlns:xlink="http://www.w3.org/1999/xlink">
    <!-- Generator: Sketch 51.3 (57544) - http://www.bohemiancoding.com/sketch -->
    <title>american-press-institute-black copy</title>
    <desc>Created with Sketch.</desc>
    <defs></defs>
    <g id="design" stroke="none" stroke-width="1" fill="none" fill-rule="evenodd">
        <g id="american-press-institute-black-copy" fill="#1F201C">
            <path d="M11.7858599,11.8542042 L9.2769043,4.54664789 L6.74392788,11.8542042 L11.7858599,11.8542042 Z M7.54114008,0.733964789 L11.2413883,0.733964789 L18.4472816,19.5561761 L14.459828,19.5561761 L12.80657,14.7862676 L5.74863107,14.7862676 L4.0967656,19.5561761 L0.339772538,19.5561761 L7.54114008,0.733964789 Z" id="Fill-4"></path>
            <polyline id="Fill-5" points="22.6321234 0.733964789 25.9884216 0.733964789 32.1394882 9.62780986 38.0600943 0.733964789 41.5639986 0.733964789 41.5639986 19.5561761 38.0600943 19.5561761 38.0600943 6.51941549 32.8799556 14.1989577 31.2012843 14.1989577 25.9884216 6.72024648 25.9884216 19.5561761 22.6321234 19.5561761 22.6321234 0.733964789"></polyline>
            <polyline id="Fill-6" points="47.5973981 0.733964789 59.8977906 0.733964789 59.8977906 3.86720423 51.1879861 3.86720423 51.1879861 8.29652817 57.5917933 8.29652817 57.5917933 11.4587535 51.1879861 11.4587535 51.1879861 16.3725563 60.5515742 16.3725563 60.5515742 19.5561761 47.5973981 19.5561761 47.5973981 0.733964789"></polyline>
            <path d="M72.9362136,9.20130282 C73.8514411,9.20130282 74.5553551,8.93801408 75.0590957,8.41385211 C75.5628363,7.88451408 75.8131401,7.24406338 75.8131401,6.49491549 C75.8131401,5.68123944 75.5492594,5.02629577 75.0183648,4.51697183 C74.4850333,4.00971831 73.7943481,3.75505634 72.9362136,3.75505634 L70.0631165,3.75505634 L70.0631165,9.20130282 L72.9362136,9.20130282 Z M66.615957,0.733964789 L72.9104521,0.733964789 C74.1045298,0.733964789 75.1228031,0.913056338 75.9565687,1.27192958 C76.7906824,1.62735211 77.4650055,2.08422535 77.9795381,2.63944366 C78.4898932,3.19397183 78.8634341,3.8009507 79.103294,4.45934507 C79.3400208,5.11566901 79.4580361,5.74921831 79.4580361,6.35274648 C79.4580361,7.53702817 79.1965922,8.58569718 78.6768377,9.49564789 C78.1529057,10.4100845 77.3511678,11.1412887 76.2709279,11.6833944 L80.6548988,19.5561761 L76.6107004,19.5561761 L72.7694605,12.1381972 L70.0631165,12.1381972 L70.0631165,19.5561761 L66.615957,19.5561761 L66.615957,0.733964789 Z" id="Fill-7"></path>
            <polygon id="Fill-8" points="86.147656 19.5561761 89.7358072 19.5561761 89.7358072 0.733964789 86.147656 0.733964789"></polygon>
            <path d="M113.279329,16.1172042 C112.996301,16.5457817 112.602221,16.9895423 112.09848,17.4405493 C111.597524,17.8939718 111.00327,18.3090915 110.319548,18.6962606 C109.635825,19.0848099 108.888395,19.3974437 108.070644,19.6424437 C107.252892,19.8867535 106.391624,20.0092535 105.480574,20.0092535 C104.056036,20.0092535 102.757868,19.7659789 101.579804,19.2749437 C100.404526,18.7852887 99.3862524,18.1041197 98.5319473,17.2338521 C97.6818197,16.3542676 97.0144591,15.3259577 96.5406574,14.1396056 C96.0665076,12.9560141 95.8297809,11.6585493 95.8297809,10.2451408 C95.8297809,8.87176056 96.0665076,7.58154225 96.5406574,6.37793662 C97.0144591,5.17674648 97.6818197,4.12117606 98.5497018,3.22054225 C99.4109695,2.31369718 100.441079,1.59940141 101.639334,1.0721338 C102.834804,0.545901408 104.152119,0.282957746 105.594064,0.282957746 C106.525653,0.282957746 107.376129,0.381992958 108.157327,0.582133803 C108.934348,0.777443662 109.64244,1.04694366 110.276032,1.38442254 C110.913802,1.72121127 111.477072,2.12183803 111.971065,2.58216197 C112.465406,3.04317606 112.898825,3.53800704 113.279329,4.06216901 L110.747397,6.29373944 C110.139566,5.42830282 109.431126,4.7319507 108.626951,4.2046831 C107.819992,3.6784507 106.808681,3.41688732 105.594064,3.41688732 C104.662822,3.41688732 103.828709,3.59908451 103.088241,3.96969014 C102.347426,4.33235915 101.716619,4.82442958 101.195123,5.43140845 C100.67154,6.04494366 100.274674,6.75992958 100.001046,7.58154225 C99.7235881,8.39866901 99.5867739,9.2575493 99.5867739,10.1619789 C99.5867739,11.0615775 99.7235881,11.9135563 100.001046,12.701007 C100.274674,13.489838 100.668755,14.1772183 101.181895,14.7621127 C101.693642,15.3456268 102.306695,15.8035352 103.017571,16.1427394 C103.728448,16.4798732 104.530186,16.6520634 105.423481,16.6520634 C106.238796,16.6520634 106.936096,16.5547535 107.516773,16.3725563 C108.09362,16.1855282 108.587613,15.9457042 108.998055,15.6679225 C109.405713,15.3832394 109.745485,15.0840634 110.018766,14.7762606 C110.296571,14.4636268 110.54966,14.1989577 110.776988,13.9691408 L113.279329,16.1172042" id="Fill-9"></path>
            <path d="M128.513393,11.8542042 L126.00757,4.54664789 L123.47146,11.8542042 L128.513393,11.8542042 Z M124.271806,0.733964789 L127.969269,0.733964789 L135.174814,19.5561761 L131.190494,19.5561761 L129.538628,14.7862676 L122.476512,14.7862676 L120.824646,19.5561761 L117.067305,19.5561761 L124.271806,0.733964789 Z" id="Fill-10"></path>
            <polyline id="Fill-11" points="140.157216 0.733964789 143.774958 0.733964789 152.968312 14.1113099 152.968312 0.733964789 156.469431 0.733964789 156.469431 19.5561761 152.942551 19.5561761 143.657291 6.01078169 143.657291 19.5561761 140.157216 19.5561761 140.157216 0.733964789"></polyline>
            <path d="M169.341449,9.56845775 C170.248322,9.56845775 170.97556,9.30516901 171.519684,8.77583099 C172.057193,8.24925352 172.328036,7.56394366 172.328036,6.72024648 C172.328036,5.83169014 172.043616,5.11221831 171.476516,4.55665493 C170.906631,4.00247183 170.195755,3.72503521 169.341449,3.72503521 L166.747202,3.72503521 L166.747202,9.56845775 L169.341449,9.56845775 Z M163.304221,0.733964789 L169.398194,0.733964789 C170.724908,0.733964789 171.811067,0.936176056 172.65458,1.34025352 C173.501922,1.74674648 174.169631,2.24606338 174.663624,2.83820423 C175.157965,3.43034507 175.497738,4.06216901 175.688512,4.74195775 C175.878241,5.42002113 175.97154,6.03700704 175.97154,6.60257746 C175.97154,7.65607746 175.78181,8.56085211 175.404092,9.31379577 C175.023936,10.0657042 174.529595,10.6840704 173.923157,11.1644085 C173.314978,11.6437113 172.631255,11.9960282 171.873381,12.2213592 C171.116552,12.446 170.364945,12.558493 169.624477,12.558493 L166.747202,12.558493 L166.747202,19.5561761 L163.304221,19.5561761 L163.304221,0.733964789 Z" id="Fill-12"></path>
            <path d="M188.355831,9.20130282 C189.267229,9.20130282 189.978105,8.93801408 190.479061,8.41385211 C190.982454,7.88451408 191.233105,7.24406338 191.233105,6.49491549 C191.233105,5.68123944 190.968877,5.02629577 190.435545,4.51697183 C189.904999,4.00971831 189.214313,3.75505634 188.355831,3.75505634 L185.483082,3.75505634 L185.483082,9.20130282 L188.355831,9.20130282 Z M182.035922,0.733964789 L188.329025,0.733964789 C189.524495,0.733964789 190.54242,0.913056338 191.376534,1.27192958 C192.210648,1.62735211 192.884971,2.08422535 193.395326,2.63944366 C193.908466,3.19397183 194.283399,3.8009507 194.523259,4.45934507 C194.759986,5.11566901 194.876609,5.74921831 194.876609,6.35274648 C194.876609,7.53702817 194.616558,8.58569718 194.096455,9.49564789 C193.572523,10.4100845 192.771133,11.1412887 191.689501,11.6833944 L196.074864,19.5561761 L192.030666,19.5561761 L188.185248,12.1381972 L185.483082,12.1381972 L185.483082,19.5561761 L182.035922,19.5561761 L182.035922,0.733964789 Z" id="Fill-13"></path>
            <polyline id="Fill-14" points="200.28686 0.733964789 212.587252 0.733964789 212.587252 3.86720423 203.87327 3.86720423 203.87327 8.29652817 210.281603 8.29652817 210.281603 11.4587535 203.87327 11.4587535 203.87327 16.3725563 213.241036 16.3725563 213.241036 19.5561761 200.28686 19.5561761 200.28686 0.733964789"></polyline>
            <path d="M220.13257,14.254169 C220.360245,14.5150423 220.629696,14.793169 220.943707,15.0840634 C221.257718,15.376338 221.607239,15.6479085 221.994356,15.9025704 C222.385652,16.1558521 222.8229,16.3725563 223.306449,16.5378451 C223.78965,16.7100352 224.334122,16.792507 224.941953,16.792507 C226.062924,16.792507 226.894252,16.5378451 227.434546,16.0299014 C227.974492,15.5205775 228.245336,14.9118732 228.245336,14.1989577 C228.245336,13.8024718 228.168399,13.4449789 228.018008,13.142007 C227.864832,12.828338 227.607566,12.5550423 227.250387,12.3169437 C226.887638,12.0854014 226.420451,11.8718028 225.839426,11.6833944 C225.261534,11.4963662 224.543695,11.3162394 223.68939,11.1492254 C222.816286,10.9794507 222.064678,10.7144366 221.424472,10.3569437 C220.789487,9.99979577 220.26277,9.57639437 219.845713,9.08846479 C219.428656,8.59915493 219.114645,8.06153521 218.907509,7.46594366 C218.697588,6.87242254 218.594542,6.26544366 218.594542,5.64500704 C218.594542,4.9303662 218.727179,4.2478169 218.991408,3.59908451 C219.258074,2.95069718 219.665731,2.37511972 220.216469,1.87890845 C220.76651,1.37959155 221.456847,0.979309859 222.281562,0.679788732 C223.105928,0.377507042 224.076856,0.230161972 225.199219,0.230161972 C226.206352,0.230161972 227.070405,0.339204225 227.792074,0.564190141 C228.51235,0.79228169 229.113218,1.05384507 229.596767,1.35474648 C230.081361,1.65737324 230.457687,1.95206338 230.721915,2.24606338 C230.988581,2.53937324 231.177963,2.7474507 231.2918,2.88306338 L228.929058,5.08150704 C228.832975,5.00490141 228.682932,4.86928873 228.471619,4.67432394 C228.265875,4.47280282 228.001646,4.28025352 227.691813,4.09253521 C227.377454,3.9048169 226.999735,3.73469718 226.566664,3.58735211 C226.129416,3.43690141 225.635075,3.35788028 225.085381,3.35788028 C224.591388,3.35788028 224.163191,3.42551408 223.803227,3.55767606 C223.442915,3.68845775 223.146659,3.85719718 222.905406,4.06216901 C222.66868,4.2723169 222.495312,4.5021338 222.381474,4.7564507 C222.2652,5.01145775 222.208455,5.25128169 222.208455,5.47626761 C222.208455,5.81409155 222.267985,6.11637324 222.392266,6.37793662 C222.518288,6.64226056 222.725424,6.88760563 223.022029,7.11224648 C223.315849,7.33688732 223.716544,7.54220423 224.231076,7.71922535 C224.744216,7.89900704 225.388601,8.06153521 226.165969,8.21302113 C226.906437,8.36071127 227.617313,8.58880282 228.302429,8.89315493 C228.986151,9.19267606 229.589804,9.5829507 230.1113,10.0625986 C230.631054,10.5419014 231.048111,11.1261056 231.362122,11.8107254 C231.676481,12.4974155 231.833487,13.3224789 231.833487,14.2821197 C231.833487,15.1089085 231.662904,15.8708239 231.318954,16.5682113 C230.979182,17.2638732 230.505032,17.8743028 229.897201,18.4032958 C229.286585,18.9278028 228.569094,19.3398169 227.731151,19.6272606 C226.897037,19.9202254 225.985639,20.0672254 224.998698,20.0672254 C224.051094,20.0672254 223.192612,19.9554225 222.422205,19.7300915 C221.654584,19.5044155 220.960069,19.2155915 220.346669,18.8687958 C219.72909,18.5188944 219.194366,18.1372465 218.747718,17.723507 C218.303508,17.3101127 217.929967,16.915007 217.626748,16.5378451 L220.13257,14.254169" id="Fill-15"></path>
            <path d="M239.290728,14.254169 C239.518404,14.5150423 239.789247,14.793169 240.101865,15.0840634 C240.415877,15.376338 240.766789,15.6479085 241.156692,15.9025704 C241.54381,16.1558521 241.981058,16.3725563 242.464607,16.5378451 C242.949201,16.7100352 243.49611,16.792507 244.10394,16.792507 C245.221082,16.792507 246.052411,16.5378451 246.592705,16.0299014 C247.134043,15.5205775 247.407671,14.9118732 247.407671,14.1989577 C247.407671,13.8024718 247.330387,13.4449789 247.177559,13.142007 C247.027168,12.828338 246.769902,12.5550423 246.409938,12.3169437 C246.049626,12.0854014 245.578609,11.8718028 245.001761,11.6833944 C244.421085,11.4963662 243.703245,11.3162394 242.84894,11.1492254 C241.978273,10.9794507 241.222836,10.7144366 240.586459,10.3569437 C239.951474,9.99979577 239.424757,9.57639437 239.003871,9.08846479 C238.590992,8.59915493 238.276632,8.06153521 238.066712,7.46594366 C237.857139,6.87242254 237.7527,6.26544366 237.7527,5.64500704 C237.7527,4.9303662 237.88673,4.2478169 238.153395,3.59908451 C238.417624,2.95069718 238.823541,2.37511972 239.374975,1.87890845 C239.925713,1.37959155 240.616398,0.979309859 241.440764,0.679788732 C242.268264,0.377507042 243.238843,0.230161972 244.359814,0.230161972 C245.36451,0.230161972 246.229607,0.339204225 246.949883,0.564190141 C247.670508,0.79228169 248.275553,1.05384507 248.758755,1.35474648 C249.242304,1.65737324 249.615845,1.95206338 249.883903,2.24606338 C250.146739,2.53937324 250.337513,2.7474507 250.454136,2.88306338 L248.088609,5.08150704 C247.995311,5.00490141 247.840742,4.86928873 247.633606,4.67432394 C247.424033,4.47280282 247.163982,4.28025352 246.849971,4.09253521 C246.535612,3.9048169 246.162071,3.73469718 245.726215,3.58735211 C245.291404,3.43690141 244.797411,3.35788028 244.247717,3.35788028 C243.753376,3.35788028 243.325527,3.42551408 242.965215,3.55767606 C242.605251,3.68845775 242.304817,3.85719718 242.067742,4.06216901 C241.830667,4.2723169 241.65347,4.5021338 241.541025,4.7564507 C241.427187,5.01145775 241.366265,5.25128169 241.366265,5.47626761 C241.366265,5.81409155 241.429972,6.11637324 241.554602,6.37793662 C241.677839,6.64226056 241.88776,6.88760563 242.18158,7.11224648 C242.475399,7.33688732 242.878879,7.54220423 243.389234,7.71922535 C243.903767,7.89900704 244.546759,8.06153521 245.327957,8.21302113 C246.068773,8.36071127 246.779301,8.58880282 247.464416,8.89315493 C248.145702,9.19267606 248.749355,9.5829507 249.269458,10.0625986 C249.79339,10.5419014 250.210447,11.1261056 250.524458,11.8107254 C250.838469,12.4974155 250.991645,13.3224789 250.991645,14.2821197 C250.991645,15.1089085 250.821062,15.8708239 250.480942,16.5682113 C250.136992,17.2638732 249.66319,17.8743028 249.055359,18.4032958 C248.448921,18.9278028 247.727252,19.3398169 246.893139,19.6272606 C246.05624,19.9202254 245.147975,20.0672254 244.161033,20.0672254 C243.209252,20.0672254 242.352162,19.9554225 241.584541,19.7300915 C240.812742,19.5044155 240.122057,19.2155915 239.504827,18.8687958 C238.887248,18.5188944 238.356702,18.1372465 237.909706,17.723507 C237.465843,17.3101127 237.089517,16.915007 236.788735,16.5378451 L239.290728,14.254169" id="Fill-16"></path>
            <path d="M73.2000943,33.7440915 C72.9226366,33.4725211 72.7858225,33.1519507 72.7858225,32.7696127 C72.7858225,32.379338 72.9226366,32.0504859 73.2000943,31.7785704 C73.4737226,31.5059648 73.8079251,31.3703521 74.1953911,31.3703521 C74.5811165,31.3703521 74.918104,31.5059648 75.1959098,31.7785704 C75.4761526,32.0504859 75.6167961,32.379338 75.6167961,32.7696127 C75.6167961,33.1550563 75.4761526,33.4842535 75.1959098,33.7503028 C74.918104,34.0153169 74.5811165,34.1488592 74.1953911,34.1488592 C73.8079251,34.1488592 73.4737226,34.0153169 73.2000943,33.7440915 Z M74.5417781,36.9208099 C74.5919085,36.9504859 74.6148849,36.9884437 74.6054854,37.0284718 L71.7351734,46.0851901 C71.6011442,46.564838 71.5346519,46.8529718 71.5346519,46.9454507 C71.5346519,47.0727817 71.5645908,47.1825141 71.6213356,47.2780986 C71.668681,47.3767887 71.7877406,47.4282042 71.9746852,47.4282042 C72.2998363,47.4282042 72.7262926,47.1807887 73.2568391,46.6807817 C73.5711983,46.3847113 73.9513537,45.9595845 74.407749,45.4105775 L74.778853,45.6883592 L74.6354244,45.868831 C73.9245479,46.7553169 73.3369085,47.3968028 72.8738988,47.7822465 C72.1428308,48.3944014 71.4319542,48.6949577 70.7398766,48.6949577 C70.3339598,48.6949577 69.9924466,48.5424366 69.7229958,48.2391197 C69.4525007,47.9344225 69.3184716,47.5772746 69.3184716,47.1604296 C69.3184716,46.9171549 69.3358779,46.7025211 69.3752164,46.5220493 C69.4131623,46.3398521 69.4862691,46.0703521 69.5893148,45.7149296 L71.6119362,39.1982746 C71.6418752,39.0961338 71.6620666,39.0033099 71.682258,38.9170423 C71.701405,38.8328451 71.7121969,38.7486479 71.7121969,38.665831 C71.7121969,38.3600986 71.5847822,38.1730704 71.3344785,38.0995704 C71.0838266,38.0271056 70.5912261,37.9929437 69.8531956,37.9929437 L69.8531956,37.5726479 C70.6302164,37.489831 71.1948793,37.4218521 71.5346519,37.377338 C71.8786019,37.3328239 72.225337,37.2814085 72.5759015,37.230338 C73.0225492,37.1627042 73.4531831,37.0843732 73.8580555,37.0036268 C74.2615354,36.9208099 74.4878183,36.8914789 74.5417781,36.9208099 Z" id="Fill-17"></path>
            <path d="M79.463258,48.4171761 L81.9004993,40.5795915 C82.1076352,39.9177465 82.2266949,39.5143592 82.2632483,39.3735704 C82.2945798,39.2331268 82.3105936,39.0840563 82.3105936,38.920493 C82.3105936,38.6741127 82.2336574,38.4822535 82.0763037,38.3418099 C81.9206907,38.2027465 81.613294,38.1344225 81.1600319,38.1344225 C81.0461942,38.1344225 80.9351415,38.136493 80.8254813,38.1482254 C80.7158211,38.1644437 80.5953689,38.1796268 80.4613398,38.1944648 L80.4613398,37.7758944 C81.075785,37.6916972 81.5092039,37.632 81.7702996,37.5874859 C82.0265215,37.5446972 82.3078086,37.4932817 82.6071983,37.4339296 L85.1377379,36.9390986 C85.1903051,36.9736056 85.2310361,37.0105282 85.2501831,37.0550423 L83.3654202,42.5064648 C84.5299071,40.925007 85.5004868,39.7507324 86.2858627,38.9812254 C87.6599223,37.6206127 88.8881165,36.9390986 89.9791484,36.9390986 C90.3962053,36.9390986 90.7606949,37.0105282 91.0677434,37.1523521 C91.6473759,37.4339296 91.9384105,37.9398028 91.9384105,38.665831 C91.9384105,38.8690775 91.9154341,39.0799155 91.8680888,39.2976549 C91.8179584,39.5209155 91.754251,39.7541831 91.6811442,40.0088451 L89.8127434,46.0851901 C89.7723606,46.2125211 89.7288447,46.3629718 89.6828918,46.5455141 C89.6355465,46.7304718 89.61257,46.8574577 89.61257,46.9337183 C89.61257,47.059669 89.6463384,47.1718169 89.7124827,47.2780986 C89.77619,47.3767887 89.8834133,47.4282042 90.0292788,47.4282042 C90.2663537,47.4282042 90.5371969,47.299493 90.8473786,47.04 C91.1544272,46.7832676 91.6609528,46.2308099 92.3582524,45.3891831 L92.7725243,45.7149296 C92.0090804,46.6542113 91.4050791,47.3108803 90.9570388,47.6956338 C90.1960319,48.3643803 89.4687933,48.6949577 88.7714938,48.6949577 C88.4546976,48.6949577 88.150086,48.6007535 87.8562663,48.4113099 C87.5638391,48.2187606 87.416233,47.8764507 87.416233,47.3767887 C87.416233,47.2328944 87.42981,47.0827887 87.4527864,46.9188803 C87.4757628,46.7601479 87.5070943,46.6200493 87.5464327,46.5051408 L89.3591331,40.336662 C89.4527795,40.0002183 89.5150943,39.724162 89.5526921,39.5074577 C89.5854161,39.2914437 89.5989931,39.1389225 89.5989931,39.0443732 C89.5989931,38.8404366 89.5460777,38.665831 89.435025,38.5191761 C89.3253648,38.3714859 89.1318058,38.2952254 88.8543481,38.2952254 C88.1340721,38.2952254 87.2268516,38.871493 86.1354716,40.018507 C85.4910874,40.7048521 84.8373037,41.5216338 84.1762094,42.4629859 C83.6794313,43.2010915 83.2923135,43.9153873 83.0051082,44.6165704 C82.7210361,45.3094718 82.2674258,46.5796761 81.6498474,48.4171761 L79.463258,48.4171761" id="Fill-18"></path>
            <path d="M97.4450929,44.6400352 L97.9147171,44.6400352 C98.121853,45.6600634 98.3697198,46.4092113 98.6527476,46.8823028 C99.1766796,47.7522254 99.9537004,48.1890845 100.985551,48.1890845 C101.56205,48.1890845 102.049777,48.0068873 102.443509,47.6449085 C102.837589,47.2798239 103.033933,46.7981056 103.033933,46.1980282 C103.033933,45.8260423 102.981018,45.5196197 102.883542,45.2846268 C102.784674,45.0465282 102.657607,44.8318944 102.507216,44.6400352 L101.325323,43.0782465 C100.614447,42.1313732 100.171628,41.4988592 99.9916463,41.1731127 C99.7169736,40.6934648 99.5773745,40.2103662 99.5773745,39.7310634 C99.5773745,38.9915775 99.8739792,38.3452606 100.468233,37.7821056 C101.058657,37.220331 101.899386,36.9390986 102.990766,36.9390986 C103.455168,36.9390986 103.985714,37.0167394 104.582753,37.1754718 C105.179792,37.3328239 105.587449,37.4087394 105.803985,37.4087394 C106.04106,37.4087394 106.218257,37.3656056 106.332094,37.2814085 C106.44454,37.1972113 106.54863,37.0812676 106.645061,36.9390986 L107.055155,36.9390986 L106.475523,40.5395634 L106.004506,40.5395634 C105.881269,39.7210563 105.694325,39.1023451 105.450635,38.6889507 C104.997025,37.9197887 104.275356,37.534 103.288415,37.534 C102.871358,37.534 102.500602,37.6502887 102.173014,37.8832113 C101.84647,38.1164789 101.68285,38.4574085 101.68285,38.9056549 C101.68285,39.2510704 101.755957,39.5592183 101.903563,39.8187113 C102.049777,40.0833803 102.383979,40.5430141 102.904082,41.2145211 L103.915393,42.5064648 C104.43654,43.1776268 104.806251,43.7200775 105.022786,44.1452042 C105.240714,44.5637746 105.350723,45.0220282 105.350723,45.5165141 C105.350723,46.4257746 104.913126,47.197007 104.042459,47.819169 C103.170748,48.4454718 102.133675,48.7619014 100.928458,48.7619014 C100.538555,48.7619014 99.9850319,48.6870211 99.2671928,48.5424366 C98.5455243,48.4009577 98.1288155,48.3281479 98.0149778,48.3281479 C97.8252483,48.3281479 97.6846047,48.3664507 97.5951359,48.4420211 C97.5046227,48.5165563 97.4217684,48.6345704 97.3472691,48.784331 L96.8776449,48.784331 L97.4450929,44.6400352" id="Fill-19"></path>
            <path d="M111.7507,47.3457324 C111.757315,47.2577394 111.777506,47.1652606 111.807445,47.074162 L114.55452,38.2241408 L112.395085,38.2241408 C112.395085,37.9929437 112.412491,37.8504296 112.451829,37.7924577 C112.488383,37.7313803 112.582029,37.6699577 112.739035,37.6126761 C113.700215,37.250007 114.447645,36.8976901 114.974362,36.5557254 C115.504908,36.2161761 116.226577,35.5650282 117.144589,34.5936549 L117.368087,34.3527958 C117.397678,34.3193239 117.434232,34.2927535 117.474963,34.2699789 C117.51813,34.2496197 117.564431,34.2385775 117.611777,34.2385775 C117.705075,34.2582465 117.771567,34.2713592 117.81195,34.2889577 C117.837712,34.3472746 117.855466,34.3986901 117.86208,34.4483803 C117.864865,34.4949648 117.86208,34.5408592 117.851288,34.5936549 L117.017175,37.3580141 L119.359725,37.3580141 L119.190535,38.2241408 L116.736932,38.2241408 L114.117272,46.7449648 C114.071319,46.8957606 114.083503,47.04 114.16044,47.1787183 C114.237724,47.3174366 114.363746,47.3902465 114.545121,47.3902465 C114.787417,47.3902465 115.137982,47.1718169 115.582193,46.7304718 C115.839459,46.4927183 116.270093,46.025838 116.876531,45.3212042 L117.247635,45.5165141 L117.047114,45.7773873 C116.229362,46.8691901 115.511871,47.6286901 114.891508,48.0565775 C114.267315,48.4834296 113.677239,48.6949577 113.116753,48.6949577 C112.631811,48.6949577 112.281247,48.5810845 112.061926,48.3564437 C111.843999,48.1245563 111.734338,47.868169 111.734338,47.5807254 C111.734338,47.5110211 111.740953,47.4351056 111.7507,47.3457324" id="Fill-20"></path>
            <path d="M126.912006,33.7440915 C126.635592,33.4725211 126.497386,33.1519507 126.497386,32.7696127 C126.497386,32.379338 126.635592,32.0504859 126.912006,31.7785704 C127.185286,31.5059648 127.515659,31.3703521 127.906954,31.3703521 C128.294072,31.3703521 128.62723,31.5059648 128.907473,31.7785704 C129.187716,32.0504859 129.328707,32.379338 129.328707,32.7696127 C129.328707,33.1550563 129.187716,33.4842535 128.907473,33.7503028 C128.62723,34.0153169 128.294072,34.1488592 127.906954,34.1488592 C127.515659,34.1488592 127.185286,34.0153169 126.912006,33.7440915 Z M128.253689,36.9208099 C128.30382,36.9504859 128.326796,36.9884437 128.317397,37.0284718 L125.447085,46.0851901 C125.312707,46.564838 125.246563,46.8529718 125.246563,46.9454507 C125.246563,47.0727817 125.276154,47.1825141 125.333247,47.2780986 C125.380592,47.3767887 125.496867,47.4282042 125.687989,47.4282042 C126.011399,47.4282042 126.435419,47.1807887 126.96875,46.6807817 C127.278932,46.3847113 127.663265,45.9595845 128.11966,45.4105775 L128.486587,45.6883592 L128.346988,45.868831 C127.636111,46.7553169 127.048472,47.3968028 126.585462,47.7822465 C125.854394,48.3944014 125.143517,48.6949577 124.449003,48.6949577 C124.041693,48.6949577 123.704358,48.5424366 123.434907,48.2391197 C123.164064,47.9344225 123.031427,47.5772746 123.031427,47.1604296 C123.031427,46.9171549 123.047789,46.7025211 123.087128,46.5220493 C123.125074,46.3398521 123.194003,46.0703521 123.300878,45.7149296 L125.323847,39.1982746 C125.353438,39.0961338 125.37363,39.0033099 125.394169,38.9170423 C125.412968,38.8328451 125.42376,38.7486479 125.42376,38.665831 C125.42376,38.3600986 125.296693,38.1730704 125.046042,38.0995704 C124.795738,38.0271056 124.302789,37.9929437 123.560929,37.9929437 L123.560929,37.5726479 C124.342128,37.489831 124.906791,37.4218521 125.246563,37.377338 C125.59295,37.3328239 125.9369,37.2814085 126.285028,37.230338 C126.73446,37.1627042 127.165094,37.0843732 127.569967,37.0036268 C127.973447,36.9208099 128.200774,36.8914789 128.253689,36.9208099 Z" id="Fill-21"></path>
            <path d="M133.749232,47.3457324 C133.760024,47.2577394 133.780215,47.1652606 133.805976,47.074162 L136.555836,38.2241408 L134.397793,38.2241408 C134.397793,37.9929437 134.413807,37.8504296 134.450709,37.7924577 C134.491092,37.7313803 134.584738,37.6699577 134.737566,37.6126761 C135.701531,37.250007 136.446176,36.8976901 136.977071,36.5557254 C137.503788,36.2161761 138.227893,35.5650282 139.143121,34.5936549 L139.369404,34.3527958 C139.399343,34.3193239 139.433111,34.2927535 139.476279,34.2699789 C139.519795,34.2496197 139.562963,34.2385775 139.613093,34.2385775 C139.706391,34.2582465 139.772883,34.2713592 139.810829,34.2889577 C139.84042,34.3472746 139.856782,34.3986901 139.86096,34.4483803 C139.863745,34.4949648 139.863745,34.5408592 139.853997,34.5936549 L139.016054,37.3580141 L141.362434,37.3580141 L141.191852,38.2241408 L138.738596,38.2241408 L136.118588,46.7449648 C136.072635,46.8957606 136.086212,47.04 136.163148,47.1787183 C136.236255,47.3174366 136.366455,47.3902465 136.546437,47.3902465 C136.790126,47.3902465 137.136861,47.1718169 137.584902,46.7304718 C137.840775,46.4927183 138.271409,46.025838 138.87924,45.3212042 L139.248951,45.5165141 L139.049822,45.7773873 C138.232071,46.8691901 137.51458,47.6286901 136.890387,48.0565775 C136.268979,48.4834296 135.678555,48.6949577 135.118069,48.6949577 C134.634868,48.6949577 134.283956,48.5810845 134.063243,48.3564437 C133.846707,48.1245563 133.737047,47.868169 133.737047,47.5807254 C133.737047,47.5110211 133.743662,47.4351056 133.749232,47.3457324" id="Fill-22"></path>
            <path d="M147.192527,39.2610775 C147.208541,39.1768803 147.224903,39.0961338 147.242657,39.0264296 C147.255886,38.9539648 147.261456,38.8808099 147.261456,38.8028239 C147.261456,38.4425704 147.142397,38.2175845 146.898707,38.136493 C146.657803,38.0571268 146.204193,38.0174437 145.540662,38.0174437 L145.540662,37.6620211 L147.659366,37.2945211 L149.944824,36.9128732 C149.992169,36.9063169 150.035685,36.9273662 150.072239,36.975331 C150.111577,37.0250211 150.128983,37.078162 150.118191,37.1244014 L150.075024,37.3345493 L147.311587,45.9050634 C147.245094,46.1148662 147.194964,46.2805 147.168158,46.3995493 C147.138219,46.5203239 147.124642,46.6024507 147.124642,46.6524859 C147.124642,46.8477958 147.18835,47.0013521 147.311587,47.1124648 C147.436216,47.2197817 147.598444,47.2780986 147.798965,47.2780986 C148.366413,47.2780986 149.074505,46.8301972 149.921847,45.9430211 C150.772323,45.0530845 151.526368,44.1303662 152.188506,43.1776268 C152.785545,42.3194366 153.328276,41.3670423 153.829232,40.3163028 C154.136628,39.6648099 154.576662,38.6289085 155.150724,37.2051479 L157.296931,37.2051479 L154.503555,46.2080352 C154.457602,46.3781549 154.414434,46.535162 154.376488,46.677331 C154.339935,46.8195 154.320788,46.9406197 154.320788,47.0313732 C154.320788,47.1438662 154.346549,47.2397958 154.407472,47.3174366 C154.464216,47.3985282 154.5603,47.4382113 154.701291,47.4382113 C154.838105,47.4382113 154.984319,47.3902465 155.130533,47.2925915 C155.278139,47.197007 155.464735,47.0444859 155.688233,46.8426197 C155.788494,46.7484155 155.975438,46.5517254 156.242104,46.2501338 C156.408509,46.0637958 156.665775,45.7773873 157.00694,45.3974648 L157.413205,45.638669 C156.980135,46.2805 156.528961,46.834338 156.062122,47.299493 C155.130533,48.2287676 154.266828,48.6949577 153.466483,48.6949577 C153.052211,48.6949577 152.715223,48.5959225 152.450994,48.3944014 C152.188506,48.1925352 152.054477,47.8764507 152.054477,47.4447676 C152.054477,47.2270282 152.077454,46.9851338 152.127584,46.7235704 C152.174929,46.4658028 152.248036,46.168007 152.354911,45.8408803 C152.531064,45.2487394 152.755606,44.5061479 153.029234,43.6175915 L153.402775,42.4236479 L153.2959,42.4236479 C151.977193,44.4002113 150.935943,45.7942958 150.181899,46.6131479 C148.867369,48.0186197 147.625598,48.7232535 146.457282,48.7232535 C146.140485,48.7232535 145.85328,48.6639014 145.597406,48.5424366 C145.099236,48.3067535 144.852761,47.8847324 144.852761,47.2725775 C144.852761,47.0969366 144.859724,46.9547676 144.879915,46.8426197 C144.896277,46.7335775 144.932831,46.5814014 144.975999,46.3860915 L147.192527,39.2610775" id="Fill-23"></path>
            <path d="M162.22224,47.3457324 C162.229202,47.2577394 162.249394,47.1652606 162.276548,47.074162 L165.026408,38.2241408 L162.862795,38.2241408 C162.862795,37.9929437 162.882986,37.8504296 162.91954,37.7924577 C162.956093,37.7313803 163.053569,37.6699577 163.206745,37.6126761 C164.167925,37.250007 164.915355,36.8976901 165.44625,36.5557254 C165.974011,36.2161761 166.697072,35.5650282 167.6123,34.5936549 L167.838583,34.3527958 C167.869566,34.3193239 167.901942,34.2927535 167.945458,34.2699789 C167.988626,34.2496197 168.032141,34.2385775 168.082272,34.2385775 C168.17557,34.2582465 168.243455,34.2713592 168.280008,34.2889577 C168.309599,34.3472746 168.323176,34.3986901 168.329791,34.4483803 C168.332576,34.4949648 168.329791,34.5408592 168.323176,34.5936549 L167.485233,37.3580141 L169.831613,37.3580141 L169.658245,38.2241408 L167.20499,38.2241408 L164.58916,46.7449648 C164.539029,46.8957606 164.555043,47.04 164.628498,47.1787183 C164.705434,47.3174366 164.835634,47.3902465 165.012831,47.3902465 C165.259305,47.3902465 165.605692,47.1718169 166.05408,46.7304718 C166.311347,46.4927183 166.741632,46.025838 167.348419,45.3212042 L167.715345,45.5165141 L167.519001,45.7773873 C166.70125,46.8691901 165.983759,47.6286901 165.359566,48.0565775 C164.739202,48.4834296 164.147734,48.6949577 163.587248,48.6949577 C163.103699,48.6949577 162.753135,48.5810845 162.532422,48.3564437 C162.315886,48.1245563 162.206226,47.868169 162.206226,47.5807254 C162.206226,47.5110211 162.208663,47.4351056 162.22224,47.3457324" id="Fill-24"></path>
            <path d="M180.48014,41.3004437 C181.618865,40.4005 182.185965,39.5091831 182.185965,38.6226972 C182.185965,38.3021268 182.099282,38.0495352 181.931484,37.8569859 C181.758117,37.6668521 181.507813,37.5726479 181.17744,37.5726479 C180.559861,37.5726479 179.956208,37.8076408 179.365784,38.2772817 C178.77153,38.7451972 178.238198,39.2728099 177.764049,39.8649507 C177.260308,40.5547465 176.862398,41.2176268 176.572756,41.8511761 C176.408788,42.1886549 176.238205,42.5706479 176.058223,43.0009507 C177.867094,42.7659577 179.342807,42.199007 180.48014,41.3004437 Z M175.875456,39.6033873 C177.750472,37.8421479 179.689542,36.9653239 181.687795,36.9653239 C182.425825,36.9653239 183.013465,37.1181901 183.450713,37.4187465 C183.887961,37.7248239 184.104497,38.1765211 184.104497,38.7748732 C184.104497,39.9922817 183.307284,41.0323239 181.708334,41.8943099 C180.113214,42.7594014 178.434194,43.2901197 176.668839,43.4854296 L175.857702,43.5713521 C175.734465,43.9209085 175.651958,44.1966197 175.604613,44.4033169 C175.554483,44.6100141 175.531506,44.8712324 175.531506,45.1824859 C175.531506,45.9281831 175.805135,46.5068662 176.349258,46.9188803 C176.892337,47.3374507 177.540899,47.5406972 178.290766,47.5406972 C179.001642,47.5406972 179.752902,47.3305493 180.550462,46.9105986 C181.004072,46.662493 181.664818,46.2232183 182.525738,45.5872535 L182.896842,45.8802183 C182.468993,46.3629718 181.858377,46.8574577 181.061165,47.3671268 C179.648811,48.2691408 178.234021,48.7232535 176.812268,48.7232535 C175.807571,48.7232535 174.927853,48.4044085 174.169631,47.7722394 C173.408624,47.1373099 173.032298,46.2290845 173.032298,45.0465282 C173.032298,43.1731408 173.979902,41.3566901 175.875456,39.6033873 Z" id="Fill-25"></path>
        </g>
    </g>
</svg>