<?xml version="1.0" encoding="UTF-8"?>
<svg width="251px" height="120px" viewBox="0 0 251 120" version="1.1" xmlns="http://www.w3.org/2000/svg" xmlns:xlink="http://www.w3.org/1999/xlink">
    <!-- Generator: Sketch 52.5 (67469) - http://www.bohemiancoding.com/sketch -->
    <title>american-press-institute-black</title>
    <desc>Created with Sketch.</desc>
    <g id="Page-1" stroke="none" stroke-width="1" fill="none" fill-rule="evenodd">
        <g id="american-press-institute-black" fill="#1F201C" fill-rule="nonzero">
            <path d="M72.0614832,69.1240784 L56.2657745,23.699868 L40.3188371,69.1240784 L72.0614832,69.1240784 Z M45.3378704,0 L68.6336366,0 L114,117 L88.8960661,117 L78.487599,87.3499613 L34.0527165,87.3499613 L23.6530164,117 L0,117 L45.3378704,0 Z" id="Fill-4"></path>
            <path d="M159.1747,54.9157407 C164.758841,54.9157407 169.236865,53.2791221 172.587351,49.988725 C175.897105,46.7154877 177.564841,42.4555603 177.564841,37.2110878 C177.564841,31.687768 175.813503,27.2154878 172.321541,23.7620723 C168.81243,20.3172368 164.435156,18.592674 159.1747,18.592674 L143.200423,18.592674 L143.200423,54.9157407 L159.1747,54.9157407 Z M122,0 L159.524112,0 C167.693456,0 174.381565,1.25695742 179.575561,3.7687273 C184.793135,6.29551204 188.904605,9.39929598 191.946406,13.0800792 C194.990349,16.7608623 197.082527,20.688318 198.257233,24.9139258 C199.425504,29.1288087 200,32.9640303 200,36.4796501 C200,43.0282696 198.831723,48.6524033 196.505895,53.3327465 C194.165055,58.0066546 191.121112,61.8504562 187.386923,64.8362668 C183.642013,67.8156419 179.431936,70.005665 174.765268,71.4063361 C170.105035,72.8027168 165.476956,73.5019801 160.917467,73.5019801 L143.200423,73.5019801 L143.200423,117 L122,117 L122,0 Z" id="Fill-12"></path>
            <path d="M235.313914,15.9473417 C233.513019,14.1228676 232.625,11.9692 232.625,9.40056306 C232.625,6.77860548 233.513019,4.56929944 235.313914,2.74250691 C237.089953,0.911078135 239.259161,0 241.774087,0 C244.277715,0 246.464999,0.911078135 248.268153,2.74250691 C250.087125,4.56929944 251,6.77860548 251,9.40056306 C251,11.9900642 250.087125,14.2016887 248.268153,15.9890707 C246.464999,17.769498 244.277715,18.6666667 241.774087,18.6666667 C239.259161,18.6666667 237.089953,17.769498 235.313914,15.9473417 Z M244.154415,38.7431425 C244.491808,38.9479453 244.646446,39.2099032 244.583184,39.4861489 L225.265126,101.989226 C224.363069,105.299417 223.915556,107.287913 223.915556,107.926138 C223.915556,108.804886 224.117054,109.562182 224.498963,110.221839 C224.817612,110.902928 225.618919,111.257761 226.877112,111.257761 C229.065476,111.257761 231.935655,109.550274 235.506391,106.099579 C237.622123,104.05631 240.180682,101.122385 243.252359,97.3335261 L245.75,99.2505793 L244.784683,100.496068 C240.000271,106.613968 236.045282,111.041051 232.929088,113.701112 C228.008782,117.925773 223.22437,120 218.566481,120 C215.834539,120 213.536053,118.947407 211.722569,116.854128 C209.902056,114.751323 209,112.28654 209,109.40977 C209,107.73086 209.11715,106.249609 209.381909,105.00412 C209.637297,103.746723 210.129327,101.886825 210.822856,99.4339495 L224.435703,54.4605963 C224.637201,53.7556926 224.773095,53.1150876 224.908989,52.5197295 C225.037855,51.9386598 225.110487,51.3575902 225.110487,50.7860464 C225.110487,48.6760972 224.252948,47.3853605 222.568329,46.8781154 C220.881367,46.3780145 217.566018,46.1422532 212.598852,46.1422532 L212.598852,43.2416682 C217.828435,42.6701245 221.628785,42.2009821 223.915556,41.8937772 C226.230443,41.5865723 228.564074,41.2317395 230.923478,40.8792869 C233.92955,40.4125262 236.827845,39.8719409 239.552757,39.3146862 C242.268298,38.7431425 243.791249,38.5407206 244.154415,38.7431425 Z" id="Fill-17"></path>
        </g>
    </g>
</svg>