<?xml version="1.0" encoding="UTF-8"?>
<svg width="46px" height="26px" viewBox="0 0 46 26" version="1.1" xmlns="http://www.w3.org/2000/svg" xmlns:xlink="http://www.w3.org/1999/xlink">
    <!-- Generator: Sketch 50.2 (55047) - http://www.bohemiancoding.com/sketch -->
    <title>arrow</title>
    <desc>Created with Sketch.</desc>
    <defs></defs>
    <g id="design" stroke="none" stroke-width="1" fill="none" fill-rule="evenodd">
        <g id="JM-home" transform="translate(-244.000000, -478.000000)" fill="#686953">
            <g id="Hero" transform="translate(220.000000, 140.000000)">
                <g id="Down-Arrow" transform="translate(47.000000, 347.000000) rotate(90.000000) translate(-47.000000, -347.000000) translate(0.000000, 300.000000)">
                    <path d="M40.1692227,69.0685484 C39.9567141,69.0685484 39.7517981,69.0318919 39.5544686,68.9585777 C39.3571392,68.8852636 39.1825811,68.775294 39.0307892,68.6286657 C38.7272054,68.3354091 38.5754158,67.9835065 38.5754158,67.5729472 C38.5754158,67.162388 38.7272054,66.8104853 39.0307892,66.5172287 L59.8413539,46.4145894 L39.3495506,26.6638563 C39.0459668,26.3705997 38.8941772,26.0113658 38.8941772,25.5861437 C38.8941772,25.1609216 39.0459668,24.8016877 39.3495506,24.5084311 C39.6531344,24.2151745 40.025019,24.0685484 40.4652155,24.0685484 C40.905412,24.0685484 41.2772965,24.2151745 41.5808803,24.5084311 L63.1200424,45.358871 C63.4236262,45.6521276 63.5754158,46.0040302 63.5754158,46.4145894 C63.5754158,46.8251487 63.4236262,47.1770513 63.1200424,47.4703079 L41.2621189,68.6286657 C41.110327,68.775294 40.935769,68.8852636 40.7384395,68.9585777 C40.54111,69.0318919 40.351373,69.0685484 40.1692227,69.0685484 Z" id="arrow"></path>
                </g>
            </g>
        </g>
    </g>
</svg>