<?xml version="1.0" encoding="UTF-8"?>
<svg width="158px" height="159px" viewBox="0 0 158 159" version="1.1" xmlns="http://www.w3.org/2000/svg" xmlns:xlink="http://www.w3.org/1999/xlink">
    <!-- Generator: Sketch 50.2 (55047) - http://www.bohemiancoding.com/sketch -->
    <title>bundle-select-logo-white</title>
    <desc>Created with Sketch.</desc>
    <defs></defs>
    <g id="design" stroke="none" stroke-width="1" fill="none" fill-rule="evenodd">
        <g id="JM-home" transform="translate(-200.000000, -4946.000000)" fill-rule="nonzero">
            <g id="Bundle-Select" transform="translate(0.000000, 3789.000000)">
                <g id="bundle-select-logo-white" transform="translate(200.000000, 1157.000000)">
                    <g id="Group" fill="#FFFFFF">
                        <g id="Group-3">
                            <path d="M128.537214,129.408469 C115.30524,142.698334 97.7129935,150.017704 79,150.017704 C60.2870066,150.017704 42.69476,142.698334 29.4627866,129.408469 C16.2308134,116.118605 8.94332665,98.4488608 8.94332665,79.6539965 C8.94332665,60.8596606 16.2308134,43.189917 29.4627866,29.9000524 C42.69476,16.6101877 60.2870066,9.29134651 79,9.29134651 C97.7129935,9.29134651 115.30524,16.6101877 128.537214,29.9000524 C141.769186,43.189917 149.056674,60.8596606 149.056674,79.6539965 C149.056674,98.4488608 141.769186,116.118605 128.537214,129.408469 M134.861426,23.5486989 C119.940434,8.56189569 100.101954,0.308362883 79,0.308362883 C57.8985734,0.308362883 38.0595666,8.56189569 23.1385734,23.5486989 C8.21758,38.5349732 0,58.4602486 0,79.6539965 C0,100.848273 8.21758,120.773548 23.1385734,135.760351 C38.0595666,150.746626 57.8985734,158.99963 79,158.99963 C100.101954,158.99963 119.940434,150.746626 134.861426,135.760351 C149.782946,120.773548 158,100.848273 158,79.6539965 C158,58.4602486 149.782946,38.5349732 134.861426,23.5486989" id="Fill-1"></path>
                        </g>
                        <path d="M79.0002105,30.2507072 C76.5306705,30.2507072 74.528284,32.2613256 74.528284,34.7416701 L74.528284,124.567275 C74.528284,127.04709 76.5306705,129.058238 79.0002105,129.058238 C81.469224,129.058238 83.4716105,127.04709 83.4716105,124.567275 L83.4716105,34.7416701 C83.4716105,32.2613256 81.469224,30.2507072 79.0002105,30.2507072" id="Fill-4"></path>
                        <path d="M99.42703,75.163139 C96.9580165,75.163139 94.95563,77.1742868 94.95563,79.6541019 C94.95563,82.1349758 96.9580165,84.1455941 99.42703,84.1455941 C109.289916,84.1455941 117.31421,92.2049942 117.31421,102.110503 C117.31421,112.016541 109.289916,120.075413 99.42703,120.075413 C96.9580165,120.075413 94.95563,122.08656 94.95563,124.566904 C94.95563,127.047249 96.9580165,129.058396 99.42703,129.058396 C114.221624,129.058396 126.25701,116.969296 126.25701,102.110503 C126.25701,87.2522397 114.221624,75.163139 99.42703,75.163139" id="Fill-6"></path>
                        <path d="M58.4365105,39.2328974 C60.9060505,39.2328974 62.9079105,37.222279 62.9079105,34.7419345 C62.9079105,32.261061 60.9060505,30.2509716 58.4365105,30.2509716 C43.642444,30.2509716 31.6065306,42.3390145 31.6065306,57.1983357 C31.6065306,72.0571282 43.642444,84.1456995 58.4365105,84.1456995 C60.9060505,84.1456995 62.9079105,82.1345524 62.9079105,79.6542079 C62.9079105,77.1743922 60.9060505,75.163245 58.4365105,75.163245 C48.573624,75.163245 40.5498574,67.1038444 40.5498574,57.1983357 C40.5498574,47.2917689 48.573624,39.2328974 58.4365105,39.2328974" id="Fill-8"></path>
                    </g>
                    <polygon id="™" fill-opacity="0.200000018" fill="#333333" points="134 10 141.069307 10 143.50495 15.6396867 145.940594 10 147.089109 10 148 18 146.712871 18 146.079208 12.4020887 144.059406 17.1436031 142.970297 17.1436031 140.910891 12.4020887 140.29703 18 138.990099 18 139.742574 11.232376 137.643564 11.232376 137.643564 18 136.29703 18 136.29703 11.232376 134 11.232376"></polygon>
                </g>
            </g>
        </g>
    </g>
</svg>