<?xml version="1.0" encoding="UTF-8"?>
<svg width="225px" height="222px" viewBox="0 0 225 222" version="1.1" xmlns="http://www.w3.org/2000/svg" xmlns:xlink="http://www.w3.org/1999/xlink">
    <!-- Generator: Sketch 51.2 (57519) - http://www.bohemiancoding.com/sketch -->
    <title>furnsoc-logo-black</title>
    <desc>Created with Sketch.</desc>
    <defs></defs>
    <g id="design" stroke="none" stroke-width="1" fill="none" fill-rule="evenodd">
        <g id="JM-home" transform="translate(-201.000000, -8723.000000)" fill="#1F201C">
            <g id="Furnsoc" transform="translate(0.000000, 7606.000000)">
                <g id="furnsoc-logo-black" transform="translate(201.000000, 1117.000000)">
                    <path d="M20.4827845,109.355454 L38.5550545,91.6345382 L37.7769717,84.619681 L19.68914,102.576875 L20.4827845,109.355454 Z M18.2937782,94.4541328 L35.9355091,76.7857238 L32.8543011,42.8403257 L12.4685316,60.0256757 C12.4685316,60.0256757 13.6771535,67.5865996 15.4926801,76.3341686 C17.33933,85.0397324 18.2937782,94.4541328 18.2937782,94.4541328 Z M140.323099,50.7005362 C145.977167,50.8265516 156.953322,51.8504267 156.953322,51.8504267 L159.505433,24.5733435 L128.138322,19.7847584 L126.587343,50.6900349 C126.587343,50.6900349 134.622345,50.5220144 140.323099,50.7005362 Z M171.197424,110.778378 C170.31041,118.533575 169.537514,131.140366 169.537514,131.140366 L198.601501,111.413705 L203.285559,79.243024 L173.863655,94.6011508 C173.863655,94.6011508 171.669461,106.8719 171.197424,110.778378 Z M167.711613,148.955793 L192.496145,133.849697 L184.315901,129.685938 L168.847614,140.218725 L167.711613,148.955793 Z M196.972714,128.252513 L197.258011,121.164147 L191.308271,125.175637 L196.972714,128.252513 Z M135.550857,137.609156 L160.53769,149.906159 L162.410276,125.684949 L135.550857,137.609156 Z M58.9304497,128.80383 L70.6898745,114.149289 C70.6898745,114.149289 65.7257062,112.054283 60.9638394,108.924901 C56.2175343,105.837524 52.9547737,101.79978 52.9547737,101.79978 L40.9048646,99.2689711 L25.3172723,115.414694 L58.9304497,128.80383 Z M165.849402,94.7376674 C166.741604,85.9795972 168.297769,78.8387246 168.297769,78.8387246 C168.297769,78.8387246 170.284474,75.0477614 173.178942,75.2315338 C175.720679,75.3522986 176.088972,79.0119958 176.088972,79.0119958 L175.191583,86.5361652 L202.310362,71.4615732 C202.310362,71.4615732 202.746089,70.9680128 201.900572,70.2959307 C195.375051,64.709248 159.624739,57.4633626 130.960169,57.9621736 C93.8611805,58.6027518 56.4924569,72.9685073 56.2901553,88.2846289 C56.0100455,110.720621 119.709091,117.551705 132.97281,117.803736 C146.262464,118.061017 163.152048,115.934508 163.152048,115.934508 C163.152048,115.934508 164.946826,103.637505 165.849402,94.7376674 Z M206.683188,102.69764 C206.683188,102.69764 216.839762,96.6331491 217.545224,89.0617238 C218.240311,81.5533063 210.485419,75.5623243 210.485419,75.5623243 L206.683188,102.69764 Z M49.4897116,94.3963757 C49.4897116,94.3963757 38.7106711,77.5995732 71.7013822,63.4333421 C96.6882147,52.6800281 119.631283,51.7821684 119.631283,51.7821684 L121.519431,3.35025014 C121.519431,3.35025014 120.710225,0.441394682 124.512456,0.373136341 C128.293938,0.325880566 128.242066,5.20897727 128.242066,5.20897727 L128.210943,12.2500877 L161.046037,17.4692254 L162.591829,7.91830834 C162.591829,7.91830834 164.096122,4.47913808 167.026901,4.9096907 C170.004364,5.33499267 169.138099,8.28585325 169.138099,8.28585325 C169.138099,8.28585325 168.619377,16.3875933 166.876471,24.6678551 C165.128379,32.9743701 163.675957,52.4595012 163.675957,52.4595012 C163.675957,52.4595012 172.110375,53.7249058 185.15623,56.4237356 C198.207272,59.0858109 205.329324,62.9187792 205.329324,62.9187792 L207.388649,55.8986714 C207.388649,55.8986714 208.177107,53.0633249 211.927466,54.0661975 C215.53777,54.9903104 214.713002,58.6237544 214.713002,58.6237544 L212.529183,66.6572361 C212.529183,66.6572361 225.875897,74.1656536 224.506471,89.7443073 C223.105922,105.343963 204.909159,114.002272 204.909159,114.002272 C204.909159,114.002272 203.648665,112.453332 203.104007,127.627687 C202.5386,143.153834 202.953577,151.869899 204.841725,167.789844 C206.838804,184.245355 209.240487,197.781509 209.240487,197.781509 C209.240487,197.781509 210.049693,199.172929 207.933307,201.173424 C205.822109,203.168667 202.880956,201.246933 202.880956,201.246933 C202.880956,201.246933 199.255091,182.071589 197.698925,166.540192 C196.132385,150.98254 195.826339,139.557144 195.826339,139.557144 L178.008243,151.092804 L179.543659,169.396541 C179.543659,169.396541 179.087184,172.814708 176.114908,173.864837 C173.16338,174.87821 172.805462,169.522556 172.805462,169.522556 L171.669461,155.109545 L167.410755,157.93439 C167.410755,157.93439 167.291449,173.985601 168.42745,187.590014 C169.573825,201.194426 170.735762,216.253266 170.735762,216.253266 C170.735762,216.253266 171.524219,220.12824 168.987669,221.635174 C166.425183,223.136857 163.535902,219.293388 163.535902,219.293388 C163.535902,219.293388 162.389527,205.715229 161.243152,190.17858 C160.086402,174.594676 160.247206,158.543464 160.247206,158.543464 L130.431073,143.526629 C130.431073,143.526629 130.731931,161.515327 130.182086,172.704445 C129.673739,183.914565 128.293938,197.256445 128.293938,197.256445 C128.293938,197.256445 127.84265,201.157672 123.641003,200.727119 C119.408233,200.32807 121.145951,194.736137 121.145951,194.736137 C121.145951,194.736137 121.690609,181.142226 122.214518,167.989369 C122.76955,154.841762 122.442756,142.702279 122.468692,138.790551 C122.499815,134.905076 124.621388,134.36426 124.621388,134.36426 L145.359888,125.259647 C145.359888,125.259647 126.784458,126.010489 109.111604,123.910232 C91.4180005,121.778472 83.0147062,118.481069 83.0147062,118.481069 C83.0147062,118.481069 83.3518754,126.661568 84.1558943,134.437769 C84.9339771,142.21922 86.1011013,152.326705 86.1011013,152.326705 C86.1011013,152.326705 87.7454497,156.196428 84.3685703,157.719114 C80.9553804,159.252301 79.3265937,155.109545 79.3265937,155.109545 C79.3265937,155.109545 78.1283462,147.186327 77.365825,137.934696 C76.6136783,128.730321 75.4258052,117.247168 75.4258052,117.247168 L63.0854119,135.298874 C63.0854119,135.298874 63.4381427,152.841268 64.0969195,160.585964 C64.8853768,169.622318 66.4259807,185.284982 66.4259807,185.284982 C66.4259807,185.284982 66.8461454,188.199088 64.2784722,189.212462 C61.7419222,190.215335 59.2520572,186.944185 59.2520572,186.944185 C59.2520572,186.944185 58.1056819,172.83046 57.3535352,159.220797 C56.6584479,145.626886 55.4602003,135.860693 55.4602003,135.860693 L42.4350941,130.673059 C42.4350941,130.673059 42.83451,134.537531 42.3780347,138.45976 C41.9319339,142.350486 41.8696873,147.165324 41.8696873,147.165324 C41.8696873,147.165324 41.0137962,150.095182 38.4668718,150.142438 C35.9355091,150.189694 35.5568421,146.845035 35.5568421,146.845035 C35.5568421,146.845035 34.7580104,143.012066 35.6398376,136.711296 C36.5424137,130.347519 35.2819195,128.924595 35.2819195,128.924595 L20.8199537,122.434802 C20.8199537,122.434802 20.3738529,133.534658 19.9744371,144.282722 C19.450528,158.874255 18.454582,171.370782 18.454582,171.370782 C18.454582,171.370782 17.5468187,175.791822 12.9665046,174.836205 C10.6737539,174.405653 10.9071787,170.504426 10.9071787,170.504426 C10.9071787,170.504426 13.6615919,146.041687 13.2414272,114.522085 C13.2154911,112.43758 12.7434542,113.204174 12.7019564,111.093416 C11.6852615,79.4898042 0.98921654,47.5711538 0.98921654,47.5711538 C0.98921654,47.5711538 -1.09604539,44.6938022 2.30158288,42.7090597 C5.68364948,40.682312 7.77409863,44.4155182 7.77409863,44.4155182 L10.2172786,52.2704781 L31.4537521,34.1295113 L31.1010212,28.4955728 C31.1010212,28.4955728 29.8820248,24.200548 33.6583201,23.1609209 C37.476113,22.1422965 37.4190536,27.7814856 37.4190536,27.7814856 C37.4190536,27.7814856 38.5550545,43.5649143 40.5261976,59.0910615 C42.502528,74.643462 43.6333417,92.2961191 43.6333417,92.2961191 L49.4897116,94.3963757 Z" id="Fill-42"></path>
                </g>
            </g>
        </g>
    </g>
</svg>