<?xml version="1.0" encoding="UTF-8"?>
<svg width="25px" height="25px" viewBox="0 0 25 25" version="1.1" xmlns="http://www.w3.org/2000/svg" xmlns:xlink="http://www.w3.org/1999/xlink">
    <!-- Generator: Sketch 51.3 (57544) - http://www.bohemiancoding.com/sketch -->
    <title>menu</title>
    <desc>Created with Sketch.</desc>
    <defs></defs>
    <g id="design" stroke="none" stroke-width="1" fill="none" fill-rule="evenodd">
        <g id="JM-home" transform="translate(-253.000000, -31.000000)" fill="#C9BA96">
            <g id="Header" transform="translate(253.000000, 30.000000)">
                <path d="M24.4788485,3.76679842 L0,3.76679842 L0,1 L24.4788485,1 C24.6492169,1 24.8032441,1.03719583 24.913181,1.09196589 C25.0287255,2.20897365 25.0292139,2.54947191 24.9130005,3.67492239 C24.8030756,3.72964328 24.6491237,3.76679842 24.4788485,3.76679842 Z M24.4788485,14.8833992 L0,14.8833992 L0,12.1166008 L24.4788485,12.1166008 C24.6492169,12.1166008 24.8032441,12.1537966 24.913181,12.2085667 C25.0287255,13.3255744 25.0292139,13.6660727 24.9130005,14.7915232 C24.8030756,14.8462441 24.6491237,14.8833992 24.4788485,14.8833992 Z M24.4788485,26 L0,26 L0,23.2332016 L24.4788485,23.2332016 C24.6492169,23.2332016 24.8032441,23.2703974 24.913181,23.3251675 C25.0287255,24.4421752 25.0292139,24.7826735 24.9130005,25.908124 C24.8030756,25.9628449 24.6491237,26 24.4788485,26 Z" id="menu" transform="translate(12.500000, 13.500000) rotate(90.000000) translate(-12.500000, -13.500000) "></path>
            </g>
        </g>
    </g>
</svg>