<?xml version="1.0" encoding="UTF-8"?>
<svg width="13px" height="23px" viewBox="0 0 13 23" version="1.1" xmlns="http://www.w3.org/2000/svg" xmlns:xlink="http://www.w3.org/1999/xlink">
    <!-- Generator: Sketch 51.2 (57519) - http://www.bohemiancoding.com/sketch -->
    <title>slider-arrow</title>
    <desc>Created with Sketch.</desc>
    <defs></defs>
    <g id="Symbols" stroke="none" stroke-width="1" fill="none" fill-rule="evenodd">
        <g id="Carousel" transform="translate(-598.000000, -800.000000)" stroke="#1F201C" stroke-width="2">
            <g id="Slider-Dots-Copy" transform="translate(584.000000, 789.000000)">
                <g id="Group-2-Copy" transform="translate(22.500000, 22.500000) scale(-1, 1) translate(-22.500000, -22.500000) ">
                    <path d="M19.701275,33 C19.6077712,33 19.5176082,32.9828936 19.4307832,32.9486804 C19.3439583,32.9144671 19.2671527,32.8631479 19.2003643,32.7947214 C19.0667874,32.6578683 19,32.4936471 19,32.3020528 C19,32.1104585 19.0667874,31.9462372 19.2003643,31.8093842 L28.3570128,22.4281525 L19.3406193,13.2111437 C19.2070424,13.0742906 19.140255,12.9066481 19.140255,12.7082111 C19.140255,12.5097742 19.2070424,12.3421317 19.3406193,12.2052786 C19.4741962,12.0684255 19.6378254,12 19.8315118,12 C20.0251983,12 20.1888275,12.0684255 20.3224044,12.2052786 L29.7996357,21.9354839 C29.9332126,22.072337 30,22.2365582 30,22.4281525 C30,22.6197468 29.9332126,22.783968 29.7996357,22.9208211 L20.1821494,32.7947214 C20.1153609,32.8631479 20.0385554,32.9144671 19.9517304,32.9486804 C19.8649055,32.9828936 19.7814212,33 19.701275,33 Z" id="slider-arrow"></path>
                </g>
            </g>
        </g>
    </g>
</svg>